<?xml version="1.0" encoding="UTF-8" standalone="no"?>
<!-- Created with Inkscape (http://www.inkscape.org/) -->

<svg
   width="84.261543mm"
   height="58.918186mm"
   viewBox="0 0 84.261543 58.918186"
   version="1.1"
   id="svg1"
   inkscape:version="1.3.2 (091e20ef0f, 2023-11-25, custom)"
   sodipodi:docname="fig3.svg"
   xmlns:inkscape="http://www.inkscape.org/namespaces/inkscape"
   xmlns:sodipodi="http://sodipodi.sourceforge.net/DTD/sodipodi-0.dtd"
   xmlns="http://www.w3.org/2000/svg"
   xmlns:svg="http://www.w3.org/2000/svg">
  <sodipodi:namedview
     id="namedview1"
     pagecolor="#505050"
     bordercolor="#eeeeee"
     borderopacity="1"
     inkscape:showpageshadow="0"
     inkscape:pageopacity="0"
     inkscape:pagecheckerboard="0"
     inkscape:deskcolor="#505050"
     inkscape:document-units="mm"
     inkscape:zoom="0.96623694"
     inkscape:cx="145.40947"
     inkscape:cy="215.78558"
     inkscape:window-width="727"
     inkscape:window-height="1229"
     inkscape:window-x="0"
     inkscape:window-y="0"
     inkscape:window-maximized="0"
     inkscape:current-layer="layer1" />
  <defs
     id="defs1" />
  <g
     inkscape:label="Layer 1"
     inkscape:groupmode="layer"
     id="layer1"
     transform="translate(-48.418746,-14.552081)">
    <path
       id="path2098"
       d="M 55.009259,68.668421 H 55.76727"
       style="fill:none;stroke:#000000;stroke-width:0.120319;stroke-linecap:butt;stroke-linejoin:miter;stroke-miterlimit:3.8;stroke-dasharray:none;stroke-opacity:1" />
    <path
       id="path2099"
       d="m 131.35168,68.668421 h -0.75801"
       style="fill:none;stroke:#000000;stroke-width:0.120319;stroke-linecap:butt;stroke-linejoin:miter;stroke-miterlimit:3.8;stroke-dasharray:none;stroke-opacity:1" />
    <path
       id="path2100"
       d="m 53.525437,68.026671 c -0.111621,0 -0.210839,0.04961 -0.272851,0.132292 -0.07855,0.103353 -0.115755,0.264583 -0.115755,0.483691 0,0.405144 0.132291,0.615983 0.388606,0.615983 0.252181,0 0.388607,-0.210839 0.388607,-0.60358 0,-0.231511 -0.03721,-0.388607 -0.115755,-0.496094 -0.06201,-0.08268 -0.161231,-0.132292 -0.272852,-0.132292 z m 0,0.132292 c 0.161231,0 0.239779,0.16123 0.239779,0.483691 0,0.334864 -0.07855,0.496094 -0.243913,0.496094 -0.157096,0 -0.235644,-0.165364 -0.235644,-0.491959 0,-0.326596 0.07855,-0.487826 0.239778,-0.487826 z m 0,0"
       style="fill:#000000;fill-opacity:1;fill-rule:nonzero;stroke:none;stroke-width:0.325187"
       aria-label=" 0" />
    <path
       id="path2101"
       d="m 55.009392,63.350142 h 0.758011"
       style="fill:none;stroke:#000000;stroke-width:0.120319;stroke-linecap:butt;stroke-linejoin:miter;stroke-miterlimit:3.8;stroke-dasharray:none;stroke-opacity:1" />
    <path
       id="path2102"
       d="m 131.35187,63.350142 h -0.75801"
       style="fill:none;stroke:#000000;stroke-width:0.120319;stroke-linecap:butt;stroke-linejoin:miter;stroke-miterlimit:3.8;stroke-dasharray:none;stroke-opacity:1" />
    <path
       id="path2103"
       d="m 53.864435,62.709166 h -0.615983 l -0.09095,0.65319 h 0.136426 c 0.07028,-0.08268 0.128157,-0.111621 0.219108,-0.111621 0.16123,0 0.260449,0.107487 0.260449,0.285254 0,0.169498 -0.09922,0.276985 -0.260449,0.276985 -0.128158,0 -0.206706,-0.06614 -0.243913,-0.202571 h -0.148828 c 0.02067,0.09922 0.03721,0.144694 0.07441,0.190169 0.06615,0.09095 0.186035,0.14056 0.322461,0.14056 0.239779,0 0.409278,-0.173633 0.409278,-0.425814 0,-0.235644 -0.157097,-0.396875 -0.384473,-0.396875 -0.08682,0 -0.152962,0.02067 -0.223242,0.07028 l 0.04961,-0.330729 h 0.496094 z m 0,0"
       style="fill:#000000;fill-opacity:1;fill-rule:nonzero;stroke:none;stroke-width:0.325187"
       aria-label=" 5" />
    <path
       id="path2104"
       d="m 55.009392,58.020005 h 0.758011"
       style="fill:none;stroke:#000000;stroke-width:0.120319;stroke-linecap:butt;stroke-linejoin:miter;stroke-miterlimit:3.8;stroke-dasharray:none;stroke-opacity:1" />
    <path
       id="path2105"
       d="m 131.35187,58.020005 h -0.75801"
       style="fill:none;stroke:#000000;stroke-width:0.120319;stroke-linecap:butt;stroke-linejoin:miter;stroke-miterlimit:3.8;stroke-dasharray:none;stroke-opacity:1" />
    <path
       id="path2106"
       d="m 52.560115,57.721357 v 0.851627 h 0.148828 v -1.194759 h -0.09508 c -0.05374,0.186035 -0.08682,0.21084 -0.314193,0.239779 v 0.103353 z m 0.965315,-0.343132 c -0.111621,0 -0.210839,0.04961 -0.272851,0.132292 -0.07855,0.103353 -0.115755,0.264583 -0.115755,0.483691 0,0.405144 0.132291,0.615983 0.388606,0.615983 0.252181,0 0.388607,-0.210839 0.388607,-0.60358 0,-0.231511 -0.03721,-0.388607 -0.115755,-0.496094 -0.06201,-0.08268 -0.16123,-0.132292 -0.272852,-0.132292 z m 0,0.132292 c 0.161231,0 0.239779,0.16123 0.239779,0.483691 0,0.334864 -0.07855,0.496094 -0.243913,0.496094 -0.157096,0 -0.235644,-0.165365 -0.235644,-0.49196 0,-0.326595 0.07855,-0.487825 0.239778,-0.487825 z m 0,0"
       style="fill:#000000;fill-opacity:1;fill-rule:nonzero;stroke:none;stroke-width:0.325187"
       aria-label=" 10" />
    <path
       id="path2107"
       d="m 55.009392,52.701902 h 0.758011"
       style="fill:none;stroke:#000000;stroke-width:0.120319;stroke-linecap:butt;stroke-linejoin:miter;stroke-miterlimit:3.8;stroke-dasharray:none;stroke-opacity:1" />
    <path
       id="path2108"
       d="m 131.35187,52.701902 h -0.75801"
       style="fill:none;stroke:#000000;stroke-width:0.120319;stroke-linecap:butt;stroke-linejoin:miter;stroke-miterlimit:3.8;stroke-dasharray:none;stroke-opacity:1" />
    <path
       id="path2109"
       d="m 52.560115,52.403853 v 0.851628 h 0.148828 v -1.194759 h -0.09508 c -0.05374,0.186035 -0.08682,0.210839 -0.314193,0.239778 v 0.103353 z m 1.304313,-0.343131 h -0.615983 l -0.09095,0.65319 h 0.136426 c 0.07028,-0.08268 0.128158,-0.111621 0.219108,-0.111621 0.161231,0 0.260449,0.107487 0.260449,0.285254 0,0.169498 -0.09922,0.276985 -0.260449,0.276985 -0.128157,0 -0.206706,-0.06615 -0.243913,-0.202571 h -0.148828 c 0.02067,0.09922 0.03721,0.144694 0.07441,0.190169 0.06615,0.09095 0.186035,0.14056 0.322461,0.14056 0.239779,0 0.409278,-0.173633 0.409278,-0.425814 0,-0.235645 -0.157097,-0.396875 -0.384473,-0.396875 -0.08682,0 -0.152962,0.02067 -0.223242,0.07028 l 0.04961,-0.330729 h 0.496094 z m 0,0"
       style="fill:#000000;fill-opacity:1;fill-rule:nonzero;stroke:none;stroke-width:0.325187"
       aria-label=" 15" />
    <path
       id="path2110"
       d="m 55.009392,47.383795 h 0.758011"
       style="fill:none;stroke:#000000;stroke-width:0.120319;stroke-linecap:butt;stroke-linejoin:miter;stroke-miterlimit:3.8;stroke-dasharray:none;stroke-opacity:1" />
    <path
       id="path2111"
       d="m 131.35187,47.383795 h -0.75801"
       style="fill:none;stroke:#000000;stroke-width:0.120319;stroke-linecap:butt;stroke-linejoin:miter;stroke-miterlimit:3.8;stroke-dasharray:none;stroke-opacity:1" />
    <path
       id="path2112"
       d="m 52.97766,47.792247 h -0.628385 c 0.01654,-0.09922 0.07028,-0.161231 0.214974,-0.248047 l 0.169498,-0.09095 c 0.165365,-0.09095 0.252181,-0.21084 0.252181,-0.359668 0,-0.09922 -0.04134,-0.190169 -0.111621,-0.256315 -0.07028,-0.06201 -0.157096,-0.09508 -0.268717,-0.09508 -0.152962,0 -0.264583,0.05374 -0.330729,0.157096 -0.04134,0.06201 -0.06201,0.136426 -0.06615,0.260449 h 0.148828 c 0.0041,-0.08268 0.01654,-0.132292 0.03721,-0.169499 0.03721,-0.07441 0.115755,-0.115755 0.202572,-0.115755 0.136425,0 0.235644,0.09508 0.235644,0.223242 0,0.09508 -0.05374,0.173633 -0.16123,0.235645 l -0.152962,0.08682 c -0.248047,0.14056 -0.322461,0.256315 -0.334864,0.516765 h 0.79375 z m 0.54777,-1.050065 c -0.111621,0 -0.210839,0.04961 -0.272851,0.132291 -0.07855,0.103353 -0.115755,0.264584 -0.115755,0.483692 0,0.405143 0.132291,0.615983 0.388606,0.615983 0.252181,0 0.388607,-0.21084 0.388607,-0.603581 0,-0.23151 -0.03721,-0.388607 -0.115755,-0.496094 -0.06201,-0.08268 -0.16123,-0.132291 -0.272852,-0.132291 z m 0,0.132291 c 0.161231,0 0.239779,0.161231 0.239779,0.483692 0,0.334863 -0.07855,0.496093 -0.243913,0.496093 -0.157096,0 -0.235644,-0.165364 -0.235644,-0.491959 0,-0.326595 0.07855,-0.487826 0.239778,-0.487826 z m 0,0"
       style="fill:#000000;fill-opacity:1;fill-rule:nonzero;stroke:none;stroke-width:0.325187"
       aria-label=" 20" />
    <path
       id="path2113"
       d="m 55.009392,42.053661 h 0.758011"
       style="fill:none;stroke:#000000;stroke-width:0.120319;stroke-linecap:butt;stroke-linejoin:miter;stroke-miterlimit:3.8;stroke-dasharray:none;stroke-opacity:1" />
    <path
       id="path2114"
       d="m 131.35187,42.053661 h -0.75801"
       style="fill:none;stroke:#000000;stroke-width:0.120319;stroke-linecap:butt;stroke-linejoin:miter;stroke-miterlimit:3.8;stroke-dasharray:none;stroke-opacity:1" />
    <path
       id="path2115"
       d="m 52.97766,42.46234 h -0.628385 c 0.01654,-0.09922 0.07028,-0.161231 0.214974,-0.248047 l 0.169498,-0.09095 c 0.165365,-0.09095 0.252181,-0.21084 0.252181,-0.359668 0,-0.09922 -0.04134,-0.190169 -0.111621,-0.256315 -0.07028,-0.06201 -0.157096,-0.09509 -0.268717,-0.09509 -0.152962,0 -0.264583,0.05374 -0.330729,0.157097 -0.04134,0.06201 -0.06201,0.136426 -0.06615,0.260449 h 0.148828 c 0.0041,-0.08268 0.01654,-0.132292 0.03721,-0.169499 0.03721,-0.07441 0.115755,-0.115755 0.202572,-0.115755 0.136425,0 0.235644,0.09508 0.235644,0.223242 0,0.09508 -0.05374,0.173633 -0.16123,0.235645 l -0.152962,0.08682 c -0.248047,0.14056 -0.322461,0.256315 -0.334864,0.516765 h 0.79375 z m 0.886768,-1.050066 h -0.615983 l -0.09095,0.653191 h 0.136426 c 0.07028,-0.08268 0.128158,-0.111621 0.219108,-0.111621 0.161231,0 0.260449,0.107486 0.260449,0.285253 0,0.169499 -0.09922,0.276986 -0.260449,0.276986 -0.128157,0 -0.206706,-0.06615 -0.243913,-0.202572 h -0.148828 c 0.02067,0.09922 0.03721,0.144694 0.07441,0.19017 0.06615,0.09095 0.186035,0.14056 0.322461,0.14056 0.239779,0 0.409278,-0.173633 0.409278,-0.425814 0,-0.235645 -0.157097,-0.396875 -0.384473,-0.396875 -0.08682,0 -0.152962,0.02067 -0.223242,0.07028 l 0.04961,-0.330729 h 0.496094 z m 0,0"
       style="fill:#000000;fill-opacity:1;fill-rule:nonzero;stroke:none;stroke-width:0.325187"
       aria-label=" 25" />
    <path
       id="path2116"
       d="m 55.009392,36.735552 h 0.758011"
       style="fill:none;stroke:#000000;stroke-width:0.120319;stroke-linecap:butt;stroke-linejoin:miter;stroke-miterlimit:3.8;stroke-dasharray:none;stroke-opacity:1" />
    <path
       id="path2117"
       d="m 131.35187,36.735552 h -0.75801"
       style="fill:none;stroke:#000000;stroke-width:0.120319;stroke-linecap:butt;stroke-linejoin:miter;stroke-miterlimit:3.8;stroke-dasharray:none;stroke-opacity:1" />
    <path
       id="path2118"
       d="m 52.498103,36.743828 h 0.01654 l 0.06201,-0.0041 c 0.165365,0 0.248047,0.07441 0.248047,0.219108 0,0.148828 -0.09095,0.239779 -0.248047,0.239779 -0.16123,0 -0.239779,-0.08268 -0.248047,-0.256316 h -0.148828 c 0.0083,0.09509 0.02481,0.157097 0.05374,0.21084 0.05788,0.115755 0.177767,0.173633 0.338997,0.173633 0.248047,0 0.405143,-0.144694 0.405143,-0.37207 0,-0.148828 -0.05788,-0.235645 -0.202571,-0.28112 0.111621,-0.04547 0.165364,-0.128158 0.165364,-0.248047 0,-0.206706 -0.136426,-0.330729 -0.363802,-0.330729 -0.239779,0 -0.367936,0.132292 -0.37207,0.388607 h 0.148828 c 0,-0.07441 0.0083,-0.115756 0.02481,-0.152963 0.03721,-0.06201 0.111621,-0.103352 0.202571,-0.103352 0.132292,0 0.21084,0.07441 0.21084,0.202571 0,0.08268 -0.03307,0.136426 -0.09509,0.161231 -0.04134,0.01654 -0.09508,0.0248 -0.198437,0.0248 z m 1.027327,-0.649056 c -0.111621,0 -0.210839,0.04961 -0.272851,0.132292 -0.07855,0.103352 -0.115755,0.264583 -0.115755,0.483691 0,0.405143 0.132291,0.615983 0.388606,0.615983 0.252181,0 0.388607,-0.21084 0.388607,-0.603581 0,-0.23151 -0.03721,-0.388606 -0.115755,-0.496093 -0.06201,-0.08268 -0.16123,-0.132292 -0.272852,-0.132292 z m 0,0.132292 c 0.161231,0 0.239779,0.16123 0.239779,0.483691 0,0.334863 -0.07855,0.496094 -0.243913,0.496094 -0.157096,0 -0.235644,-0.165365 -0.235644,-0.49196 0,-0.326595 0.07855,-0.487825 0.239778,-0.487825 z m 0,0"
       style="fill:#000000;fill-opacity:1;fill-rule:nonzero;stroke:none;stroke-width:0.325187"
       aria-label=" 30" />
    <path
       id="path2119"
       d="m 55.009392,31.417448 h 0.758011"
       style="fill:none;stroke:#000000;stroke-width:0.120319;stroke-linecap:butt;stroke-linejoin:miter;stroke-miterlimit:3.8;stroke-dasharray:none;stroke-opacity:1" />
    <path
       id="path2120"
       d="m 131.35187,31.417448 h -0.75801"
       style="fill:none;stroke:#000000;stroke-width:0.120319;stroke-linecap:butt;stroke-linejoin:miter;stroke-miterlimit:3.8;stroke-dasharray:none;stroke-opacity:1" />
    <path
       id="path2121"
       d="m 52.498103,31.425288 h 0.01654 l 0.06201,-0.0041 c 0.165365,0 0.248047,0.07441 0.248047,0.219108 0,0.148828 -0.09095,0.239778 -0.248047,0.239778 -0.16123,0 -0.239779,-0.08268 -0.248047,-0.256315 h -0.148828 c 0.0083,0.09509 0.02481,0.157097 0.05374,0.21084 0.05788,0.115755 0.177767,0.173633 0.338997,0.173633 0.248047,0 0.405143,-0.144694 0.405143,-0.37207 0,-0.148828 -0.05788,-0.235645 -0.202571,-0.28112 0.111621,-0.04548 0.165364,-0.128158 0.165364,-0.248047 0,-0.206706 -0.136426,-0.330729 -0.363802,-0.330729 -0.239779,0 -0.367936,0.132291 -0.37207,0.388607 h 0.148828 c 0,-0.07441 0.0083,-0.115756 0.02481,-0.152963 0.03721,-0.06201 0.111621,-0.103353 0.202571,-0.103353 0.132292,0 0.21084,0.07442 0.21084,0.202572 0,0.08268 -0.03307,0.136426 -0.09509,0.161231 -0.04134,0.01654 -0.09508,0.0248 -0.198437,0.0248 z m 1.366325,-0.649056 h -0.615983 l -0.09095,0.65319 h 0.136426 c 0.07028,-0.08268 0.128158,-0.111621 0.219108,-0.111621 0.161231,0 0.260449,0.107487 0.260449,0.285254 0,0.169498 -0.09922,0.276985 -0.260449,0.276985 -0.128157,0 -0.206706,-0.06615 -0.243913,-0.202571 h -0.148828 c 0.02067,0.09922 0.03721,0.144694 0.07441,0.190169 0.06615,0.09095 0.186035,0.14056 0.322461,0.14056 0.239779,0 0.409278,-0.173633 0.409278,-0.425814 0,-0.235644 -0.157097,-0.396875 -0.384473,-0.396875 -0.08682,0 -0.152962,0.02067 -0.223242,0.07028 l 0.04961,-0.330729 h 0.496094 z m 0,0"
       style="fill:#000000;fill-opacity:1;fill-rule:nonzero;stroke:none;stroke-width:0.325187"
       aria-label=" 35" />
    <path
       id="path2122"
       d="m 55.009392,26.099339 h 0.758011"
       style="fill:none;stroke:#000000;stroke-width:0.120319;stroke-linecap:butt;stroke-linejoin:miter;stroke-miterlimit:3.8;stroke-dasharray:none;stroke-opacity:1" />
    <path
       id="path2123"
       d="m 131.35187,26.099339 h -0.75801"
       style="fill:none;stroke:#000000;stroke-width:0.120319;stroke-linecap:butt;stroke-linejoin:miter;stroke-miterlimit:3.8;stroke-dasharray:none;stroke-opacity:1" />
    <path
       id="path2124"
       d="m 52.67587,26.3672 v 0.285254 h 0.148828 V 26.3672 h 0.177767 v -0.132292 h -0.177767 v -0.777213 h -0.111621 l -0.541569,0.752409 V 26.3672 Z m 0,-0.132292 H 52.3038 l 0.37207,-0.525032 z m 0.84956,-0.777213 c -0.111621,0 -0.210839,0.04961 -0.272851,0.132291 -0.07855,0.103353 -0.115755,0.264584 -0.115755,0.483692 0,0.405143 0.132291,0.615983 0.388606,0.615983 0.252181,0 0.388607,-0.21084 0.388607,-0.603581 0,-0.23151 -0.03721,-0.388607 -0.115755,-0.496094 -0.06201,-0.08268 -0.16123,-0.132291 -0.272852,-0.132291 z m 0,0.132291 c 0.161231,0 0.239779,0.161231 0.239779,0.483692 0,0.334863 -0.07855,0.496094 -0.243913,0.496094 -0.157096,0 -0.235644,-0.165365 -0.235644,-0.49196 0,-0.326595 0.07855,-0.487826 0.239778,-0.487826 z m 0,0"
       style="fill:#000000;fill-opacity:1;fill-rule:nonzero;stroke:none;stroke-width:0.325187"
       aria-label=" 40" />
    <path
       id="path2125"
       d="m 55.009392,20.769205 h 0.758011"
       style="fill:none;stroke:#000000;stroke-width:0.120319;stroke-linecap:butt;stroke-linejoin:miter;stroke-miterlimit:3.8;stroke-dasharray:none;stroke-opacity:1" />
    <path
       id="path2126"
       d="m 131.35187,20.769205 h -0.75801"
       style="fill:none;stroke:#000000;stroke-width:0.120319;stroke-linecap:butt;stroke-linejoin:miter;stroke-miterlimit:3.8;stroke-dasharray:none;stroke-opacity:1" />
    <path
       id="path2127"
       d="m 52.67587,21.037291 v 0.285254 h 0.148828 v -0.285254 h 0.177767 v -0.132292 h -0.177767 v -0.777213 h -0.111621 l -0.541569,0.752409 v 0.157096 z m 0,-0.132292 H 52.3038 l 0.37207,-0.525032 z m 1.188558,-0.777213 h -0.615983 l -0.09095,0.65319 h 0.136426 c 0.07028,-0.08268 0.128158,-0.111621 0.219108,-0.111621 0.161231,0 0.260449,0.107487 0.260449,0.285254 0,0.169498 -0.09922,0.276985 -0.260449,0.276985 -0.128157,0 -0.206706,-0.06615 -0.243913,-0.202571 h -0.148828 c 0.02067,0.09922 0.03721,0.144694 0.07441,0.190169 0.06615,0.09095 0.186035,0.14056 0.322461,0.14056 0.239779,0 0.409278,-0.173633 0.409278,-0.425814 0,-0.235645 -0.157097,-0.396875 -0.384473,-0.396875 -0.08682,0 -0.152962,0.02067 -0.223242,0.07028 l 0.04961,-0.330729 h 0.496094 z m 0,0"
       style="fill:#000000;fill-opacity:1;fill-rule:nonzero;stroke:none;stroke-width:0.325187"
       aria-label=" 45" />
    <path
       id="path2128"
       d="m 55.009392,15.451101 h 0.758011"
       style="fill:none;stroke:#000000;stroke-width:0.120319;stroke-linecap:butt;stroke-linejoin:miter;stroke-miterlimit:3.8;stroke-dasharray:none;stroke-opacity:1" />
    <path
       id="path2129"
       d="m 131.35187,15.451101 h -0.75801"
       style="fill:none;stroke:#000000;stroke-width:0.120319;stroke-linecap:butt;stroke-linejoin:miter;stroke-miterlimit:3.8;stroke-dasharray:none;stroke-opacity:1" />
    <path
       id="path2130"
       d="m 52.928051,14.810282 h -0.615983 l -0.09095,0.65319 h 0.136426 c 0.07028,-0.08268 0.128158,-0.111621 0.219108,-0.111621 0.161231,0 0.260449,0.107487 0.260449,0.285254 0,0.169499 -0.09922,0.276986 -0.260449,0.276986 -0.128157,0 -0.206706,-0.06615 -0.243913,-0.202572 H 52.18391 c 0.02067,0.09922 0.03721,0.144694 0.07441,0.190169 0.06615,0.09095 0.186035,0.14056 0.322461,0.14056 0.239779,0 0.409278,-0.173633 0.409278,-0.425814 0,-0.235644 -0.157097,-0.396875 -0.384473,-0.396875 -0.08682,0 -0.152962,0.02067 -0.223242,0.07028 l 0.04961,-0.330729 h 0.496094 z m 0.597379,0 c -0.111621,0 -0.210839,0.04961 -0.272851,0.132292 -0.07855,0.103353 -0.115755,0.264583 -0.115755,0.483691 0,0.405143 0.132291,0.615983 0.388606,0.615983 0.252181,0 0.388607,-0.21084 0.388607,-0.60358 0,-0.231511 -0.03721,-0.388607 -0.115755,-0.496094 -0.06201,-0.08268 -0.16123,-0.132292 -0.272852,-0.132292 z m 0,0.132292 c 0.161231,0 0.239779,0.16123 0.239779,0.483691 0,0.334863 -0.07855,0.496094 -0.243913,0.496094 -0.157096,0 -0.235644,-0.165365 -0.235644,-0.49196 0,-0.326595 0.07855,-0.487825 0.239778,-0.487825 z m 0,0"
       style="fill:#000000;fill-opacity:1;fill-rule:nonzero;stroke:none;stroke-width:0.325187"
       aria-label=" 50" />
    <path
       id="path2131"
       d="M 55.009392,68.668249 V 67.910238"
       style="fill:none;stroke:#000000;stroke-width:0.120319;stroke-linecap:butt;stroke-linejoin:miter;stroke-miterlimit:3.8;stroke-dasharray:none;stroke-opacity:1" />
    <path
       id="path2132"
       d="m 55.009392,15.451101 v 0.75801"
       style="fill:none;stroke:#000000;stroke-width:0.120319;stroke-linecap:butt;stroke-linejoin:miter;stroke-miterlimit:3.8;stroke-dasharray:none;stroke-opacity:1" />
    <path
       id="path2133"
       d="m 55.091212,70.620828 v 0.285253 h 0.148828 v -0.285253 h 0.177767 V 70.488536 H 55.24004 v -0.777214 h -0.111621 l -0.541569,0.752409 v 0.157097 z m 0,-0.132292 h -0.372071 l 0.372071,-0.525033 z m 0,0"
       style="fill:#000000;fill-opacity:1;fill-rule:nonzero;stroke:none;stroke-width:0.325187"
       aria-label="4" />
    <path
       id="path2134"
       d="M 65.910304,68.668249 V 67.910238"
       style="fill:none;stroke:#000000;stroke-width:0.120319;stroke-linecap:butt;stroke-linejoin:miter;stroke-miterlimit:3.8;stroke-dasharray:none;stroke-opacity:1" />
    <path
       id="path2135"
       d="m 65.910304,15.451101 v 0.75801"
       style="fill:none;stroke:#000000;stroke-width:0.120319;stroke-linecap:butt;stroke-linejoin:miter;stroke-miterlimit:3.8;stroke-dasharray:none;stroke-opacity:1" />
    <path
       id="path2136"
       d="m 66.099326,70.277696 c 0.124023,-0.07441 0.165364,-0.132292 0.165364,-0.248047 0,-0.186035 -0.148828,-0.318327 -0.359668,-0.318327 -0.21084,0 -0.359668,0.132292 -0.359668,0.318327 0,0.111621 0.04134,0.173633 0.161231,0.248047 -0.136426,0.06615 -0.202572,0.165365 -0.202572,0.297656 0,0.219108 0.165365,0.367936 0.401009,0.367936 0.235645,0 0.401009,-0.148828 0.401009,-0.367936 0,-0.132291 -0.06615,-0.23151 -0.206705,-0.297656 z m -0.194304,-0.434082 c 0.124024,0 0.206706,0.07441 0.206706,0.190169 0,0.111621 -0.08268,0.186035 -0.206706,0.186035 -0.124023,0 -0.206706,-0.07441 -0.206706,-0.186035 0,-0.115755 0.08268,-0.190169 0.206706,-0.190169 z m 0,0.500228 c 0.148828,0 0.248047,0.09508 0.248047,0.235644 0,0.14056 -0.09922,0.235645 -0.252181,0.235645 -0.144694,0 -0.243913,-0.09922 -0.243913,-0.235645 0,-0.14056 0.09922,-0.235644 0.248047,-0.235644 z m 0,0"
       style="fill:#000000;fill-opacity:1;fill-rule:nonzero;stroke:none;stroke-width:0.325187"
       aria-label="8" />
    <path
       id="path2137"
       d="M 76.823229,68.668249 V 67.910238"
       style="fill:none;stroke:#000000;stroke-width:0.120319;stroke-linecap:butt;stroke-linejoin:miter;stroke-miterlimit:3.8;stroke-dasharray:none;stroke-opacity:1" />
    <path
       id="path2138"
       d="m 76.823229,15.451101 v 0.75801"
       style="fill:none;stroke:#000000;stroke-width:0.120319;stroke-linecap:butt;stroke-linejoin:miter;stroke-miterlimit:3.8;stroke-dasharray:none;stroke-opacity:1" />
    <path
       id="path2139"
       d="m 76.320939,70.054454 v 0.851627 h 0.148828 v -1.194759 h -0.09508 c -0.05374,0.186035 -0.08682,0.21084 -0.314193,0.239779 v 0.103353 z m 1.341521,-0.02894 c -0.02894,-0.194303 -0.157097,-0.314193 -0.338998,-0.314193 -0.132292,0 -0.248047,0.06615 -0.318327,0.173633 -0.07441,0.115755 -0.107487,0.260449 -0.107487,0.479557 0,0.198438 0.02894,0.326595 0.09922,0.434082 0.06201,0.09509 0.169499,0.144694 0.297656,0.144694 0.227377,0 0.392741,-0.165364 0.392741,-0.401009 0,-0.223242 -0.152962,-0.376204 -0.367936,-0.376204 -0.115755,0 -0.206706,0.04547 -0.272852,0.132292 0.0041,-0.293523 0.09508,-0.454753 0.264584,-0.454753 0.107487,0 0.177767,0.06615 0.202571,0.181901 z m -0.359668,0.268717 c 0.144694,0 0.23151,0.09922 0.23151,0.26045 0,0.148828 -0.09922,0.260449 -0.235645,0.260449 -0.140559,0 -0.243912,-0.115755 -0.243912,-0.268718 0,-0.148828 0.103353,-0.252181 0.248047,-0.252181 z m 0,0"
       style="fill:#000000;fill-opacity:1;fill-rule:nonzero;stroke:none;stroke-width:0.325187"
       aria-label="16" />
    <path
       id="path2140"
       d="M 87.724142,68.668249 V 67.910238"
       style="fill:none;stroke:#000000;stroke-width:0.120319;stroke-linecap:butt;stroke-linejoin:miter;stroke-miterlimit:3.8;stroke-dasharray:none;stroke-opacity:1" />
    <path
       id="path2141"
       d="m 87.724142,15.451101 v 0.75801"
       style="fill:none;stroke:#000000;stroke-width:0.120319;stroke-linecap:butt;stroke-linejoin:miter;stroke-miterlimit:3.8;stroke-dasharray:none;stroke-opacity:1" />
    <path
       id="path2142"
       d="m 87.159555,70.360378 h 0.01654 l 0.06201,-0.0041 c 0.165364,0 0.248047,0.07441 0.248047,0.219108 0,0.148828 -0.09095,0.239779 -0.248047,0.239779 -0.161231,0 -0.239779,-0.08268 -0.248047,-0.256315 H 86.84123 c 0.0083,0.09508 0.0248,0.157096 0.05374,0.21084 0.05788,0.115755 0.177767,0.173632 0.338998,0.173632 0.248046,0 0.405143,-0.144694 0.405143,-0.37207 0,-0.148828 -0.05788,-0.235644 -0.202572,-0.28112 0.111621,-0.04547 0.165365,-0.128157 0.165365,-0.248047 0,-0.206705 -0.136426,-0.330729 -0.363802,-0.330729 -0.239779,0 -0.367937,0.132292 -0.372071,0.388607 h 0.148828 c 0,-0.07441 0.0083,-0.115755 0.02481,-0.152962 0.03721,-0.06201 0.111621,-0.103353 0.202572,-0.103353 0.132291,0 0.21084,0.07441 0.21084,0.202572 0,0.08268 -0.03307,0.136425 -0.09508,0.16123 -0.04134,0.01654 -0.09508,0.02481 -0.198438,0.02481 z m 1.415934,0.401009 h -0.628386 c 0.01654,-0.09922 0.07028,-0.16123 0.214974,-0.248046 l 0.169499,-0.09095 c 0.165365,-0.09095 0.252181,-0.21084 0.252181,-0.359668 0,-0.09922 -0.04134,-0.190169 -0.111621,-0.256315 -0.07028,-0.06201 -0.157096,-0.09508 -0.268718,-0.09508 -0.152962,0 -0.264583,0.05374 -0.330729,0.157097 -0.04134,0.06201 -0.06201,0.136425 -0.06615,0.260449 h 0.148829 c 0.0041,-0.08268 0.01654,-0.132292 0.03721,-0.169499 0.03721,-0.07441 0.115755,-0.115755 0.202571,-0.115755 0.136426,0 0.235645,0.09508 0.235645,0.223242 0,0.09508 -0.05374,0.173633 -0.161231,0.235645 l -0.152962,0.08682 c -0.248047,0.14056 -0.322461,0.256315 -0.334863,0.516764 h 0.79375 z m 0,0"
       style="fill:#000000;fill-opacity:1;fill-rule:nonzero;stroke:none;stroke-width:0.325187"
       aria-label="32" />
    <path
       id="path2143"
       d="M 98.637093,68.668249 V 67.910238"
       style="fill:none;stroke:#000000;stroke-width:0.120319;stroke-linecap:butt;stroke-linejoin:miter;stroke-miterlimit:3.8;stroke-dasharray:none;stroke-opacity:1" />
    <path
       id="path2144"
       d="m 98.637093,15.451101 v 0.75801"
       style="fill:none;stroke:#000000;stroke-width:0.120319;stroke-linecap:butt;stroke-linejoin:miter;stroke-miterlimit:3.8;stroke-dasharray:none;stroke-opacity:1" />
    <path
       id="path2145"
       d="m 98.539719,70.025515 c -0.02894,-0.194303 -0.157096,-0.314193 -0.338998,-0.314193 -0.132291,0 -0.248046,0.06615 -0.318326,0.173633 -0.07441,0.115755 -0.107487,0.260449 -0.107487,0.479557 0,0.198438 0.02894,0.326595 0.09922,0.434082 0.06201,0.09509 0.169499,0.144694 0.297657,0.144694 0.227376,0 0.392741,-0.165364 0.392741,-0.401009 0,-0.223242 -0.152963,-0.376204 -0.367937,-0.376204 -0.115755,0 -0.206705,0.04547 -0.272851,0.132292 0.0041,-0.293523 0.09508,-0.454753 0.264583,-0.454753 0.107487,0 0.177767,0.06615 0.202572,0.181901 z m -0.359668,0.268717 c 0.144694,0 0.23151,0.09922 0.23151,0.26045 0,0.148828 -0.09922,0.260449 -0.235644,0.260449 -0.14056,0 -0.243913,-0.115755 -0.243913,-0.268718 0,-0.148828 0.103353,-0.252181 0.248047,-0.252181 z m 1.006657,0.326596 v 0.285253 h 0.148828 v -0.285253 h 0.177767 v -0.132292 h -0.177767 v -0.777214 h -0.111621 l -0.541569,0.752409 v 0.157097 z m 0,-0.132292 h -0.372071 l 0.372071,-0.525033 z m 0,0"
       style="fill:#000000;fill-opacity:1;fill-rule:nonzero;stroke:none;stroke-width:0.325187"
       aria-label="64" />
    <path
       id="path2146"
       d="M 109.538,68.668249 V 67.910238"
       style="fill:none;stroke:#000000;stroke-width:0.120319;stroke-linecap:butt;stroke-linejoin:miter;stroke-miterlimit:3.8;stroke-dasharray:none;stroke-opacity:1" />
    <path
       id="path2147"
       d="m 109.538,15.451101 v 0.75801"
       style="fill:none;stroke:#000000;stroke-width:0.120319;stroke-linecap:butt;stroke-linejoin:miter;stroke-miterlimit:3.8;stroke-dasharray:none;stroke-opacity:1" />
    <path
       id="path2148"
       d="m 108.56703,70.054454 v 0.851627 h 0.14882 v -1.194759 h -0.0951 c -0.0537,0.186035 -0.0868,0.21084 -0.31419,0.239779 v 0.103353 z m 1.35392,0.706933 h -0.62839 c 0.0165,-0.09922 0.0703,-0.16123 0.21498,-0.248046 l 0.1695,-0.09095 c 0.16536,-0.09095 0.25218,-0.21084 0.25218,-0.359668 0,-0.09922 -0.0413,-0.190169 -0.11162,-0.256315 -0.0703,-0.06201 -0.1571,-0.09508 -0.26872,-0.09508 -0.15296,0 -0.26458,0.05374 -0.33073,0.157097 -0.0413,0.06201 -0.062,0.136425 -0.0661,0.260449 h 0.14883 c 0.004,-0.08268 0.0165,-0.132292 0.0372,-0.169499 0.0372,-0.07441 0.11575,-0.115755 0.20257,-0.115755 0.13643,0 0.23564,0.09508 0.23564,0.223242 0,0.09508 -0.0537,0.173633 -0.16123,0.235645 l -0.15296,0.08682 c -0.24804,0.14056 -0.32246,0.256315 -0.33486,0.516764 h 0.79375 z m 0.74311,-0.483691 c 0.12402,-0.07441 0.16536,-0.132292 0.16536,-0.248047 0,-0.186035 -0.14883,-0.318327 -0.35967,-0.318327 -0.21084,0 -0.35967,0.132292 -0.35967,0.318327 0,0.111621 0.0414,0.173633 0.16123,0.248047 -0.13642,0.06615 -0.20257,0.165365 -0.20257,0.297656 0,0.219108 0.16537,0.367936 0.40101,0.367936 0.23565,0 0.40101,-0.148828 0.40101,-0.367936 0,-0.132291 -0.0661,-0.23151 -0.2067,-0.297656 z m -0.19431,-0.434082 c 0.12403,0 0.20671,0.07441 0.20671,0.190169 0,0.111621 -0.0827,0.186035 -0.20671,0.186035 -0.12402,0 -0.2067,-0.07441 -0.2067,-0.186035 0,-0.115755 0.0827,-0.190169 0.2067,-0.190169 z m 0,0.500228 c 0.14883,0 0.24805,0.09508 0.24805,0.235644 0,0.14056 -0.0992,0.235645 -0.25218,0.235645 -0.1447,0 -0.24391,-0.09922 -0.24391,-0.235645 0,-0.14056 0.0992,-0.235644 0.24804,-0.235644 z m 0,0"
       style="fill:#000000;fill-opacity:1;fill-rule:nonzero;stroke:none;stroke-width:0.325187"
       aria-label="128" />
    <path
       id="path2149"
       d="M 120.45095,68.668249 V 67.910238"
       style="fill:none;stroke:#000000;stroke-width:0.120319;stroke-linecap:butt;stroke-linejoin:miter;stroke-miterlimit:3.8;stroke-dasharray:none;stroke-opacity:1" />
    <path
       id="path2150"
       d="m 120.45095,15.451101 v 0.75801"
       style="fill:none;stroke:#000000;stroke-width:0.120319;stroke-linecap:butt;stroke-linejoin:miter;stroke-miterlimit:3.8;stroke-dasharray:none;stroke-opacity:1" />
    <path
       id="path2151"
       d="m 119.89761,70.761387 h -0.62839 c 0.0165,-0.09922 0.0703,-0.16123 0.21497,-0.248046 l 0.1695,-0.09095 c 0.16537,-0.09095 0.25218,-0.21084 0.25218,-0.359668 0,-0.09922 -0.0413,-0.190169 -0.11162,-0.256315 -0.0703,-0.06201 -0.15709,-0.09508 -0.26871,-0.09508 -0.15297,0 -0.26459,0.05374 -0.33073,0.157097 -0.0413,0.06201 -0.062,0.136425 -0.0662,0.260449 h 0.14883 c 0.004,-0.08268 0.0165,-0.132292 0.0372,-0.169499 0.0372,-0.07441 0.11575,-0.115755 0.20257,-0.115755 0.13642,0 0.23564,0.09508 0.23564,0.223242 0,0.09508 -0.0537,0.173633 -0.16123,0.235645 l -0.15296,0.08682 c -0.24805,0.14056 -0.32246,0.256315 -0.33486,0.516764 h 0.79375 z m 0.88676,-1.050065 h -0.61598 l -0.091,0.65319 h 0.13643 c 0.0703,-0.08268 0.12815,-0.111621 0.2191,-0.111621 0.16123,0 0.26045,0.107487 0.26045,0.285254 0,0.169499 -0.0992,0.276986 -0.26045,0.276986 -0.12815,0 -0.2067,-0.06615 -0.24391,-0.202572 h -0.14883 c 0.0207,0.09922 0.0372,0.144694 0.0744,0.19017 0.0661,0.09095 0.18603,0.140559 0.32246,0.140559 0.23978,0 0.40928,-0.173632 0.40928,-0.425813 0,-0.235645 -0.1571,-0.396875 -0.38448,-0.396875 -0.0868,0 -0.15296,0.02067 -0.22324,0.07028 l 0.0496,-0.33073 h 0.49609 z m 0.97462,0.314193 c -0.0289,-0.194303 -0.1571,-0.314193 -0.339,-0.314193 -0.13229,0 -0.24804,0.06615 -0.31832,0.173633 -0.0744,0.115755 -0.10749,0.260449 -0.10749,0.479557 0,0.198438 0.0289,0.326595 0.0992,0.434082 0.062,0.09509 0.1695,0.144694 0.29766,0.144694 0.22737,0 0.39274,-0.165364 0.39274,-0.401009 0,-0.223242 -0.15297,-0.376204 -0.36794,-0.376204 -0.11576,0 -0.20671,0.04547 -0.27285,0.132292 0.004,-0.293523 0.0951,-0.454753 0.26458,-0.454753 0.10749,0 0.17777,0.06615 0.20257,0.181901 z m -0.35967,0.268717 c 0.1447,0 0.23151,0.09922 0.23151,0.26045 0,0.148828 -0.0992,0.260449 -0.23564,0.260449 -0.14056,0 -0.24391,-0.115755 -0.24391,-0.268718 0,-0.148828 0.10335,-0.252181 0.24804,-0.252181 z m 0,0"
       style="fill:#000000;fill-opacity:1;fill-rule:nonzero;stroke:none;stroke-width:0.325187"
       aria-label="256" />
    <path
       id="path2152"
       d="M 131.35187,68.668249 V 67.910238"
       style="fill:none;stroke:#000000;stroke-width:0.120319;stroke-linecap:butt;stroke-linejoin:miter;stroke-miterlimit:3.8;stroke-dasharray:none;stroke-opacity:1" />
    <path
       id="path2153"
       d="m 131.35187,15.451101 v 0.75801"
       style="fill:none;stroke:#000000;stroke-width:0.120319;stroke-linecap:butt;stroke-linejoin:miter;stroke-miterlimit:3.8;stroke-dasharray:none;stroke-opacity:1" />
    <path
       id="path2154"
       d="m 130.74862,69.711322 h -0.61598 l -0.091,0.65319 h 0.13642 c 0.0703,-0.08268 0.12816,-0.111621 0.21911,-0.111621 0.16123,0 0.26045,0.107487 0.26045,0.285254 0,0.169499 -0.0992,0.276986 -0.26045,0.276986 -0.12816,0 -0.2067,-0.06615 -0.24391,-0.202572 h -0.14883 c 0.0207,0.09922 0.0372,0.144694 0.0744,0.19017 0.0661,0.09095 0.18604,0.140559 0.32247,0.140559 0.23977,0 0.40927,-0.173632 0.40927,-0.425813 0,-0.235645 -0.15709,-0.396875 -0.38447,-0.396875 -0.0868,0 -0.15296,0.02067 -0.22324,0.07028 l 0.0496,-0.33073 h 0.49609 z m 0.56947,0.343132 v 0.851627 h 0.14883 v -1.194759 h -0.0951 c -0.0537,0.186035 -0.0868,0.21084 -0.31419,0.239779 v 0.103353 z m 1.35393,0.706933 h -0.62839 c 0.0165,-0.09922 0.0703,-0.16123 0.21498,-0.248046 l 0.16949,-0.09095 c 0.16537,-0.09095 0.25219,-0.21084 0.25219,-0.359668 0,-0.09922 -0.0414,-0.190169 -0.11163,-0.256315 -0.0703,-0.06201 -0.15709,-0.09508 -0.26871,-0.09508 -0.15297,0 -0.26459,0.05374 -0.33073,0.157097 -0.0413,0.06201 -0.062,0.136425 -0.0661,0.260449 h 0.14883 c 0.004,-0.08268 0.0165,-0.132292 0.0372,-0.169499 0.0372,-0.07441 0.11575,-0.115755 0.20257,-0.115755 0.13642,0 0.23564,0.09508 0.23564,0.223242 0,0.09508 -0.0537,0.173633 -0.16123,0.235645 l -0.15296,0.08682 c -0.24805,0.14056 -0.32246,0.256315 -0.33486,0.516764 h 0.79375 z m 0,0"
       style="fill:#000000;fill-opacity:1;fill-rule:nonzero;stroke:none;stroke-width:0.325187"
       aria-label="512" />
    <path
       id="path2155"
       d="M 131.35184,15.451107 H 55.009363 V 68.668249 H 131.35184 Z M 52.605043,14.55225 Z"
       style="fill:none;stroke:#000000;stroke-width:0.124002;stroke-linecap:butt;stroke-linejoin:miter;stroke-miterlimit:3.8;stroke-dasharray:none;stroke-opacity:1" />
    <path
       id="path2156"
       d="m 49.018196,43.539277 v 0.51263 h 0.14056 v -0.37207 h 0.03307 c 0.219108,0 0.376204,0.16123 0.376204,0.384473 0,0.124023 -0.04548,0.235644 -0.124024,0.310058 -0.08682,0.07855 -0.235644,0.128158 -0.384472,0.128158 -0.30179,0 -0.500228,-0.169499 -0.500228,-0.429948 0,-0.186035 0.09509,-0.322461 0.252181,-0.355534 v -0.157096 c -0.248047,0.04134 -0.392741,0.23151 -0.392741,0.51263 0,0.148828 0.04134,0.268717 0.119889,0.363802 0.115756,0.144694 0.305925,0.223242 0.529167,0.223242 0.376204,0 0.636654,-0.23151 0.636654,-0.56224 0,-0.165364 -0.06201,-0.297656 -0.194304,-0.417545 l 0.165365,-0.04134 v -0.09922 z M 48.786685,42.98944 v 0.144694 h -0.14056 c -0.05788,0 -0.08682,-0.03307 -0.08682,-0.09509 0,-0.0124 0,-0.01654 0,-0.04961 H 48.44355 c -0.0083,0.03307 -0.0083,0.04961 -0.0083,0.07855 0,0.128158 0.07441,0.206706 0.202571,0.206706 h 0.148828 v 0.119889 H 48.89827 V 43.27469 h 0.768946 v -0.14056 h -0.76891 V 42.98944 Z M 48.43942,42.699018 v 0.14056 h 1.227832 v -0.14056 z m 0.322461,-0.576709 c 0,0.248047 0.173632,0.396875 0.471289,0.396875 0.297656,0 0.471289,-0.144694 0.471289,-0.396875 0,-0.248047 -0.173633,-0.401009 -0.463021,-0.401009 -0.305925,0 -0.479557,0.148828 -0.479557,0.401009 z m 0.128157,0 c 0,-0.157096 0.128158,-0.252181 0.347266,-0.252181 0.206705,0 0.338997,0.09508 0.338997,0.252181 0,0.157097 -0.128157,0.252181 -0.343131,0.252181 -0.21084,0 -0.343132,-0.09508 -0.343132,-0.252181 z m 1.14515,-0.56844 v -0.14056 h -0.458887 c 0.09095,-0.07441 0.128158,-0.157096 0.128158,-0.272852 0,-0.227376 -0.181901,-0.376204 -0.463021,-0.376204 -0.297656,0 -0.479557,0.144694 -0.479557,0.380338 0,0.11989 0.05374,0.214974 0.157096,0.28112 h -0.132292 v 0.128158 z m -1.14515,-0.388607 c 0,-0.152962 0.136426,-0.252181 0.347266,-0.252181 0.202571,0 0.338997,0.09922 0.338997,0.252181 0,0.148828 -0.136426,0.248047 -0.343131,0.248047 -0.206706,0 -0.343132,-0.09922 -0.343132,-0.248047 z m -0.450618,-0.842326 1.260905,0.396875 v -0.09095 l -1.260905,-0.40101 z m 0.591178,-0.819588 c -0.173633,0 -0.268717,0.115755 -0.268717,0.318327 0,0.206706 0.103352,0.338997 0.268717,0.338997 0.136426,0 0.202572,-0.07028 0.252181,-0.28112 l 0.03307,-0.128157 c 0.02481,-0.09922 0.05788,-0.136426 0.124023,-0.136426 0.08268,0 0.136426,0.08268 0.136426,0.202572 0,0.07855 -0.02067,0.140559 -0.05788,0.177766 -0.02481,0.02067 -0.04961,0.02894 -0.111622,0.03721 v 0.148828 c 0.202572,-0.0041 0.297657,-0.11989 0.297657,-0.3514 0,-0.223242 -0.107487,-0.363802 -0.276986,-0.363802 -0.132292,0 -0.202572,0.07441 -0.248047,0.248047 l -0.02894,0.136425 c -0.02894,0.115756 -0.06614,0.161231 -0.128157,0.161231 -0.07855,0 -0.132292,-0.07028 -0.132292,-0.186035 0,-0.111621 0.04961,-0.173633 0.14056,-0.173633 z m 0,0"
       style="fill:#000000;fill-opacity:1;fill-rule:nonzero;stroke:none;stroke-width:0.325187"
       aria-label="Gflop/s" />
    <path
       id="path2157"
       d="m 89.935592,73.433058 0.347266,-1.029394 v 1.029394 h 0.148828 v -1.227832 h -0.219108 l -0.355534,1.070736 -0.363802,-1.070736 h -0.214974 v 1.227832 h 0.144694 v -1.029394 l 0.3514,1.029394 z m 1.519287,-0.08268 c -0.01654,0.0041 -0.0248,0.0041 -0.03307,0.0041 -0.04548,0 -0.07441,-0.02481 -0.07441,-0.07028 v -0.516764 c 0,-0.157096 -0.115755,-0.239779 -0.330729,-0.239779 -0.128157,0 -0.235644,0.03721 -0.293522,0.09922 -0.04134,0.04547 -0.05788,0.09922 -0.06201,0.186035 h 0.144694 c 0.0083,-0.107487 0.07442,-0.157096 0.206706,-0.157096 0.124024,0 0.194304,0.04547 0.194304,0.132291 v 0.03721 c 0,0.05788 -0.03307,0.08268 -0.144694,0.09508 -0.198438,0.02481 -0.227377,0.03307 -0.28112,0.05374 -0.103353,0.04134 -0.157097,0.124023 -0.157097,0.235644 0,0.161231 0.111621,0.260449 0.289388,0.260449 0.111622,0 0.202572,-0.03721 0.301791,-0.128157 0.0083,0.09095 0.05374,0.128157 0.144694,0.128157 0.0248,0 0.04961,0 0.09508,-0.0124 z m -0.248046,-0.194303 c 0,0.04547 -0.0124,0.07441 -0.05374,0.115755 -0.05788,0.04961 -0.128157,0.07855 -0.21084,0.07855 -0.107487,0 -0.169498,-0.05374 -0.169498,-0.144694 0,-0.09095 0.06201,-0.136426 0.210839,-0.16123 0.148828,-0.01654 0.177767,-0.02481 0.223243,-0.04548 z m 0.709,-0.603581 h -0.144694 v -0.243913 h -0.136426 v 0.243913 h -0.119889 v 0.111621 h 0.119889 v 0.669727 c 0,0.08682 0.05788,0.136425 0.169499,0.136425 0.03307,0 0.06615,0 0.111621,-0.0083 v -0.119889 c -0.01654,0.0041 -0.03721,0.0083 -0.06615,0.0083 -0.06201,0 -0.07855,-0.01654 -0.07855,-0.07855 v -0.607715 h 0.144694 z m 0.15813,0 v 0.880566 h 0.14056 v -0.458886 c 0,-0.124024 0.03307,-0.206706 0.09922,-0.256315 0.04547,-0.03307 0.08682,-0.04134 0.186035,-0.04548 v -0.14056 c -0.02481,-0.0041 -0.03721,-0.0041 -0.05374,-0.0041 -0.09095,0 -0.16123,0.05374 -0.243912,0.181901 v -0.157096 z m 0.697632,0 h -0.14056 v 0.880566 h 0.14056 z m 0,-0.347266 h -0.14056 v 0.177767 h 0.14056 z m 0.613916,0.77308 0.293522,-0.425814 h -0.157096 l -0.21084,0.318327 -0.21084,-0.318327 h -0.161231 l 0.293523,0.429948 -0.310059,0.450618 h 0.161231 l 0.223242,-0.338997 0.219108,0.338997 h 0.165364 z m 1.554427,-0.181901 c 0,-0.173633 -0.115755,-0.268718 -0.318327,-0.268718 -0.206706,0 -0.338997,0.103353 -0.338997,0.268718 0,0.136425 0.07028,0.202571 0.281119,0.252181 l 0.128158,0.03307 c 0.09922,0.0248 0.136426,0.05788 0.136426,0.124023 0,0.08268 -0.08268,0.136426 -0.202572,0.136426 -0.07855,0 -0.14056,-0.02067 -0.177767,-0.05788 -0.02067,-0.02481 -0.02894,-0.04961 -0.03721,-0.111621 H 94.26194 c 0.0041,0.202572 0.119889,0.297656 0.3514,0.297656 0.223242,0 0.363802,-0.107487 0.363802,-0.276985 0,-0.132292 -0.07441,-0.202572 -0.248047,-0.248047 l -0.136426,-0.02894 c -0.115755,-0.02894 -0.16123,-0.06615 -0.16123,-0.128157 0,-0.07855 0.07028,-0.132292 0.186035,-0.132292 0.111621,0 0.173633,0.04961 0.173633,0.14056 z m 0.358634,-0.243913 h -0.14056 v 0.880566 h 0.14056 z m 0,-0.347266 h -0.14056 v 0.177767 h 0.14056 z m 0.866097,0.347266 h -0.657324 v 0.119889 h 0.491959 l -0.525032,0.63252 v 0.128157 h 0.715202 v -0.124023 h -0.545703 l 0.520898,-0.63252 z m 0.962215,0.487825 c 0,-0.136425 -0.0124,-0.214974 -0.03721,-0.281119 -0.05788,-0.144694 -0.190169,-0.231511 -0.355534,-0.231511 -0.243912,0 -0.405143,0.186035 -0.405143,0.475423 0,0.289388 0.152962,0.467155 0.401009,0.467155 0.202572,0 0.343132,-0.111621 0.376205,-0.305924 h -0.14056 c -0.03721,0.115755 -0.115755,0.177767 -0.231511,0.177767 -0.08682,0 -0.165364,-0.04134 -0.21084,-0.115755 -0.03307,-0.04961 -0.04547,-0.09922 -0.04547,-0.186036 z m -0.644922,-0.115755 c 0.0083,-0.16123 0.107487,-0.268717 0.252181,-0.268717 0.136426,0 0.243913,0.115755 0.243913,0.260449 0,0 0,0.0041 -0.0041,0.0083 z m 0,0"
       style="fill:#000000;fill-opacity:1;fill-rule:nonzero;stroke:none;stroke-width:0.325187"
       aria-label="Matrix size" />
    <path
       id="path2158"
       d="m 59.466148,17.235972 0.124023,0.367937 h 0.177767 L 59.33799,16.376077 h -0.202572 l -0.438216,1.227832 h 0.165365 l 0.132292,-0.367937 z m -0.04548,-0.132291 h -0.388606 l 0.202571,-0.558106 z m 1.032495,0.500228 0.425814,-1.227832 h -0.169499 l -0.338997,1.037662 -0.359668,-1.037662 h -0.169499 l 0.442351,1.227832 z m 1.119312,-0.628386 0.413411,-0.599446 h -0.186035 l -0.314193,0.483691 -0.318326,-0.483691 h -0.19017 l 0.409278,0.599446 -0.434082,0.628386 h 0.190169 l 0.334863,-0.512631 0.334863,0.512631 h 0.194304 z M 63.20132,16.723342 V 16.8515 c -0.07028,-0.107487 -0.157096,-0.152962 -0.268718,-0.152962 -0.227376,0 -0.376204,0.194303 -0.376204,0.479557 0,0.144694 0.03721,0.264583 0.111621,0.347265 0.06615,0.07441 0.157096,0.115756 0.252181,0.115756 0.111621,0 0.186035,-0.04548 0.264583,-0.157097 v 0.04547 c 0,0.11989 -0.0124,0.19017 -0.04961,0.239779 -0.03721,0.05374 -0.107487,0.08268 -0.194303,0.08268 -0.06201,0 -0.11989,-0.01654 -0.161231,-0.04547 -0.02894,-0.02481 -0.04548,-0.04961 -0.05374,-0.103353 h -0.14056 c 0.0124,0.169499 0.144694,0.268718 0.3514,0.268718 0.132291,0 0.243912,-0.04134 0.30179,-0.115755 0.06615,-0.07855 0.09095,-0.19017 0.09095,-0.396875 V 16.72334 Z m -0.256315,0.103353 c 0.152962,0 0.239778,0.128158 0.239778,0.347266 0,0.210839 -0.09095,0.338997 -0.235644,0.338997 -0.152962,0 -0.248047,-0.128158 -0.248047,-0.343131 0,-0.21084 0.09508,-0.343132 0.243913,-0.343132 z m 1.363224,0.384473 c 0,-0.136426 -0.0124,-0.214974 -0.03721,-0.28112 -0.05788,-0.144694 -0.190169,-0.23151 -0.355534,-0.23151 -0.243913,0 -0.405143,0.186035 -0.405143,0.475423 0,0.289388 0.152962,0.467155 0.401009,0.467155 0.202572,0 0.343131,-0.111622 0.376204,-0.305925 h -0.14056 c -0.03721,0.115755 -0.115755,0.177767 -0.23151,0.177767 -0.08682,0 -0.165365,-0.04134 -0.21084,-0.115755 -0.03307,-0.04961 -0.04547,-0.09922 -0.04547,-0.186035 z m -0.644922,-0.115756 c 0.0083,-0.16123 0.107487,-0.268717 0.252181,-0.268717 0.136426,0 0.243913,0.115755 0.243913,0.260449 0,0 0,0.0041 -0.0041,0.0083 z m 0.833024,-0.37207 v 0.880567 h 0.144694 v -0.487826 c 0,-0.177767 0.09095,-0.297656 0.235645,-0.297656 0.111621,0 0.181901,0.07028 0.181901,0.173633 v 0.611849 h 0.140559 v -0.665593 c 0,-0.148828 -0.107487,-0.239778 -0.276985,-0.239778 -0.132292,0 -0.214974,0.04961 -0.293522,0.173632 v -0.148828 z m 1.684652,0.487826 c 0,-0.136426 -0.0124,-0.214974 -0.03721,-0.28112 -0.05788,-0.144694 -0.19017,-0.23151 -0.355534,-0.23151 -0.243913,0 -0.405143,0.186035 -0.405143,0.475423 0,0.289388 0.152962,0.467155 0.401009,0.467155 0.202571,0 0.343131,-0.111622 0.376204,-0.305925 h -0.14056 c -0.03721,0.115755 -0.115755,0.177767 -0.23151,0.177767 -0.08682,0 -0.165365,-0.04134 -0.21084,-0.115755 -0.03307,-0.04961 -0.04548,-0.09922 -0.04548,-0.186035 z m -0.644922,-0.115756 c 0.0083,-0.16123 0.107487,-0.268717 0.252181,-0.268717 0.136426,0 0.243913,0.115755 0.243913,0.260449 0,0 0,0.0041 -0.0041,0.0083 z m 0.833024,-0.37207 v 0.880567 h 0.14056 v -0.458887 c 0,-0.124024 0.03307,-0.206706 0.09922,-0.256315 0.04547,-0.03307 0.08682,-0.04134 0.186035,-0.04547 v -0.14056 c -0.02481,-0.0041 -0.03721,-0.0041 -0.05374,-0.0041 -0.09095,0 -0.16123,0.05374 -0.243912,0.181901 v -0.157097 z m 1.346688,0.797884 c -0.01654,0.0041 -0.02481,0.0041 -0.03307,0.0041 -0.04547,0 -0.07441,-0.0248 -0.07441,-0.07028 v -0.516764 c 0,-0.157096 -0.115755,-0.239778 -0.330729,-0.239778 -0.128158,0 -0.235645,0.03721 -0.293523,0.09922 -0.04134,0.04548 -0.05788,0.09922 -0.06201,0.186035 h 0.144694 c 0.0083,-0.107487 0.07441,-0.157096 0.206706,-0.157096 0.124023,0 0.194303,0.04547 0.194303,0.132292 v 0.03721 c 0,0.05788 -0.03307,0.08268 -0.144694,0.09508 -0.198438,0.02481 -0.227377,0.03307 -0.28112,0.05374 -0.103353,0.04134 -0.157096,0.124023 -0.157096,0.235644 0,0.161231 0.111621,0.26045 0.289388,0.26045 0.111621,0 0.202571,-0.03721 0.30179,-0.128158 0.0083,0.09095 0.05374,0.128158 0.144694,0.128158 0.02481,0 0.04961,0 0.09508,-0.0124 z m -0.248047,-0.194303 c 0,0.04547 -0.0124,0.07441 -0.05374,0.115755 -0.05788,0.04961 -0.128157,0.07855 -0.21084,0.07855 -0.107487,0 -0.169498,-0.05374 -0.169498,-0.144694 0,-0.09095 0.06201,-0.136425 0.21084,-0.16123 0.148828,-0.01654 0.177767,-0.02481 0.223242,-0.04547 z m 0.709001,-0.603581 h -0.144695 v -0.243913 h -0.136425 v 0.243913 h -0.11989 v 0.111621 h 0.11989 v 0.669727 c 0,0.08682 0.05788,0.136426 0.169498,0.136426 0.03307,0 0.06615,0 0.111622,-0.0083 v -0.119889 c -0.01654,0.0041 -0.03721,0.0083 -0.06615,0.0083 -0.06201,0 -0.07855,-0.01654 -0.07855,-0.07855 v -0.607715 h 0.144695 z m 0.906404,0.487826 c 0,-0.136426 -0.0124,-0.214974 -0.03721,-0.28112 -0.05788,-0.144694 -0.190169,-0.23151 -0.355534,-0.23151 -0.243913,0 -0.405143,0.186035 -0.405143,0.475423 0,0.289388 0.152962,0.467155 0.401009,0.467155 0.202572,0 0.343132,-0.111622 0.376204,-0.305925 h -0.140559 c -0.03721,0.115755 -0.115756,0.177767 -0.231511,0.177767 -0.08682,0 -0.165364,-0.04134 -0.21084,-0.115755 -0.03307,-0.04961 -0.04547,-0.09922 -0.04547,-0.186035 z m -0.644922,-0.115756 c 0.0083,-0.16123 0.107487,-0.268717 0.252181,-0.268717 0.136426,0 0.243913,0.115755 0.243913,0.260449 0,0 0,0.0041 -0.0041,0.0083 z m 1.548226,-0.719335 h -0.136426 v 0.458886 c -0.06201,-0.09095 -0.152962,-0.136425 -0.272851,-0.136425 -0.227377,0 -0.376205,0.181901 -0.376205,0.46302 0,0.297657 0.144694,0.479558 0.380339,0.479558 0.124023,0 0.206705,-0.04548 0.28112,-0.152963 v 0.115756 h 0.124023 z m -0.384473,0.450618 c 0.148828,0 0.248047,0.136426 0.248047,0.347266 0,0.202571 -0.09922,0.338997 -0.248047,0.338997 -0.152962,0 -0.256315,-0.136426 -0.256315,-0.343131 0,-0.206706 0.103353,-0.343132 0.256315,-0.343132 z m 1.752865,0.190169 c -0.0083,-0.08268 -0.02481,-0.14056 -0.06201,-0.190169 -0.05788,-0.08268 -0.165365,-0.128157 -0.289388,-0.128157 -0.235645,0 -0.388607,0.186035 -0.388607,0.479557 0,0.285254 0.148828,0.463021 0.388607,0.463021 0.21084,0 0.343132,-0.124024 0.359668,-0.338998 h -0.14056 c -0.0248,0.14056 -0.09508,0.21084 -0.214974,0.21084 -0.157096,0 -0.248047,-0.128158 -0.248047,-0.334863 0,-0.219108 0.09095,-0.3514 0.243913,-0.3514 0.119889,0 0.190169,0.07028 0.21084,0.190169 z m 0.507462,-0.318326 c -0.248046,0 -0.396875,0.173632 -0.396875,0.471289 0,0.297656 0.144694,0.471289 0.396875,0.471289 0.248047,0 0.401009,-0.173633 0.401009,-0.463021 0,-0.305925 -0.148828,-0.479557 -0.401009,-0.479557 z m 0,0.128157 c 0.157097,0 0.252181,0.128158 0.252181,0.347266 0,0.206705 -0.09508,0.338997 -0.252181,0.338997 -0.157096,0 -0.252181,-0.128158 -0.252181,-0.343131 0,-0.21084 0.09508,-0.343132 0.252181,-0.343132 z m 1.308448,-0.450618 h -0.136426 v 0.458886 c -0.06201,-0.09095 -0.152962,-0.136425 -0.272852,-0.136425 -0.227376,0 -0.376204,0.181901 -0.376204,0.46302 0,0.297657 0.144694,0.479558 0.380338,0.479558 0.124024,0 0.206706,-0.04548 0.28112,-0.152963 v 0.115756 h 0.124024 z m -0.384473,0.450618 c 0.148828,0 0.248047,0.136426 0.248047,0.347266 0,0.202571 -0.09922,0.338997 -0.248047,0.338997 -0.152962,0 -0.256315,-0.136426 -0.256315,-0.343131 0,-0.206706 0.103353,-0.343132 0.256315,-0.343132 z m 1.353922,0.384473 c 0,-0.136426 -0.0124,-0.214974 -0.03721,-0.28112 -0.05788,-0.144694 -0.190169,-0.23151 -0.355534,-0.23151 -0.243912,0 -0.405143,0.186035 -0.405143,0.475423 0,0.289388 0.152963,0.467155 0.401009,0.467155 0.202572,0 0.343132,-0.111622 0.376205,-0.305925 h -0.14056 c -0.03721,0.115755 -0.115755,0.177767 -0.231511,0.177767 -0.08682,0 -0.165364,-0.04134 -0.210839,-0.115755 -0.03307,-0.04961 -0.04548,-0.09922 -0.04548,-0.186035 z m -0.644921,-0.115756 c 0.0083,-0.16123 0.107487,-0.268717 0.25218,-0.268717 0.136426,0 0.243913,0.115755 0.243913,0.260449 0,0 0,0.0041 -0.0041,0.0083 z m 0,0"
       style="fill:#000000;fill-opacity:1;fill-rule:nonzero;stroke:none;stroke-width:0.325187"
       aria-label="AVX generated code" />
    <path
       id="path2159"
       d="m 75.223109,17.051153 h 4.800737"
       style="fill:none;stroke:#ff0000;stroke-width:0.150562;stroke-linecap:butt;stroke-linejoin:miter;stroke-miterlimit:3.8;stroke-dasharray:none;stroke-opacity:1" />
    <path
       id="path2160"
       d="m 55.009472,61.220343 10.900922,-8.518601 10.912953,-18.096011 10.900922,-7.44776 10.912954,-9.57741 10.900917,11.70706 10.91296,7.44776 10.90092,-5.31811"
       style="fill:none;stroke:#ff0000;stroke-width:0.150562;stroke-linecap:butt;stroke-linejoin:miter;stroke-miterlimit:3.8;stroke-dasharray:none;stroke-opacity:1" />
    <path
       id="path2161"
       d="M 55.009472,61.599181 V 60.841495"
       style="fill:none;stroke:#ff0000;stroke-width:0.150562;stroke-linecap:butt;stroke-linejoin:miter;stroke-miterlimit:3.8;stroke-dasharray:none;stroke-opacity:1" />
    <path
       id="path2162"
       d="m 54.630298,61.220343 h 0.758011"
       style="fill:none;stroke:#ff0000;stroke-width:0.150562;stroke-linecap:butt;stroke-linejoin:miter;stroke-miterlimit:3.8;stroke-dasharray:none;stroke-opacity:1" />
    <path
       id="path2163"
       d="M 65.910411,53.080907 V 52.322896"
       style="fill:none;stroke:#ff0000;stroke-width:0.150562;stroke-linecap:butt;stroke-linejoin:miter;stroke-miterlimit:3.8;stroke-dasharray:none;stroke-opacity:1" />
    <path
       id="path2164"
       d="m 65.531237,52.701741 h 0.758011"
       style="fill:none;stroke:#ff0000;stroke-width:0.150562;stroke-linecap:butt;stroke-linejoin:miter;stroke-miterlimit:3.8;stroke-dasharray:none;stroke-opacity:1" />
    <path
       id="path2165"
       d="M 76.823362,34.9849 V 34.226889"
       style="fill:none;stroke:#ff0000;stroke-width:0.150562;stroke-linecap:butt;stroke-linejoin:miter;stroke-miterlimit:3.8;stroke-dasharray:none;stroke-opacity:1" />
    <path
       id="path2166"
       d="m 76.444188,34.605731 h 0.758011"
       style="fill:none;stroke:#ff0000;stroke-width:0.150562;stroke-linecap:butt;stroke-linejoin:miter;stroke-miterlimit:3.8;stroke-dasharray:none;stroke-opacity:1" />
    <path
       id="path2167"
       d="M 87.724275,27.537138 V 26.779127"
       style="fill:none;stroke:#ff0000;stroke-width:0.150562;stroke-linecap:butt;stroke-linejoin:miter;stroke-miterlimit:3.8;stroke-dasharray:none;stroke-opacity:1" />
    <path
       id="path2168"
       d="m 87.3451,27.157972 h 0.758011"
       style="fill:none;stroke:#ff0000;stroke-width:0.150562;stroke-linecap:butt;stroke-linejoin:miter;stroke-miterlimit:3.8;stroke-dasharray:none;stroke-opacity:1" />
    <path
       id="path2169"
       d="M 98.637226,17.959725 V 17.201714"
       style="fill:none;stroke:#ff0000;stroke-width:0.150562;stroke-linecap:butt;stroke-linejoin:miter;stroke-miterlimit:3.8;stroke-dasharray:none;stroke-opacity:1" />
    <path
       id="path2170"
       d="m 98.258052,17.580553 h 0.758011"
       style="fill:none;stroke:#ff0000;stroke-width:0.150562;stroke-linecap:butt;stroke-linejoin:miter;stroke-miterlimit:3.8;stroke-dasharray:none;stroke-opacity:1" />
    <path
       id="path2171"
       d="M 109.53813,29.666785 V 28.908774"
       style="fill:none;stroke:#ff0000;stroke-width:0.150562;stroke-linecap:butt;stroke-linejoin:miter;stroke-miterlimit:3.8;stroke-dasharray:none;stroke-opacity:1" />
    <path
       id="path2172"
       d="m 109.15899,29.287619 h 0.75802"
       style="fill:none;stroke:#ff0000;stroke-width:0.150562;stroke-linecap:butt;stroke-linejoin:miter;stroke-miterlimit:3.8;stroke-dasharray:none;stroke-opacity:1" />
    <path
       id="path2173"
       d="M 120.45111,37.114547 V 36.356536"
       style="fill:none;stroke:#ff0000;stroke-width:0.150562;stroke-linecap:butt;stroke-linejoin:miter;stroke-miterlimit:3.8;stroke-dasharray:none;stroke-opacity:1" />
    <path
       id="path2174"
       d="m 120.07194,36.735378 h 0.75802"
       style="fill:none;stroke:#ff0000;stroke-width:0.150562;stroke-linecap:butt;stroke-linejoin:miter;stroke-miterlimit:3.8;stroke-dasharray:none;stroke-opacity:1" />
    <path
       id="path2175"
       d="M 131.35202,31.796438 V 31.038427"
       style="fill:none;stroke:#ff0000;stroke-width:0.150562;stroke-linecap:butt;stroke-linejoin:miter;stroke-miterlimit:3.8;stroke-dasharray:none;stroke-opacity:1" />
    <path
       id="path2176"
       d="m 130.97285,31.417269 h 0.75802"
       style="fill:none;stroke:#ff0000;stroke-width:0.150562;stroke-linecap:butt;stroke-linejoin:miter;stroke-miterlimit:3.8;stroke-dasharray:none;stroke-opacity:1" />
    <path
       id="path2177"
       d="M 77.617456,17.43032 V 16.672309"
       style="fill:none;stroke:#ff0000;stroke-width:0.150562;stroke-linecap:butt;stroke-linejoin:miter;stroke-miterlimit:3.8;stroke-dasharray:none;stroke-opacity:1" />
    <path
       id="path2178"
       d="m 77.238282,17.051153 h 0.758011"
       style="fill:none;stroke:#ff0000;stroke-width:0.150562;stroke-linecap:butt;stroke-linejoin:miter;stroke-miterlimit:3.8;stroke-dasharray:none;stroke-opacity:1" />
    <path
       id="path2179"
       d="m 62.744498,18.921659 0.124024,0.367936 h 0.177767 l -0.429948,-1.227832 h -0.202572 l -0.438216,1.227832 h 0.165365 l 0.132291,-0.367936 z m -0.04548,-0.132292 h -0.388607 l 0.202572,-0.558105 z m 1.032495,0.500228 0.425814,-1.227832 h -0.169499 l -0.338997,1.037663 -0.359668,-1.037663 h -0.169499 l 0.44235,1.227832 z m 1.119312,-0.628385 0.413411,-0.599447 h -0.186035 l -0.314193,0.483691 -0.318327,-0.483691 h -0.190169 l 0.409277,0.599447 -0.434082,0.628385 h 0.19017 l 0.334863,-0.51263 0.334863,0.51263 h 0.194304 z m 1.587499,-0.620118 c -0.351399,0 -0.591178,0.26045 -0.591178,0.644922 0,0.384473 0.239779,0.640788 0.595313,0.640788 0.148828,0 0.281119,-0.04547 0.380338,-0.128158 0.132292,-0.111621 0.21084,-0.30179 0.21084,-0.504362 0,-0.39274 -0.235645,-0.65319 -0.595313,-0.65319 z m 0,0.14056 c 0.268718,0 0.438217,0.202572 0.438217,0.51263 0,0.293523 -0.177767,0.496094 -0.434082,0.496094 -0.26045,0 -0.438216,-0.202571 -0.438216,-0.504362 0,-0.30179 0.177766,-0.504362 0.434081,-0.504362 z m 0.748275,1.475879 h 0.14056 v -0.458887 c 0.07441,0.09095 0.157097,0.128158 0.272851,0.128158 0.227377,0 0.376205,-0.181901 0.376205,-0.463021 0,-0.297656 -0.144694,-0.479557 -0.380339,-0.479557 -0.119889,0 -0.214973,0.05374 -0.281119,0.157096 v -0.132291 h -0.128158 z m 0.388607,-1.14515 c 0.152962,0 0.252181,0.136426 0.252181,0.347266 0,0.202572 -0.09922,0.338997 -0.252181,0.338997 -0.148828,0 -0.248047,-0.136425 -0.248047,-0.343131 0,-0.206706 0.09922,-0.343132 0.248047,-0.343132 z m 1.320849,0.384473 c 0,-0.136426 -0.0124,-0.214974 -0.03721,-0.28112 -0.05788,-0.144694 -0.190169,-0.23151 -0.355534,-0.23151 -0.243912,0 -0.405143,0.186035 -0.405143,0.475423 0,0.289388 0.152963,0.467155 0.401009,0.467155 0.202572,0 0.343132,-0.111621 0.376205,-0.305925 h -0.14056 c -0.03721,0.115756 -0.115755,0.177767 -0.231511,0.177767 -0.08682,0 -0.165364,-0.04134 -0.210839,-0.115755 -0.03307,-0.04961 -0.04548,-0.09922 -0.04548,-0.186035 z m -0.644921,-0.115755 c 0.0083,-0.161231 0.107487,-0.268718 0.25218,-0.268718 0.136426,0 0.243913,0.115756 0.243913,0.26045 0,0 0,0.0041 -0.0041,0.0083 z m 0.833023,-0.37207 v 0.880566 h 0.144695 v -0.487826 c 0,-0.177766 0.09095,-0.297656 0.235644,-0.297656 0.111621,0 0.181901,0.07028 0.181901,0.173633 v 0.611849 h 0.14056 v -0.665592 c 0,-0.148829 -0.107487,-0.239779 -0.276986,-0.239779 -0.132291,0 -0.214974,0.04961 -0.293522,0.173633 v -0.148828 z m 0.953948,0.880566 h 0.553971 c 0.115755,0 0.202571,-0.03307 0.268717,-0.103353 0.05788,-0.06201 0.09508,-0.148828 0.09508,-0.248047 0,-0.144694 -0.07028,-0.235644 -0.227377,-0.297656 0.111622,-0.04961 0.173633,-0.14056 0.173633,-0.264583 0,-0.09095 -0.03721,-0.169499 -0.09922,-0.227377 -0.06615,-0.05788 -0.148828,-0.08682 -0.264584,-0.08682 H 70.03811 Z m 0.157096,-0.698665 v -0.388607 h 0.30179 c 0.08682,0 0.136426,0.0124 0.177767,0.04134 0.04547,0.03307 0.07028,0.08682 0.07028,0.152962 0,0.06615 -0.02481,0.115755 -0.07028,0.152962 -0.04134,0.02894 -0.09095,0.04134 -0.177767,0.04134 z m 0,0.562239 v -0.425814 h 0.380338 c 0.07855,0 0.128158,0.02067 0.165365,0.06201 0.03721,0.03721 0.05788,0.09095 0.05788,0.152962 0,0.05788 -0.02067,0.111621 -0.05788,0.148828 -0.03721,0.04134 -0.08682,0.06201 -0.165365,0.06201 z m 1.123445,-1.091406 h -0.152962 v 1.227832 h 0.760677 v -0.136426 h -0.607715 z m 1.444873,0.859896 0.124024,0.367936 H 73.06531 L 72.635362,18.061763 H 72.43279 l -0.438216,1.227832 h 0.165365 l 0.132291,-0.367936 z m -0.04548,-0.132292 h -0.388607 l 0.202572,-0.558105 z m 1.375627,-0.367936 c -0.0041,-0.239779 -0.169499,-0.380339 -0.450619,-0.380339 -0.268717,0 -0.438216,0.14056 -0.438216,0.363802 0,0.148829 0.08268,0.243913 0.243913,0.285254 l 0.30179,0.07855 c 0.157096,0.04134 0.227377,0.103352 0.227377,0.198437 0,0.06615 -0.03721,0.132292 -0.08682,0.169499 -0.04961,0.03721 -0.128157,0.05374 -0.227376,0.05374 -0.132292,0 -0.223243,-0.03307 -0.28112,-0.103353 -0.04548,-0.05374 -0.06615,-0.111621 -0.06615,-0.186035 h -0.144694 c 0,0.111621 0.02067,0.186035 0.07028,0.252181 0.08268,0.115755 0.227377,0.173633 0.413411,0.173633 0.144694,0 0.264584,-0.03307 0.343132,-0.09095 0.08268,-0.06614 0.136426,-0.177766 0.136426,-0.281119 0,-0.152963 -0.09509,-0.264584 -0.260449,-0.310059 l -0.310059,-0.08268 c -0.148828,-0.04134 -0.202572,-0.08682 -0.202572,-0.181901 0,-0.124024 0.111622,-0.206706 0.276986,-0.206706 0.194304,0 0.30179,0.09095 0.305924,0.248047 z m 0,0"
       style="fill:#000000;fill-opacity:1;fill-rule:nonzero;stroke:none;stroke-width:0.325187"
       aria-label="AVX OpenBLAS" />
    <path
       id="path2180"
       d="m 75.223109,18.73562 h 4.800737"
       style="fill:none;stroke:#0000ff;stroke-width:0.150562;stroke-linecap:butt;stroke-linejoin:miter;stroke-miterlimit:3.8;stroke-dasharray:0.481277, 0.240638;stroke-dashoffset:0;stroke-opacity:1" />
    <path
       id="path2181"
       d="M 55.009472,67.609292 65.910394,63.349992 76.823347,52.70174 87.724269,30.346429 98.637223,25.028319 109.53814,62.27915 120.4511,58.01985 131.35202,20.769018"
       style="fill:none;stroke:#0000ff;stroke-width:0.150562;stroke-linecap:butt;stroke-linejoin:miter;stroke-miterlimit:3.8;stroke-dasharray:0.481277, 0.240638;stroke-dashoffset:0;stroke-opacity:1" />
    <path
       id="path2182"
       d="m 54.630298,67.230445 0.758011,0.758011"
       style="fill:none;stroke:#0000ff;stroke-width:0.150562;stroke-linecap:butt;stroke-linejoin:miter;stroke-miterlimit:3.8;stroke-dasharray:none;stroke-opacity:1" />
    <path
       id="path2183"
       d="M 54.630298,67.988461 55.388309,67.23045"
       style="fill:none;stroke:#0000ff;stroke-width:0.150562;stroke-linecap:butt;stroke-linejoin:miter;stroke-miterlimit:3.8;stroke-dasharray:none;stroke-opacity:1" />
    <path
       id="path2184"
       d="m 65.531237,62.971149 0.758011,0.758011"
       style="fill:none;stroke:#0000ff;stroke-width:0.150562;stroke-linecap:butt;stroke-linejoin:miter;stroke-miterlimit:3.8;stroke-dasharray:none;stroke-opacity:1" />
    <path
       id="path2185"
       d="m 65.531237,63.729159 0.758011,-0.758011"
       style="fill:none;stroke:#0000ff;stroke-width:0.150562;stroke-linecap:butt;stroke-linejoin:miter;stroke-miterlimit:3.8;stroke-dasharray:none;stroke-opacity:1" />
    <path
       id="path2186"
       d="m 76.444188,52.3229 0.758011,0.758011"
       style="fill:none;stroke:#0000ff;stroke-width:0.150562;stroke-linecap:butt;stroke-linejoin:miter;stroke-miterlimit:3.8;stroke-dasharray:none;stroke-opacity:1" />
    <path
       id="path2187"
       d="m 76.444188,53.080907 0.758011,-0.758011"
       style="fill:none;stroke:#0000ff;stroke-width:0.150562;stroke-linecap:butt;stroke-linejoin:miter;stroke-miterlimit:3.8;stroke-dasharray:none;stroke-opacity:1" />
    <path
       id="path2188"
       d="m 87.3451,29.967588 0.758011,0.758011"
       style="fill:none;stroke:#0000ff;stroke-width:0.150562;stroke-linecap:butt;stroke-linejoin:miter;stroke-miterlimit:3.8;stroke-dasharray:none;stroke-opacity:1" />
    <path
       id="path2189"
       d="m 87.3451,30.725595 0.758011,-0.758011"
       style="fill:none;stroke:#0000ff;stroke-width:0.150562;stroke-linecap:butt;stroke-linejoin:miter;stroke-miterlimit:3.8;stroke-dasharray:none;stroke-opacity:1" />
    <path
       id="path2190"
       d="m 98.258052,24.649473 0.758011,0.758011"
       style="fill:none;stroke:#0000ff;stroke-width:0.150562;stroke-linecap:butt;stroke-linejoin:miter;stroke-miterlimit:3.8;stroke-dasharray:none;stroke-opacity:1" />
    <path
       id="path2191"
       d="m 98.258052,25.407486 0.758011,-0.758011"
       style="fill:none;stroke:#0000ff;stroke-width:0.150562;stroke-linecap:butt;stroke-linejoin:miter;stroke-miterlimit:3.8;stroke-dasharray:none;stroke-opacity:1" />
    <path
       id="path2192"
       d="m 109.15899,61.900308 0.75802,0.758011"
       style="fill:none;stroke:#0000ff;stroke-width:0.150562;stroke-linecap:butt;stroke-linejoin:miter;stroke-miterlimit:3.8;stroke-dasharray:none;stroke-opacity:1" />
    <path
       id="path2193"
       d="m 109.15899,62.658319 0.75802,-0.758011"
       style="fill:none;stroke:#0000ff;stroke-width:0.150562;stroke-linecap:butt;stroke-linejoin:miter;stroke-miterlimit:3.8;stroke-dasharray:none;stroke-opacity:1" />
    <path
       id="path2194"
       d="m 120.07194,57.641006 0.75802,0.758011"
       style="fill:none;stroke:#0000ff;stroke-width:0.150562;stroke-linecap:butt;stroke-linejoin:miter;stroke-miterlimit:3.8;stroke-dasharray:none;stroke-opacity:1" />
    <path
       id="path2195"
       d="m 120.07194,58.399022 0.75802,-0.758011"
       style="fill:none;stroke:#0000ff;stroke-width:0.150562;stroke-linecap:butt;stroke-linejoin:miter;stroke-miterlimit:3.8;stroke-dasharray:none;stroke-opacity:1" />
    <path
       id="path2196"
       d="m 130.97285,20.390171 0.75802,0.758011"
       style="fill:none;stroke:#0000ff;stroke-width:0.150562;stroke-linecap:butt;stroke-linejoin:miter;stroke-miterlimit:3.8;stroke-dasharray:none;stroke-opacity:1" />
    <path
       id="path2197"
       d="m 130.97285,21.148184 0.75802,-0.758011"
       style="fill:none;stroke:#0000ff;stroke-width:0.150562;stroke-linecap:butt;stroke-linejoin:miter;stroke-miterlimit:3.8;stroke-dasharray:none;stroke-opacity:1" />
    <path
       id="path2198"
       d="m 77.238282,18.356779 0.758011,0.758011"
       style="fill:none;stroke:#0000ff;stroke-width:0.150562;stroke-linecap:butt;stroke-linejoin:miter;stroke-miterlimit:3.8;stroke-dasharray:none;stroke-opacity:1" />
    <path
       id="path2199"
       d="m 77.238282,19.11479 0.758011,-0.758011"
       style="fill:none;stroke:#0000ff;stroke-width:0.150562;stroke-linecap:butt;stroke-linejoin:miter;stroke-miterlimit:3.8;stroke-dasharray:none;stroke-opacity:1" />
    <path
       id="path2200"
       d="M 131.352,15.45094 H 55.009462 V 68.668128 H 131.352 Z M 52.60514,14.552081 Z"
       style="fill:none;stroke:#000000;stroke-width:0.124002;stroke-linecap:butt;stroke-linejoin:miter;stroke-miterlimit:3.8;stroke-dasharray:none;stroke-opacity:1" />
  </g>
</svg>
