<?xml version="1.0" encoding="UTF-8" standalone="no"?>
<!-- Created with Inkscape (http://www.inkscape.org/) -->

<svg
   width="81.759308mm"
   height="57.735863mm"
   viewBox="0 0 81.759308 57.735863"
   version="1.1"
   id="svg1"
   inkscape:version="1.3.2 (091e20ef0f, 2023-11-25, custom)"
   sodipodi:docname="fig2.svg"
   xmlns:inkscape="http://www.inkscape.org/namespaces/inkscape"
   xmlns:sodipodi="http://sodipodi.sourceforge.net/DTD/sodipodi-0.dtd"
   xmlns="http://www.w3.org/2000/svg"
   xmlns:svg="http://www.w3.org/2000/svg">
  <sodipodi:namedview
     id="namedview1"
     pagecolor="#505050"
     bordercolor="#eeeeee"
     borderopacity="1"
     inkscape:showpageshadow="0"
     inkscape:pageopacity="0"
     inkscape:pagecheckerboard="0"
     inkscape:deskcolor="#505050"
     inkscape:document-units="mm"
     inkscape:zoom="2.195479"
     inkscape:cx="93.145962"
     inkscape:cy="135.50574"
     inkscape:window-width="939"
     inkscape:window-height="1229"
     inkscape:window-x="0"
     inkscape:window-y="0"
     inkscape:window-maximized="0"
     inkscape:current-layer="layer1" />
  <defs
     id="defs1" />
  <g
     inkscape:label="Layer 1"
     inkscape:groupmode="layer"
     id="layer1"
     transform="translate(-289.98335,-35.189587)">
    <path
       id="path1931"
       d="m 296.3784,88.265885 h 0.7355"
       style="fill:none;stroke:#000000;stroke-width:0.116745;stroke-linecap:butt;stroke-linejoin:miter;stroke-miterlimit:3.8;stroke-dasharray:none;stroke-opacity:1" />
    <path
       id="path1932"
       d="m 370.45302,88.265885 h -0.73549"
       style="fill:none;stroke:#000000;stroke-width:0.116745;stroke-linecap:butt;stroke-linejoin:miter;stroke-miterlimit:3.8;stroke-dasharray:none;stroke-opacity:1" />
    <path
       id="path1933"
       d="m 294.94014,87.645152 c -0.10749,0 -0.20671,0.04548 -0.26872,0.128158 -0.0744,0.09922 -0.11162,0.256315 -0.11162,0.471289 0,0.388607 0.13229,0.595313 0.38034,0.595313 0.24391,0 0.3762,-0.206706 0.3762,-0.587045 0,-0.227376 -0.0331,-0.376204 -0.11162,-0.479557 -0.062,-0.08268 -0.1571,-0.128158 -0.26458,-0.128158 z m 0,0.128158 c 0.15296,0 0.23151,0.157096 0.23151,0.467155 0,0.326595 -0.0744,0.479557 -0.23565,0.479557 -0.15296,0 -0.22738,-0.157096 -0.22738,-0.475423 0,-0.318327 0.0744,-0.471289 0.23152,-0.471289 z m 0,0"
       style="fill:#000000;fill-opacity:1;fill-rule:nonzero;stroke:none;stroke-width:0.315527"
       aria-label=" 0" />
    <path
       id="path1934"
       d="m 296.3784,83.105769 h 0.7355"
       style="fill:none;stroke:#000000;stroke-width:0.116745;stroke-linecap:butt;stroke-linejoin:miter;stroke-miterlimit:3.8;stroke-dasharray:none;stroke-opacity:1" />
    <path
       id="path1935"
       d="m 370.453,83.105769 h -0.73549"
       style="fill:none;stroke:#000000;stroke-width:0.116745;stroke-linecap:butt;stroke-linejoin:miter;stroke-miterlimit:3.8;stroke-dasharray:none;stroke-opacity:1" />
    <path
       id="path1936"
       d="m 295.26673,82.484744 h -0.59945 l -0.0827,0.628386 h 0.13229 c 0.0662,-0.07855 0.11989,-0.107487 0.21084,-0.107487 0.15297,0 0.25218,0.107487 0.25218,0.276985 0,0.169499 -0.0951,0.268718 -0.25218,0.268718 -0.12815,0 -0.20257,-0.06201 -0.23564,-0.194304 h -0.1447 c 0.0207,0.09508 0.0372,0.14056 0.0703,0.186036 0.0662,0.08682 0.18191,0.136425 0.3142,0.136425 0.23151,0 0.39687,-0.169498 0.39687,-0.413411 0,-0.23151 -0.15296,-0.384473 -0.3762,-0.384473 -0.0827,0 -0.1447,0.02067 -0.21498,0.07028 l 0.0455,-0.326595 h 0.48369 z m 0,0"
       style="fill:#000000;fill-opacity:1;fill-rule:nonzero;stroke:none;stroke-width:0.315527"
       aria-label=" 5" />
    <path
       id="path1937"
       d="m 296.3784,77.933977 h 0.7355"
       style="fill:none;stroke:#000000;stroke-width:0.116745;stroke-linecap:butt;stroke-linejoin:miter;stroke-miterlimit:3.8;stroke-dasharray:none;stroke-opacity:1" />
    <path
       id="path1938"
       d="m 370.453,77.933977 h -0.73549"
       style="fill:none;stroke:#000000;stroke-width:0.116745;stroke-linecap:butt;stroke-linejoin:miter;stroke-miterlimit:3.8;stroke-dasharray:none;stroke-opacity:1" />
    <path
       id="path1939"
       d="m 294.00168,77.647829 v 0.822689 h 0.14469 v -1.157552 h -0.0951 c -0.0496,0.177767 -0.0827,0.202571 -0.30593,0.23151 v 0.103353 z m 0.93844,-0.334863 c -0.10748,0 -0.2067,0.04547 -0.26871,0.128157 -0.0744,0.09922 -0.11163,0.256315 -0.11163,0.471289 0,0.388607 0.1323,0.595313 0.38034,0.595313 0.24392,0 0.37621,-0.206706 0.37621,-0.587044 0,-0.227377 -0.0331,-0.376205 -0.11162,-0.479558 -0.062,-0.08268 -0.1571,-0.128157 -0.26459,-0.128157 z m 0,0.128157 c 0.15297,0 0.23151,0.157097 0.23151,0.467155 0,0.326595 -0.0744,0.479558 -0.23564,0.479558 -0.15296,0 -0.22738,-0.157097 -0.22738,-0.475424 0,-0.318326 0.0744,-0.471289 0.23151,-0.471289 z m 0,0"
       style="fill:#000000;fill-opacity:1;fill-rule:nonzero;stroke:none;stroke-width:0.315527"
       aria-label=" 10" />
    <path
       id="path1940"
       d="m 296.3784,72.773856 h 0.7355"
       style="fill:none;stroke:#000000;stroke-width:0.116745;stroke-linecap:butt;stroke-linejoin:miter;stroke-miterlimit:3.8;stroke-dasharray:none;stroke-opacity:1" />
    <path
       id="path1941"
       d="m 370.453,72.773856 h -0.73549"
       style="fill:none;stroke:#000000;stroke-width:0.116745;stroke-linecap:butt;stroke-linejoin:miter;stroke-miterlimit:3.8;stroke-dasharray:none;stroke-opacity:1" />
    <path
       id="path1942"
       d="m 294.00168,72.488454 v 0.822689 h 0.14469 v -1.157552 h -0.0951 c -0.0496,0.177767 -0.0827,0.202572 -0.30593,0.231511 v 0.103352 z m 1.26504,-0.334863 h -0.59945 l -0.0827,0.628386 h 0.13229 c 0.0661,-0.07855 0.11989,-0.107487 0.21084,-0.107487 0.15296,0 0.25218,0.107487 0.25218,0.276985 0,0.169499 -0.0951,0.268718 -0.25218,0.268718 -0.12816,0 -0.20257,-0.06201 -0.23564,-0.194304 h -0.1447 c 0.0207,0.09508 0.0372,0.14056 0.0703,0.186036 0.0661,0.08682 0.1819,0.136425 0.31419,0.136425 0.23152,0 0.39688,-0.169498 0.39688,-0.413411 0,-0.231511 -0.15296,-0.384473 -0.3762,-0.384473 -0.0827,0 -0.1447,0.02067 -0.21498,0.07028 l 0.0455,-0.326595 h 0.48369 z m 0,0"
       style="fill:#000000;fill-opacity:1;fill-rule:nonzero;stroke:none;stroke-width:0.315527"
       aria-label=" 15" />
    <path
       id="path1943"
       d="m 296.3784,67.613733 h 0.7355"
       style="fill:none;stroke:#000000;stroke-width:0.116745;stroke-linecap:butt;stroke-linejoin:miter;stroke-miterlimit:3.8;stroke-dasharray:none;stroke-opacity:1" />
    <path
       id="path1944"
       d="m 370.453,67.613733 h -0.73549"
       style="fill:none;stroke:#000000;stroke-width:0.116745;stroke-linecap:butt;stroke-linejoin:miter;stroke-miterlimit:3.8;stroke-dasharray:none;stroke-opacity:1" />
    <path
       id="path1945"
       d="m 294.40682,68.010175 h -0.60771 c 0.0124,-0.09508 0.0661,-0.157096 0.2067,-0.239778 l 0.16537,-0.08682 c 0.16123,-0.09095 0.24391,-0.21084 0.24391,-0.3514 0,-0.09508 -0.0413,-0.186035 -0.10749,-0.248046 -0.0703,-0.06201 -0.15296,-0.09095 -0.26458,-0.09095 -0.14469,0 -0.25631,0.05374 -0.31833,0.148828 -0.0413,0.06201 -0.0579,0.136426 -0.062,0.252181 h 0.1447 c 0.004,-0.07855 0.0124,-0.124023 0.0331,-0.16123 0.0372,-0.07028 0.11162,-0.115755 0.19844,-0.115755 0.13229,0 0.22737,0.09508 0.22737,0.219108 0,0.09095 -0.0537,0.169498 -0.15709,0.227376 l -0.14883,0.08682 c -0.23978,0.136426 -0.31006,0.243913 -0.3266,0.500228 h 0.77308 z m 0.5333,-1.016992 c -0.10748,0 -0.2067,0.04547 -0.26871,0.128158 -0.0744,0.09922 -0.11163,0.256315 -0.11163,0.471289 0,0.388606 0.1323,0.595312 0.38034,0.595312 0.24392,0 0.37621,-0.206706 0.37621,-0.587044 0,-0.227376 -0.0331,-0.376205 -0.11162,-0.479557 -0.062,-0.08268 -0.1571,-0.128158 -0.26459,-0.128158 z m 0,0.128158 c 0.15297,0 0.23151,0.157096 0.23151,0.467155 0,0.326595 -0.0744,0.479557 -0.23564,0.479557 -0.15296,0 -0.22738,-0.157097 -0.22738,-0.475423 0,-0.318327 0.0744,-0.471289 0.23151,-0.471289 z m 0,0"
       style="fill:#000000;fill-opacity:1;fill-rule:nonzero;stroke:none;stroke-width:0.315527"
       aria-label=" 20" />
    <path
       id="path1946"
       d="m 296.3784,62.441938 h 0.7355"
       style="fill:none;stroke:#000000;stroke-width:0.116745;stroke-linecap:butt;stroke-linejoin:miter;stroke-miterlimit:3.8;stroke-dasharray:none;stroke-opacity:1" />
    <path
       id="path1947"
       d="m 370.453,62.441938 h -0.73549"
       style="fill:none;stroke:#000000;stroke-width:0.116745;stroke-linecap:butt;stroke-linejoin:miter;stroke-miterlimit:3.8;stroke-dasharray:none;stroke-opacity:1" />
    <path
       id="path1948"
       d="m 294.40682,62.838397 h -0.60771 c 0.0124,-0.09508 0.0661,-0.157097 0.2067,-0.239779 l 0.16537,-0.08682 c 0.16123,-0.09095 0.24391,-0.21084 0.24391,-0.3514 0,-0.09508 -0.0413,-0.186035 -0.10749,-0.248047 -0.0703,-0.06201 -0.15296,-0.09095 -0.26458,-0.09095 -0.14469,0 -0.25631,0.05374 -0.31833,0.148828 -0.0413,0.06201 -0.0579,0.136425 -0.062,0.252181 h 0.1447 c 0.004,-0.07855 0.0124,-0.124024 0.0331,-0.161231 0.0372,-0.07028 0.11162,-0.115755 0.19844,-0.115755 0.13229,0 0.22737,0.09508 0.22737,0.219108 0,0.09095 -0.0537,0.169499 -0.15709,0.227376 l -0.14883,0.08682 c -0.23978,0.136426 -0.31006,0.243913 -0.3266,0.500228 h 0.77308 z m 0.8599,-1.016992 h -0.59945 l -0.0827,0.628385 h 0.13229 c 0.0661,-0.07855 0.11989,-0.107487 0.21084,-0.107487 0.15296,0 0.25218,0.107487 0.25218,0.276986 0,0.169498 -0.0951,0.268717 -0.25218,0.268717 -0.12816,0 -0.20257,-0.06201 -0.23564,-0.194303 h -0.1447 c 0.0207,0.09508 0.0372,0.14056 0.0703,0.186035 0.0661,0.08682 0.1819,0.136426 0.31419,0.136426 0.23152,0 0.39688,-0.169499 0.39688,-0.413412 0,-0.23151 -0.15296,-0.384472 -0.3762,-0.384472 -0.0827,0 -0.1447,0.02067 -0.21498,0.07028 l 0.0455,-0.326596 h 0.48369 z m 0,0"
       style="fill:#000000;fill-opacity:1;fill-rule:nonzero;stroke:none;stroke-width:0.315527"
       aria-label=" 25" />
    <path
       id="path1949"
       d="m 296.3784,57.281817 h 0.7355"
       style="fill:none;stroke:#000000;stroke-width:0.116745;stroke-linecap:butt;stroke-linejoin:miter;stroke-miterlimit:3.8;stroke-dasharray:none;stroke-opacity:1" />
    <path
       id="path1950"
       d="m 370.453,57.281817 h -0.73549"
       style="fill:none;stroke:#000000;stroke-width:0.116745;stroke-linecap:butt;stroke-linejoin:miter;stroke-miterlimit:3.8;stroke-dasharray:none;stroke-opacity:1" />
    <path
       id="path1951"
       d="m 293.93967,57.289382 h 0.0207 l 0.0579,-0.0041 c 0.16123,0 0.23977,0.07441 0.23977,0.21084 0,0.144694 -0.0868,0.23151 -0.23977,0.23151 -0.1571,0 -0.23151,-0.07855 -0.24392,-0.243913 h -0.14056 c 0.004,0.09095 0.0207,0.152963 0.0496,0.202572 0.0579,0.111621 0.17364,0.169499 0.33073,0.169499 0.23978,0 0.39274,-0.14056 0.39274,-0.359668 0,-0.148828 -0.0579,-0.231511 -0.19844,-0.276986 0.11163,-0.04134 0.16537,-0.124023 0.16537,-0.239779 0,-0.198437 -0.13229,-0.318326 -0.35553,-0.318326 -0.23151,0 -0.35554,0.128157 -0.35967,0.37207 h 0.14056 c 0.004,-0.07028 0.008,-0.107487 0.0289,-0.144694 0.0331,-0.06201 0.10335,-0.103353 0.1943,-0.103353 0.12402,0 0.20257,0.07855 0.20257,0.198437 0,0.08268 -0.0289,0.132292 -0.091,0.157097 -0.0413,0.01654 -0.0909,0.02481 -0.1943,0.02481 z m 1.00045,-0.628386 c -0.10748,0 -0.2067,0.04548 -0.26871,0.128158 -0.0744,0.09922 -0.11163,0.256315 -0.11163,0.471289 0,0.388607 0.1323,0.595313 0.38034,0.595313 0.24392,0 0.37621,-0.206706 0.37621,-0.587045 0,-0.227376 -0.0331,-0.376204 -0.11162,-0.479557 -0.062,-0.08268 -0.1571,-0.128158 -0.26459,-0.128158 z m 0,0.128158 c 0.15297,0 0.23151,0.157096 0.23151,0.467155 0,0.326595 -0.0744,0.479557 -0.23564,0.479557 -0.15296,0 -0.22738,-0.157096 -0.22738,-0.475423 0,-0.318327 0.0744,-0.471289 0.23151,-0.471289 z m 0,0"
       style="fill:#000000;fill-opacity:1;fill-rule:nonzero;stroke:none;stroke-width:0.315527"
       aria-label=" 30" />
    <path
       id="path1952"
       d="m 296.3784,52.121696 h 0.7355"
       style="fill:none;stroke:#000000;stroke-width:0.116745;stroke-linecap:butt;stroke-linejoin:miter;stroke-miterlimit:3.8;stroke-dasharray:none;stroke-opacity:1" />
    <path
       id="path1953"
       d="m 370.453,52.121696 h -0.73549"
       style="fill:none;stroke:#000000;stroke-width:0.116745;stroke-linecap:butt;stroke-linejoin:miter;stroke-miterlimit:3.8;stroke-dasharray:none;stroke-opacity:1" />
    <path
       id="path1954"
       d="m 293.93967,52.130006 h 0.0207 l 0.0579,-0.0041 c 0.16123,0 0.23977,0.07441 0.23977,0.21084 0,0.144694 -0.0868,0.23151 -0.23977,0.23151 -0.1571,0 -0.23151,-0.07855 -0.24392,-0.243912 h -0.14056 c 0.004,0.09095 0.0207,0.152962 0.0496,0.202571 0.0579,0.111621 0.17364,0.169499 0.33073,0.169499 0.23978,0 0.39274,-0.14056 0.39274,-0.359668 0,-0.148828 -0.0579,-0.23151 -0.19844,-0.276986 0.11163,-0.04134 0.16537,-0.124023 0.16537,-0.239778 0,-0.198438 -0.13229,-0.318327 -0.35553,-0.318327 -0.23151,0 -0.35554,0.128157 -0.35967,0.37207 h 0.14056 c 0.004,-0.07028 0.008,-0.107487 0.0289,-0.144694 0.0331,-0.06201 0.10335,-0.103353 0.1943,-0.103353 0.12402,0 0.20257,0.07855 0.20257,0.198438 0,0.08268 -0.0289,0.132291 -0.091,0.157096 -0.0413,0.01654 -0.0909,0.02481 -0.1943,0.02481 z m 1.32705,-0.628385 h -0.59945 l -0.0827,0.628385 h 0.13229 c 0.0661,-0.07855 0.11989,-0.107487 0.21084,-0.107487 0.15296,0 0.25218,0.107487 0.25218,0.276986 0,0.169499 -0.0951,0.268717 -0.25218,0.268717 -0.12816,0 -0.20257,-0.06201 -0.23564,-0.194303 h -0.1447 c 0.0207,0.09508 0.0372,0.14056 0.0703,0.186035 0.0661,0.08682 0.1819,0.136426 0.31419,0.136426 0.23152,0 0.39688,-0.169499 0.39688,-0.413412 0,-0.23151 -0.15296,-0.384472 -0.3762,-0.384472 -0.0827,0 -0.1447,0.02067 -0.21498,0.07028 l 0.0455,-0.326595 h 0.48369 z m 0,0"
       style="fill:#000000;fill-opacity:1;fill-rule:nonzero;stroke:none;stroke-width:0.315527"
       aria-label=" 35" />
    <path
       id="path1955"
       d="m 296.3784,46.961578 h 0.7355"
       style="fill:none;stroke:#000000;stroke-width:0.116745;stroke-linecap:butt;stroke-linejoin:miter;stroke-miterlimit:3.8;stroke-dasharray:none;stroke-opacity:1" />
    <path
       id="path1956"
       d="m 370.453,46.961578 h -0.73549"
       style="fill:none;stroke:#000000;stroke-width:0.116745;stroke-linecap:butt;stroke-linejoin:miter;stroke-miterlimit:3.8;stroke-dasharray:none;stroke-opacity:1" />
    <path
       id="path1957"
       d="m 294.1133,47.221779 v 0.276986 h 0.14469 v -0.276986 h 0.1695 v -0.128157 h -0.1695 v -0.752409 h -0.10748 l -0.52504,0.727604 v 0.152962 z m 0,-0.128157 h -0.3638 l 0.3638,-0.508497 z m 0.82682,-0.752409 c -0.10748,0 -0.2067,0.04547 -0.26871,0.128157 -0.0744,0.09922 -0.11163,0.256315 -0.11163,0.471289 0,0.388607 0.1323,0.595313 0.38034,0.595313 0.24392,0 0.37621,-0.206706 0.37621,-0.587045 0,-0.227376 -0.0331,-0.376204 -0.11162,-0.479557 -0.062,-0.08268 -0.1571,-0.128157 -0.26459,-0.128157 z m 0,0.128157 c 0.15297,0 0.23151,0.157097 0.23151,0.467155 0,0.326595 -0.0744,0.479557 -0.23564,0.479557 -0.15296,0 -0.22738,-0.157096 -0.22738,-0.475423 0,-0.318327 0.0744,-0.471289 0.23151,-0.471289 z m 0,0"
       style="fill:#000000;fill-opacity:1;fill-rule:nonzero;stroke:none;stroke-width:0.315527"
       aria-label=" 40" />
    <path
       id="path1958"
       d="m 296.3784,41.789781 h 0.7355"
       style="fill:none;stroke:#000000;stroke-width:0.116745;stroke-linecap:butt;stroke-linejoin:miter;stroke-miterlimit:3.8;stroke-dasharray:none;stroke-opacity:1" />
    <path
       id="path1959"
       d="m 370.453,41.789781 h -0.73549"
       style="fill:none;stroke:#000000;stroke-width:0.116745;stroke-linecap:butt;stroke-linejoin:miter;stroke-miterlimit:3.8;stroke-dasharray:none;stroke-opacity:1" />
    <path
       id="path1960"
       d="m 294.1133,42.050004 v 0.276985 h 0.14469 v -0.276985 h 0.1695 v -0.128158 h -0.1695 v -0.752409 h -0.10748 l -0.52504,0.727604 v 0.152963 z m 0,-0.128158 h -0.3638 l 0.3638,-0.508496 z m 1.15342,-0.752409 h -0.59945 l -0.0827,0.628386 h 0.13229 c 0.0661,-0.07855 0.11989,-0.107487 0.21084,-0.107487 0.15296,0 0.25218,0.107487 0.25218,0.276985 0,0.169499 -0.0951,0.268718 -0.25218,0.268718 -0.12816,0 -0.20257,-0.06201 -0.23564,-0.194304 h -0.1447 c 0.0207,0.09508 0.0372,0.14056 0.0703,0.186035 0.0661,0.08682 0.1819,0.136426 0.31419,0.136426 0.23152,0 0.39688,-0.169498 0.39688,-0.413411 0,-0.231511 -0.15296,-0.384473 -0.3762,-0.384473 -0.0827,0 -0.1447,0.02067 -0.21498,0.07028 l 0.0455,-0.326595 h 0.48369 z m 0,0"
       style="fill:#000000;fill-opacity:1;fill-rule:nonzero;stroke:none;stroke-width:0.315527"
       aria-label=" 45" />
    <path
       id="path1961"
       d="m 296.3784,36.629659 h 0.7355"
       style="fill:none;stroke:#000000;stroke-width:0.116745;stroke-linecap:butt;stroke-linejoin:miter;stroke-miterlimit:3.8;stroke-dasharray:none;stroke-opacity:1" />
    <path
       id="path1962"
       d="m 370.453,36.629659 h -0.73549"
       style="fill:none;stroke:#000000;stroke-width:0.116745;stroke-linecap:butt;stroke-linejoin:miter;stroke-miterlimit:3.8;stroke-dasharray:none;stroke-opacity:1" />
    <path
       id="path1963"
       d="m 294.35721,36.009029 h -0.59944 l -0.0827,0.628385 h 0.1323 c 0.0661,-0.07855 0.11989,-0.107487 0.21084,-0.107487 0.15296,0 0.25218,0.107487 0.25218,0.276986 0,0.169499 -0.0951,0.268718 -0.25218,0.268718 -0.12816,0 -0.20258,-0.06201 -0.23565,-0.194304 h -0.14469 c 0.0207,0.09509 0.0372,0.14056 0.0703,0.186035 0.0661,0.08682 0.1819,0.136426 0.31419,0.136426 0.23151,0 0.39687,-0.169499 0.39687,-0.413411 0,-0.231511 -0.15296,-0.384473 -0.3762,-0.384473 -0.0827,0 -0.14469,0.02067 -0.21497,0.07028 l 0.0455,-0.326595 h 0.48369 z m 0.58291,0 c -0.10748,0 -0.2067,0.04548 -0.26871,0.128158 -0.0744,0.09922 -0.11163,0.256315 -0.11163,0.471289 0,0.388606 0.1323,0.595312 0.38034,0.595312 0.24392,0 0.37621,-0.206706 0.37621,-0.587044 0,-0.227376 -0.0331,-0.376205 -0.11162,-0.479557 -0.062,-0.08268 -0.1571,-0.128158 -0.26459,-0.128158 z m 0,0.128158 c 0.15297,0 0.23151,0.157096 0.23151,0.467155 0,0.326595 -0.0744,0.479557 -0.23564,0.479557 -0.15296,0 -0.22738,-0.157097 -0.22738,-0.475423 0,-0.318327 0.0744,-0.471289 0.23151,-0.471289 z m 0,0"
       style="fill:#000000;fill-opacity:1;fill-rule:nonzero;stroke:none;stroke-width:0.315527"
       aria-label=" 50" />
    <path
       id="path1964"
       d="M 296.3784,88.265896 V 87.530404"
       style="fill:none;stroke:#000000;stroke-width:0.116745;stroke-linecap:butt;stroke-linejoin:miter;stroke-miterlimit:3.8;stroke-dasharray:none;stroke-opacity:1" />
    <path
       id="path1965"
       d="m 296.3784,36.629659 v 0.735492"
       style="fill:none;stroke:#000000;stroke-width:0.116745;stroke-linecap:butt;stroke-linejoin:miter;stroke-miterlimit:3.8;stroke-dasharray:none;stroke-opacity:1" />
    <path
       id="path1966"
       d="m 296.45735,90.16076 v 0.276985 h 0.1447 V 90.16076 h 0.1695 v -0.128158 h -0.1695 v -0.752409 h -0.10749 l -0.52503,0.727604 v 0.152963 z m 0,-0.128158 h -0.3638 l 0.3638,-0.508496 z m 0,0"
       style="fill:#000000;fill-opacity:1;fill-rule:nonzero;stroke:none;stroke-width:0.315527"
       aria-label="4" />
    <path
       id="path1967"
       d="M 306.95549,88.265896 V 87.530404"
       style="fill:none;stroke:#000000;stroke-width:0.116745;stroke-linecap:butt;stroke-linejoin:miter;stroke-miterlimit:3.8;stroke-dasharray:none;stroke-opacity:1" />
    <path
       id="path1968"
       d="m 306.95549,36.629659 v 0.735492"
       style="fill:none;stroke:#000000;stroke-width:0.116745;stroke-linecap:butt;stroke-linejoin:miter;stroke-miterlimit:3.8;stroke-dasharray:none;stroke-opacity:1" />
    <path
       id="path1969"
       d="m 307.13785,89.83003 c 0.11989,-0.07441 0.16123,-0.132291 0.16123,-0.239778 0,-0.181901 -0.1447,-0.310059 -0.34727,-0.310059 -0.2067,0 -0.3514,0.128158 -0.3514,0.310059 0,0.107487 0.0413,0.165364 0.1571,0.239778 -0.13229,0.06201 -0.19431,0.157097 -0.19431,0.285254 0,0.214974 0.1571,0.359668 0.38861,0.359668 0.22738,0 0.38861,-0.144694 0.38861,-0.355534 0,-0.132291 -0.0661,-0.227376 -0.20257,-0.289388 z m -0.18604,-0.421679 c 0.11989,0 0.19844,0.07028 0.19844,0.181901 0,0.107487 -0.0786,0.181901 -0.19844,0.181901 -0.12402,0 -0.20257,-0.07441 -0.20257,-0.181901 0,-0.111621 0.0786,-0.181901 0.20257,-0.181901 z m 0,0.483691 c 0.14056,0 0.23978,0.09095 0.23978,0.227376 0,0.136426 -0.0992,0.227377 -0.24391,0.227377 -0.14056,0 -0.23978,-0.09095 -0.23978,-0.227377 0,-0.136425 0.0992,-0.227376 0.24391,-0.227376 z m 0,0"
       style="fill:#000000;fill-opacity:1;fill-rule:nonzero;stroke:none;stroke-width:0.315527"
       aria-label="8" />
    <path
       id="path1970"
       d="M 317.54424,88.265896 V 87.530404"
       style="fill:none;stroke:#000000;stroke-width:0.116745;stroke-linecap:butt;stroke-linejoin:miter;stroke-miterlimit:3.8;stroke-dasharray:none;stroke-opacity:1" />
    <path
       id="path1971"
       d="m 317.54424,36.629659 v 0.735492"
       style="fill:none;stroke:#000000;stroke-width:0.116745;stroke-linecap:butt;stroke-linejoin:miter;stroke-miterlimit:3.8;stroke-dasharray:none;stroke-opacity:1" />
    <path
       id="path1972"
       d="m 317.05765,89.615056 v 0.822689 h 0.14469 v -1.157552 h -0.0951 c -0.0496,0.177767 -0.0827,0.202572 -0.30593,0.231511 v 0.103352 z m 1.30121,-0.03307 c -0.0289,-0.19017 -0.15296,-0.301791 -0.33073,-0.301791 -0.12402,0 -0.23978,0.06201 -0.31006,0.165365 -0.0703,0.111621 -0.10335,0.252181 -0.10335,0.463021 0,0.194303 0.0289,0.318326 0.0992,0.421679 0.062,0.09508 0.16123,0.144694 0.28939,0.144694 0.2191,0 0.38033,-0.16123 0.38033,-0.388606 0,-0.214974 -0.14882,-0.367937 -0.35553,-0.367937 -0.11575,0 -0.20257,0.04134 -0.26458,0.128158 0,-0.28112 0.0909,-0.438216 0.25631,-0.438216 0.0992,0 0.1695,0.06201 0.19431,0.173633 z m -0.34727,0.264583 c 0.13643,0 0.22325,0.09508 0.22325,0.248047 0,0.148828 -0.0992,0.252181 -0.23151,0.252181 -0.1323,0 -0.23151,-0.111621 -0.23151,-0.260449 0,-0.14056 0.0951,-0.239779 0.23977,-0.239779 z m 0,0"
       style="fill:#000000;fill-opacity:1;fill-rule:nonzero;stroke:none;stroke-width:0.315527"
       aria-label="16" />
    <path
       id="path1973"
       d="M 328.12133,88.265896 V 87.530404"
       style="fill:none;stroke:#000000;stroke-width:0.116745;stroke-linecap:butt;stroke-linejoin:miter;stroke-miterlimit:3.8;stroke-dasharray:none;stroke-opacity:1" />
    <path
       id="path1974"
       d="m 328.12133,36.629659 v 0.735492"
       style="fill:none;stroke:#000000;stroke-width:0.116745;stroke-linecap:butt;stroke-linejoin:miter;stroke-miterlimit:3.8;stroke-dasharray:none;stroke-opacity:1" />
    <path
       id="path1975"
       d="m 327.57278,89.908579 h 0.0207 l 0.0579,-0.0041 c 0.16123,0 0.23978,0.07441 0.23978,0.210839 0,0.144694 -0.0868,0.231511 -0.23978,0.231511 -0.15709,0 -0.23151,-0.07855 -0.24391,-0.243913 h -0.14056 c 0.004,0.09095 0.0207,0.152962 0.0496,0.202572 0.0579,0.111621 0.17363,0.169498 0.33073,0.169498 0.23978,0 0.39274,-0.14056 0.39274,-0.359668 0,-0.148828 -0.0579,-0.23151 -0.19844,-0.276985 0.11162,-0.04134 0.16537,-0.124024 0.16537,-0.239779 0,-0.198437 -0.13229,-0.318327 -0.35554,-0.318327 -0.23151,0 -0.35553,0.128158 -0.35966,0.372071 h 0.14056 c 0.004,-0.07028 0.008,-0.107487 0.0289,-0.144694 0.0331,-0.06201 0.10335,-0.103353 0.1943,-0.103353 0.12402,0 0.20257,0.07855 0.20257,0.198437 0,0.08268 -0.0289,0.132292 -0.0909,0.157097 -0.0413,0.01654 -0.091,0.0248 -0.1943,0.0248 z m 1.37562,0.388606 h -0.60771 c 0.0124,-0.09508 0.0661,-0.157096 0.2067,-0.239778 l 0.16537,-0.08682 c 0.16123,-0.09095 0.24391,-0.21084 0.24391,-0.351399 0,-0.09508 -0.0413,-0.186036 -0.10749,-0.248047 -0.0703,-0.06201 -0.15296,-0.09095 -0.26458,-0.09095 -0.14469,0 -0.25631,0.05374 -0.31833,0.148828 -0.0413,0.06201 -0.0579,0.136426 -0.062,0.252181 h 0.1447 c 0.004,-0.07855 0.0124,-0.124023 0.0331,-0.16123 0.0372,-0.07028 0.11162,-0.115755 0.19844,-0.115755 0.13229,0 0.22737,0.09508 0.22737,0.219108 0,0.09095 -0.0537,0.169498 -0.15709,0.227376 l -0.14883,0.08682 c -0.23978,0.136426 -0.31006,0.243913 -0.3266,0.500228 h 0.77308 z m 0,0"
       style="fill:#000000;fill-opacity:1;fill-rule:nonzero;stroke:none;stroke-width:0.315527"
       aria-label="32" />
    <path
       id="path1976"
       d="M 338.71006,88.265896 V 87.530404"
       style="fill:none;stroke:#000000;stroke-width:0.116745;stroke-linecap:butt;stroke-linejoin:miter;stroke-miterlimit:3.8;stroke-dasharray:none;stroke-opacity:1" />
    <path
       id="path1977"
       d="m 338.71006,36.629659 v 0.735492"
       style="fill:none;stroke:#000000;stroke-width:0.116745;stroke-linecap:butt;stroke-linejoin:miter;stroke-miterlimit:3.8;stroke-dasharray:none;stroke-opacity:1" />
    <path
       id="path1978"
       d="m 338.61602,89.581984 c -0.0289,-0.19017 -0.15296,-0.301791 -0.33073,-0.301791 -0.12402,0 -0.23977,0.06201 -0.31005,0.165365 -0.0703,0.111621 -0.10336,0.252181 -0.10336,0.463021 0,0.194303 0.0289,0.318326 0.0992,0.421679 0.062,0.09508 0.16123,0.144694 0.28939,0.144694 0.21911,0 0.38034,-0.16123 0.38034,-0.388606 0,-0.214974 -0.14883,-0.367937 -0.35554,-0.367937 -0.11575,0 -0.20257,0.04134 -0.26458,0.128158 0,-0.28112 0.0909,-0.438216 0.25632,-0.438216 0.0992,0 0.1695,0.06201 0.1943,0.173633 z m -0.34726,0.264583 c 0.13642,0 0.22324,0.09508 0.22324,0.248047 0,0.148828 -0.0992,0.252181 -0.23151,0.252181 -0.13229,0 -0.23151,-0.111621 -0.23151,-0.260449 0,-0.14056 0.0951,-0.239779 0.23978,-0.239779 z m 0.97462,0.314193 v 0.276985 h 0.14469 V 90.16076 h 0.1695 v -0.128158 h -0.1695 v -0.752409 h -0.10749 l -0.52503,0.727604 v 0.152963 z m 0,-0.128158 h -0.36381 l 0.36381,-0.508496 z m 0,0"
       style="fill:#000000;fill-opacity:1;fill-rule:nonzero;stroke:none;stroke-width:0.315527"
       aria-label="64" />
    <path
       id="path1979"
       d="M 349.28715,88.265896 V 87.530404"
       style="fill:none;stroke:#000000;stroke-width:0.116745;stroke-linecap:butt;stroke-linejoin:miter;stroke-miterlimit:3.8;stroke-dasharray:none;stroke-opacity:1" />
    <path
       id="path1980"
       d="m 349.28715,36.629659 v 0.735492"
       style="fill:none;stroke:#000000;stroke-width:0.116745;stroke-linecap:butt;stroke-linejoin:miter;stroke-miterlimit:3.8;stroke-dasharray:none;stroke-opacity:1" />
    <path
       id="path1981"
       d="m 348.34566,89.615056 v 0.822689 h 0.14469 v -1.157552 h -0.0951 c -0.0496,0.177767 -0.0827,0.202572 -0.30593,0.231511 v 0.103352 z m 1.31361,0.682129 h -0.60771 c 0.0124,-0.09508 0.0661,-0.157096 0.20671,-0.239778 l 0.16536,-0.08682 c 0.16123,-0.09095 0.24391,-0.21084 0.24391,-0.351399 0,-0.09508 -0.0413,-0.186036 -0.10748,-0.248047 -0.0703,-0.06201 -0.15297,-0.09095 -0.26459,-0.09095 -0.14469,0 -0.25631,0.05374 -0.31832,0.148828 -0.0414,0.06201 -0.0579,0.136426 -0.062,0.252181 h 0.1447 c 0.004,-0.07855 0.0124,-0.124023 0.0331,-0.16123 0.0372,-0.07028 0.11162,-0.115755 0.19844,-0.115755 0.13229,0 0.22737,0.09508 0.22737,0.219108 0,0.09095 -0.0537,0.169498 -0.15709,0.227376 l -0.14883,0.08682 c -0.23978,0.136426 -0.31006,0.243913 -0.3266,0.500228 h 0.77308 z m 0.71934,-0.467155 c 0.11989,-0.07441 0.16123,-0.132291 0.16123,-0.239778 0,-0.181901 -0.14469,-0.310059 -0.34727,-0.310059 -0.2067,0 -0.35139,0.128158 -0.35139,0.310059 0,0.107487 0.0413,0.165364 0.15709,0.239778 -0.13229,0.06201 -0.1943,0.157097 -0.1943,0.285254 0,0.214974 0.15709,0.359668 0.3886,0.359668 0.22738,0 0.38861,-0.144694 0.38861,-0.355534 0,-0.132291 -0.0661,-0.227376 -0.20257,-0.289388 z m -0.18604,-0.421679 c 0.11989,0 0.19844,0.07028 0.19844,0.181901 0,0.107487 -0.0786,0.181901 -0.19844,0.181901 -0.12402,0 -0.20257,-0.07441 -0.20257,-0.181901 0,-0.111621 0.0786,-0.181901 0.20257,-0.181901 z m 0,0.483691 c 0.14056,0 0.23978,0.09095 0.23978,0.227376 0,0.136426 -0.0992,0.227377 -0.24391,0.227377 -0.14056,0 -0.23978,-0.09095 -0.23978,-0.227377 0,-0.136425 0.0992,-0.227376 0.24391,-0.227376 z m 0,0"
       style="fill:#000000;fill-opacity:1;fill-rule:nonzero;stroke:none;stroke-width:0.315527"
       aria-label="128" />
    <path
       id="path1982"
       d="M 359.87591,88.265896 V 87.530404"
       style="fill:none;stroke:#000000;stroke-width:0.116745;stroke-linecap:butt;stroke-linejoin:miter;stroke-miterlimit:3.8;stroke-dasharray:none;stroke-opacity:1" />
    <path
       id="path1983"
       d="m 359.87591,36.629659 v 0.735492"
       style="fill:none;stroke:#000000;stroke-width:0.116745;stroke-linecap:butt;stroke-linejoin:miter;stroke-miterlimit:3.8;stroke-dasharray:none;stroke-opacity:1" />
    <path
       id="path1984"
       d="m 359.33931,90.297185 h -0.60772 c 0.0124,-0.09508 0.0661,-0.157096 0.20671,-0.239778 l 0.16536,-0.08682 c 0.16123,-0.09095 0.24392,-0.21084 0.24392,-0.351399 0,-0.09508 -0.0413,-0.186036 -0.10749,-0.248047 -0.0703,-0.06201 -0.15296,-0.09095 -0.26458,-0.09095 -0.1447,0 -0.25632,0.05374 -0.31833,0.148828 -0.0413,0.06201 -0.0579,0.136426 -0.062,0.252181 h 0.14469 c 0.004,-0.07855 0.0124,-0.124023 0.0331,-0.16123 0.0372,-0.07028 0.11163,-0.115755 0.19844,-0.115755 0.13229,0 0.22738,0.09508 0.22738,0.219108 0,0.09095 -0.0538,0.169498 -0.1571,0.227376 l -0.14883,0.08682 c -0.23978,0.136426 -0.31006,0.243913 -0.32659,0.500228 h 0.77308 z m 0.85989,-1.016992 h -0.59944 l -0.0827,0.628386 h 0.1323 c 0.0661,-0.07855 0.11989,-0.107487 0.21084,-0.107487 0.15296,0 0.25218,0.107487 0.25218,0.276985 0,0.169499 -0.0951,0.268718 -0.25218,0.268718 -0.12816,0 -0.20258,-0.06201 -0.23565,-0.194304 h -0.14469 c 0.0207,0.09508 0.0372,0.14056 0.0703,0.186035 0.0661,0.08682 0.1819,0.136426 0.31419,0.136426 0.23151,0 0.39688,-0.169498 0.39688,-0.413411 0,-0.231511 -0.15297,-0.384473 -0.37621,-0.384473 -0.0827,0 -0.14469,0.02067 -0.21497,0.07028 l 0.0455,-0.326595 h 0.48369 z m 0.94568,0.301791 c -0.0289,-0.19017 -0.15296,-0.301791 -0.33073,-0.301791 -0.12402,0 -0.23978,0.06201 -0.31006,0.165365 -0.0703,0.111621 -0.10335,0.252181 -0.10335,0.463021 0,0.194303 0.0289,0.318326 0.0992,0.421679 0.062,0.09508 0.16123,0.144694 0.28939,0.144694 0.21911,0 0.38034,-0.16123 0.38034,-0.388606 0,-0.214974 -0.14883,-0.367937 -0.35554,-0.367937 -0.11575,0 -0.20257,0.04134 -0.26458,0.128158 0,-0.28112 0.0909,-0.438216 0.25631,-0.438216 0.0992,0 0.1695,0.06201 0.19431,0.173633 z m -0.34726,0.264583 c 0.13642,0 0.22324,0.09508 0.22324,0.248047 0,0.148828 -0.0992,0.252181 -0.23151,0.252181 -0.13229,0 -0.23151,-0.111621 -0.23151,-0.260449 0,-0.14056 0.0951,-0.239779 0.23978,-0.239779 z m 0,0"
       style="fill:#000000;fill-opacity:1;fill-rule:nonzero;stroke:none;stroke-width:0.315527"
       aria-label="256" />
    <path
       id="path1985"
       d="M 370.453,88.265896 V 87.530404"
       style="fill:none;stroke:#000000;stroke-width:0.116745;stroke-linecap:butt;stroke-linejoin:miter;stroke-miterlimit:3.8;stroke-dasharray:none;stroke-opacity:1" />
    <path
       id="path1986"
       d="m 370.453,36.629659 v 0.735492"
       style="fill:none;stroke:#000000;stroke-width:0.116745;stroke-linecap:butt;stroke-linejoin:miter;stroke-miterlimit:3.8;stroke-dasharray:none;stroke-opacity:1" />
    <path
       id="path1987"
       d="m 369.86681,89.280193 h -0.59945 l -0.0827,0.628386 h 0.13229 c 0.0661,-0.07855 0.11989,-0.107487 0.21084,-0.107487 0.15296,0 0.25218,0.107487 0.25218,0.276985 0,0.169499 -0.0951,0.268718 -0.25218,0.268718 -0.12816,0 -0.20257,-0.06201 -0.23564,-0.194304 h -0.1447 c 0.0207,0.09508 0.0372,0.14056 0.0703,0.186035 0.0661,0.08682 0.1819,0.136426 0.3142,0.136426 0.23151,0 0.39687,-0.169498 0.39687,-0.413411 0,-0.231511 -0.15296,-0.384473 -0.3762,-0.384473 -0.0827,0 -0.1447,0.02067 -0.21498,0.07028 l 0.0455,-0.326595 h 0.48369 z m 0.55397,0.334863 v 0.822689 h 0.14469 v -1.157552 h -0.0951 c -0.0496,0.177767 -0.0827,0.202572 -0.30592,0.231511 v 0.103352 z m 1.31362,0.682129 h -0.60772 c 0.0124,-0.09508 0.0661,-0.157096 0.20671,-0.239778 l 0.16536,-0.08682 c 0.16123,-0.09095 0.24391,-0.21084 0.24391,-0.351399 0,-0.09508 -0.0413,-0.186036 -0.10748,-0.248047 -0.0703,-0.06201 -0.15297,-0.09095 -0.26459,-0.09095 -0.14469,0 -0.25631,0.05374 -0.31832,0.148828 -0.0413,0.06201 -0.0579,0.136426 -0.062,0.252181 h 0.1447 c 0.004,-0.07855 0.0124,-0.124023 0.0331,-0.16123 0.0372,-0.07028 0.11162,-0.115755 0.19844,-0.115755 0.13229,0 0.22738,0.09508 0.22738,0.219108 0,0.09095 -0.0537,0.169498 -0.1571,0.227376 l -0.14883,0.08682 c -0.23978,0.136426 -0.31006,0.243913 -0.32659,0.500228 h 0.77308 z m 0,0"
       style="fill:#000000;fill-opacity:1;fill-rule:nonzero;stroke:none;stroke-width:0.315527"
       aria-label="512" />
    <path
       id="path1988"
       d="m 370.45324,36.629239 h -74.07479 v 51.63637 h 74.07479 z m -73.60187,-1.439274 z"
       style="fill:none;stroke:#000000;stroke-width:0.124002;stroke-linecap:butt;stroke-linejoin:miter;stroke-miterlimit:3.8;stroke-dasharray:none;stroke-opacity:1" />
    <path
       id="path1989"
       d="m 290.56623,63.884329 v 0.496094 h 0.13229 v -0.363802 h 0.0331 c 0.21498,0 0.36794,0.157096 0.36794,0.376204 0,0.11989 -0.0455,0.227376 -0.12402,0.297656 -0.0827,0.07855 -0.22325,0.128158 -0.37207,0.128158 -0.29353,0 -0.4837,-0.165365 -0.4837,-0.417546 0,-0.181901 0.091,-0.314192 0.24392,-0.347265 v -0.152962 c -0.23978,0.04134 -0.38034,0.223242 -0.38034,0.496093 0,0.148828 0.0372,0.264584 0.11575,0.355534 0.11576,0.14056 0.29766,0.219108 0.51263,0.219108 0.36381,0 0.62012,-0.223242 0.62012,-0.545703 0,-0.16123 -0.062,-0.293522 -0.19017,-0.409277 l 0.16123,-0.03721 v -0.09508 z m -0.22738,-0.535368 v 0.14056 h -0.13229 c -0.0579,0 -0.0868,-0.02894 -0.0868,-0.09095 0,-0.0124 0,-0.01654 0,-0.04961 h -0.11162 c -0.008,0.03307 -0.008,0.04961 -0.008,0.07855 0,0.124024 0.0703,0.198438 0.1943,0.198438 h 0.14469 v 0.115755 h 0.11162 v -0.115755 h 0.74414 v -0.136426 h -0.74414 v -0.14056 z m -0.33486,-0.28112 v 0.136426 h 1.19062 v -0.136426 z m 0.31006,-0.557072 c 0,0.239779 0.17363,0.384473 0.45888,0.384473 0.28939,0 0.45889,-0.144694 0.45889,-0.388607 0,-0.239778 -0.1695,-0.384472 -0.45062,-0.384472 -0.29765,0 -0.46715,0.14056 -0.46715,0.388606 z m 0.12816,-0.0041 c 0,-0.152962 0.12402,-0.243912 0.33486,-0.243912 0.20257,0 0.33073,0.09508 0.33073,0.243912 0,0.152963 -0.12816,0.243913 -0.33487,0.243913 -0.2067,0 -0.33072,-0.09095 -0.33072,-0.243913 z m 1.10794,-0.548803 v -0.14056 h -0.44649 c 0.091,-0.07028 0.12816,-0.148828 0.12816,-0.260449 0,-0.219108 -0.17777,-0.367937 -0.45062,-0.367937 -0.28525,0 -0.46715,0.14056 -0.46715,0.367937 0,0.115755 0.0537,0.210839 0.15296,0.272851 h -0.12816 v 0.128158 z m -1.10794,-0.376205 c 0,-0.152962 0.13229,-0.248047 0.33486,-0.248047 0.1943,0 0.32659,0.09922 0.32659,0.248047 0,0.144694 -0.12815,0.235645 -0.33073,0.235645 -0.19843,0 -0.33072,-0.09095 -0.33072,-0.235645 z m -0.43822,-0.817521 1.2237,0.384473 v -0.09095 l -1.2237,-0.384472 z m 0.57464,-0.797884 c -0.1695,0 -0.26458,0.111621 -0.26458,0.310059 0,0.198437 0.10335,0.326595 0.26045,0.326595 0.13642,0 0.19843,-0.06615 0.24804,-0.268718 l 0.0289,-0.128157 c 0.0248,-0.09508 0.0579,-0.132292 0.11989,-0.132292 0.0827,0 0.13643,0.07855 0.13643,0.198438 0,0.07441 -0.0207,0.136425 -0.0579,0.169498 -0.0248,0.02067 -0.0496,0.03307 -0.11162,0.04134 v 0.144694 c 0.19844,-0.0083 0.29352,-0.119889 0.29352,-0.343131 0,-0.214974 -0.10749,-0.3514 -0.26872,-0.3514 -0.12815,0 -0.19843,0.07028 -0.23977,0.239779 l -0.0331,0.132291 c -0.0248,0.111621 -0.062,0.157097 -0.11989,0.157097 -0.0786,0 -0.12815,-0.07028 -0.12815,-0.181901 0,-0.107487 0.0455,-0.165365 0.13642,-0.169499 z m 0,0"
       style="fill:#000000;fill-opacity:1;fill-rule:nonzero;stroke:none;stroke-width:0.315527"
       aria-label="Gflop/s" />
    <path
       id="path1990"
       d="m 330.27028,92.888243 0.33486,-0.996322 v 0.996322 h 0.14469 v -1.190625 h -0.21084 l -0.34726,1.037662 -0.3514,-1.037662 h -0.21084 v 1.190625 h 0.14056 v -0.996322 l 0.33899,0.996322 z m 1.46864,-0.07855 c -0.0124,0 -0.0207,0 -0.0289,0 -0.0455,0 -0.0744,-0.02067 -0.0744,-0.06614 v -0.500228 c 0,-0.152962 -0.10749,-0.235645 -0.31833,-0.235645 -0.12402,0 -0.22738,0.03721 -0.28525,0.09922 -0.0414,0.04548 -0.0579,0.09509 -0.0579,0.177767 h 0.13642 c 0.0124,-0.103353 0.0744,-0.148828 0.19844,-0.148828 0.12402,0 0.1943,0.04547 0.1943,0.124023 v 0.03721 c 0,0.05788 -0.0372,0.08268 -0.14469,0.09508 -0.19017,0.0248 -0.21911,0.02894 -0.27285,0.05374 -0.0992,0.03721 -0.14883,0.115756 -0.14883,0.227377 0,0.152962 0.10749,0.252181 0.28112,0.252181 0.10749,0 0.1943,-0.03721 0.28939,-0.124024 0.008,0.08682 0.0496,0.124024 0.14056,0.124024 0.0289,0 0.0496,-0.0041 0.091,-0.0124 z m -0.23565,-0.190169 c 0,0.04548 -0.0165,0.07441 -0.0537,0.111621 -0.0579,0.04961 -0.12402,0.07441 -0.20257,0.07441 -0.10749,0 -0.1695,-0.04961 -0.1695,-0.136425 0,-0.09095 0.062,-0.136426 0.20671,-0.157097 0.14056,-0.02067 0.17363,-0.0248 0.2191,-0.04548 z m 0.68523,-0.587044 h -0.14056 v -0.235645 h -0.13229 v 0.235645 h -0.11575 v 0.111621 h 0.11575 v 0.644922 c 0,0.08682 0.0579,0.136426 0.16123,0.136426 0.0331,0 0.0661,-0.0041 0.11162,-0.0124 v -0.111621 c -0.0165,0.0041 -0.0372,0.0041 -0.062,0.0041 -0.062,0 -0.0786,-0.01654 -0.0786,-0.07441 v -0.587044 h 0.14056 z m 0.15297,0 v 0.855762 h 0.13642 v -0.442351 c 0,-0.124023 0.0331,-0.202571 0.0992,-0.252181 0.0413,-0.02894 0.0827,-0.04134 0.17777,-0.04134 v -0.14056 c -0.0248,-0.0041 -0.0331,-0.0041 -0.0538,-0.0041 -0.0868,0 -0.15296,0.05374 -0.23151,0.181901 v -0.157096 z m 0.67696,0 H 332.882 v 0.855762 h 0.13643 z m 0,-0.334863 H 332.882 v 0.173632 h 0.13643 z m 0.59428,0.748274 0.28938,-0.413411 h -0.15296 l -0.2067,0.310058 -0.20671,-0.310058 h -0.15296 l 0.28525,0.42168 -0.30179,0.434082 h 0.15296 l 0.21911,-0.326595 0.21498,0.326595 h 0.15709 z m 1.51102,-0.173632 c 0,-0.169499 -0.11163,-0.264584 -0.31006,-0.264584 -0.19844,0 -0.3266,0.103353 -0.3266,0.260449 0,0.136426 0.0661,0.198438 0.26872,0.248047 l 0.12816,0.02894 c 0.0951,0.02481 0.13229,0.05788 0.13229,0.11989 0,0.08268 -0.0786,0.136425 -0.19844,0.136425 -0.0744,0 -0.13642,-0.02067 -0.1695,-0.05788 -0.0207,-0.02481 -0.0331,-0.04961 -0.0413,-0.111621 h -0.14469 c 0.008,0.198437 0.11989,0.293522 0.34313,0.293522 0.21497,0 0.3514,-0.107487 0.3514,-0.268718 0,-0.128157 -0.0703,-0.198437 -0.23978,-0.239778 l -0.13229,-0.03307 c -0.11162,-0.02481 -0.1571,-0.06201 -0.1571,-0.11989 0,-0.07855 0.0703,-0.128157 0.1819,-0.128157 0.10749,0 0.16537,0.04547 0.1695,0.136426 z m 0.34623,-0.239779 h -0.13643 v 0.855762 h 0.13643 z m 0,-0.334863 h -0.13643 v 0.173632 h 0.13643 z m 0.84232,0.334863 h -0.63665 v 0.119889 h 0.47542 l -0.51263,0.611849 v 0.124024 h 0.69867 v -0.11989 h -0.5333 l 0.50849,-0.615983 z m 0.93328,0.475423 c 0,-0.132292 -0.0124,-0.21084 -0.0372,-0.272851 -0.0537,-0.14056 -0.18603,-0.227377 -0.34313,-0.227377 -0.23978,0 -0.39274,0.181901 -0.39274,0.463021 0,0.28112 0.14883,0.454753 0.38861,0.454753 0.1943,0 0.33073,-0.111621 0.3638,-0.297657 h -0.13643 c -0.0372,0.111621 -0.11575,0.173633 -0.22324,0.173633 -0.0868,0 -0.16123,-0.04134 -0.2067,-0.111621 -0.0331,-0.04961 -0.0414,-0.09922 -0.0455,-0.181901 z m -0.62839,-0.111621 c 0.0124,-0.16123 0.10749,-0.260449 0.24392,-0.260449 0.13642,0 0.23564,0.107487 0.23564,0.248047 0,0.0041 0,0.0083 0,0.0124 z m 0,0"
       style="fill:#000000;fill-opacity:1;fill-rule:nonzero;stroke:none;stroke-width:0.315527"
       aria-label="Matrix size" />
    <path
       id="path1991"
       d="m 300.90048,37.879714 c 0,-0.235644 -0.16123,-0.37207 -0.43408,-0.37207 -0.26045,0 -0.42168,0.136426 -0.42168,0.3514 0,0.144694 0.0744,0.235644 0.23151,0.276985 l 0.29766,0.07855 c 0.14883,0.03721 0.21911,0.09922 0.21911,0.194303 0,0.06201 -0.0372,0.128158 -0.0868,0.16123 -0.0455,0.03307 -0.12402,0.05374 -0.21911,0.05374 -0.12815,0 -0.21497,-0.03307 -0.27285,-0.09922 -0.0455,-0.05374 -0.0661,-0.111621 -0.062,-0.186035 h -0.14469 c 0,0.111621 0.0207,0.181901 0.0703,0.248047 0.0827,0.111621 0.2191,0.169499 0.401,0.169499 0.14056,0 0.25632,-0.03307 0.33487,-0.09095 0.0786,-0.06201 0.12816,-0.169499 0.12816,-0.272851 0,-0.148829 -0.091,-0.256316 -0.25219,-0.297657 l -0.29765,-0.08268 c -0.1447,-0.03721 -0.19844,-0.08268 -0.19844,-0.173633 0,-0.124023 0.10749,-0.202571 0.26872,-0.202571 0.19017,0 0.29352,0.08682 0.29765,0.243912 z m 1.09038,0 c 0,-0.235644 -0.16123,-0.37207 -0.43409,-0.37207 -0.26044,0 -0.42167,0.136426 -0.42167,0.3514 0,0.144694 0.0744,0.235644 0.23151,0.276985 l 0.29765,0.07855 c 0.14883,0.03721 0.21911,0.09922 0.21911,0.194303 0,0.06201 -0.0372,0.128158 -0.0868,0.16123 -0.0455,0.03307 -0.12402,0.05374 -0.2191,0.05374 -0.12816,0 -0.21498,-0.03307 -0.27286,-0.09922 -0.0455,-0.05374 -0.0661,-0.111621 -0.062,-0.186035 h -0.14469 c 0,0.111621 0.0207,0.181901 0.0703,0.248047 0.0827,0.111621 0.21911,0.169499 0.40101,0.169499 0.14056,0 0.25631,-0.03307 0.33486,-0.09095 0.0786,-0.06201 0.12816,-0.169499 0.12816,-0.272851 0,-0.148829 -0.0909,-0.256316 -0.25218,-0.297657 l -0.29766,-0.08268 c -0.14469,-0.03721 -0.19844,-0.08268 -0.19844,-0.173633 0,-0.124023 0.10749,-0.202571 0.26872,-0.202571 0.19017,0 0.29352,0.08682 0.29766,0.243912 z m 0.41548,0.297657 h 0.64905 v -0.136426 h -0.64905 v -0.380339 h 0.67386 v -0.132291 h -0.82269 v 1.190625 h 0.85162 v -0.132292 h -0.70279 z m 1.92133,-0.314193 v 0.124023 c -0.0703,-0.09922 -0.15297,-0.148828 -0.26045,-0.148828 -0.21911,0 -0.36794,0.190169 -0.36794,0.467155 0,0.14056 0.0413,0.256315 0.11162,0.334863 0.062,0.07441 0.15296,0.115756 0.24391,0.115756 0.10749,0 0.1819,-0.04548 0.26045,-0.152963 v 0.04548 c 0,0.115755 -0.0165,0.186035 -0.0496,0.23151 -0.0372,0.04961 -0.10748,0.07855 -0.19017,0.07855 -0.062,0 -0.11989,-0.0124 -0.15709,-0.04547 -0.0289,-0.02481 -0.0413,-0.04548 -0.0496,-0.09509 h -0.14056 c 0.0165,0.161231 0.14056,0.256315 0.34313,0.256315 0.12816,0 0.23564,-0.04134 0.28939,-0.107487 0.0661,-0.07855 0.0909,-0.186035 0.0909,-0.388606 v -0.715202 z m -0.24805,0.103353 c 0.14883,0 0.23564,0.124023 0.23564,0.334863 0,0.206706 -0.091,0.330729 -0.23564,0.330729 -0.1447,0 -0.23565,-0.128157 -0.23565,-0.334863 0,-0.206706 0.0909,-0.330729 0.23565,-0.330729 z m 1.32188,0.37207 c 0,-0.132292 -0.0124,-0.21084 -0.0372,-0.272852 -0.0537,-0.140559 -0.18603,-0.227376 -0.34313,-0.227376 -0.23978,0 -0.39274,0.181901 -0.39274,0.463021 0,0.28112 0.14883,0.454753 0.38861,0.454753 0.1943,0 0.33073,-0.111621 0.3638,-0.297657 h -0.13642 c -0.0372,0.111621 -0.11576,0.173633 -0.22325,0.173633 -0.0868,0 -0.16123,-0.04134 -0.2067,-0.111621 -0.0331,-0.04961 -0.0413,-0.09922 -0.0455,-0.181901 z m -0.62838,-0.111621 c 0.0124,-0.161231 0.10748,-0.260449 0.24391,-0.260449 0.13642,0 0.23564,0.107487 0.23564,0.248047 0,0.0041 0,0.0083 0,0.0124 z m 0.81338,-0.363802 v 0.855762 h 0.13643 v -0.471289 c 0,-0.173633 0.0909,-0.289389 0.23151,-0.289389 0.10749,0 0.17777,0.06615 0.17777,0.169499 v 0.591179 h 0.13229 v -0.644922 c 0,-0.144694 -0.10335,-0.235645 -0.26872,-0.235645 -0.12816,0 -0.21084,0.04961 -0.28525,0.169499 v -0.144694 z m 1.63298,0.475423 c 0,-0.132292 -0.0124,-0.21084 -0.0372,-0.272852 -0.0537,-0.140559 -0.18603,-0.227376 -0.34313,-0.227376 -0.23978,0 -0.39274,0.181901 -0.39274,0.463021 0,0.28112 0.14883,0.454753 0.38861,0.454753 0.1943,0 0.33072,-0.111621 0.3638,-0.297657 h -0.13643 c -0.0372,0.111621 -0.11575,0.173633 -0.22324,0.173633 -0.0868,0 -0.16123,-0.04134 -0.20671,-0.111621 -0.0331,-0.04961 -0.0413,-0.09922 -0.0455,-0.181901 z m -0.62839,-0.111621 c 0.0124,-0.161231 0.10749,-0.260449 0.24392,-0.260449 0.13642,0 0.23564,0.107487 0.23564,0.248047 0,0.0041 0,0.0083 0,0.0124 z m 0.80926,-0.363802 v 0.855762 h 0.13642 v -0.442351 c 0,-0.124023 0.0331,-0.202571 0.0992,-0.252181 0.0413,-0.02894 0.0827,-0.04134 0.17777,-0.04134 v -0.14056 c -0.0248,-0.0041 -0.0331,-0.0041 -0.0537,-0.0041 -0.0868,0 -0.15296,0.05374 -0.23151,0.181901 v -0.157096 z m 1.30431,0.777213 c -0.0124,0 -0.0207,0 -0.0289,0 -0.0455,0 -0.0744,-0.02067 -0.0744,-0.06614 v -0.500228 c 0,-0.152963 -0.10748,-0.235645 -0.31832,-0.235645 -0.12403,0 -0.22738,0.03721 -0.28526,0.09922 -0.0413,0.04547 -0.0579,0.09508 -0.0579,0.177767 h 0.13642 c 0.0124,-0.103353 0.0744,-0.148828 0.19844,-0.148828 0.12402,0 0.1943,0.04547 0.1943,0.124023 v 0.03721 c 0,0.05788 -0.0372,0.08268 -0.14469,0.09508 -0.19017,0.0248 -0.21911,0.02894 -0.27285,0.05374 -0.0992,0.03721 -0.14883,0.115756 -0.14883,0.227377 0,0.152962 0.10749,0.252181 0.28112,0.252181 0.10749,0 0.1943,-0.03721 0.28939,-0.124024 0.008,0.08682 0.0496,0.124024 0.14056,0.124024 0.0289,0 0.0496,-0.0041 0.0909,-0.0124 z m -0.23565,-0.190169 c 0,0.04548 -0.0165,0.07441 -0.0537,0.111621 -0.0579,0.04961 -0.12402,0.07441 -0.20257,0.07441 -0.10749,0 -0.1695,-0.04961 -0.1695,-0.136426 0,-0.09095 0.062,-0.136425 0.20671,-0.157096 0.14056,-0.02067 0.17363,-0.0248 0.2191,-0.04547 z m 0.68627,-0.587044 h -0.14056 v -0.235645 h -0.13229 v 0.235645 h -0.11576 v 0.111621 h 0.11576 v 0.644922 c 0,0.08682 0.0579,0.136426 0.16123,0.136426 0.0331,0 0.0661,-0.0041 0.11162,-0.0124 v -0.111621 c -0.0165,0.0041 -0.0372,0.0041 -0.062,0.0041 -0.062,0 -0.0786,-0.01654 -0.0786,-0.07441 v -0.587044 h 0.14056 z m 0.87953,0.475423 c 0,-0.132292 -0.0124,-0.21084 -0.0372,-0.272852 -0.0537,-0.140559 -0.18603,-0.227376 -0.34313,-0.227376 -0.23978,0 -0.39274,0.181901 -0.39274,0.463021 0,0.28112 0.14883,0.454753 0.38861,0.454753 0.1943,0 0.33073,-0.111621 0.3638,-0.297657 h -0.13643 c -0.0372,0.111621 -0.11575,0.173633 -0.22324,0.173633 -0.0868,0 -0.16123,-0.04134 -0.2067,-0.111621 -0.0331,-0.04961 -0.0413,-0.09922 -0.0455,-0.181901 z m -0.62839,-0.111621 c 0.0124,-0.161231 0.10749,-0.260449 0.24392,-0.260449 0.13642,0 0.23564,0.107487 0.23564,0.248047 0,0.0041 0,0.0083 0,0.0124 z m 1.50896,-0.698665 h -0.13643 v 0.44235 c -0.0579,-0.08682 -0.14883,-0.132292 -0.26458,-0.132292 -0.22324,0 -0.36794,0.177767 -0.36794,0.450619 0,0.289388 0.1447,0.467155 0.37207,0.467155 0.11989,0 0.20257,-0.04548 0.27285,-0.148829 v 0.111622 h 0.12403 z m -0.37621,0.438216 c 0.1447,0 0.23978,0.132291 0.23978,0.334863 0,0.198437 -0.0951,0.326595 -0.23978,0.326595 -0.14883,0 -0.24804,-0.132292 -0.24804,-0.330729 0,-0.198438 0.0992,-0.330729 0.24804,-0.330729 z m 1.69706,0.186035 c -0.008,-0.08682 -0.0248,-0.14056 -0.0579,-0.186035 -0.0579,-0.07855 -0.16123,-0.128158 -0.28112,-0.128158 -0.22738,0 -0.38034,0.181901 -0.38034,0.467155 0,0.276986 0.14883,0.450619 0.38034,0.450619 0.20257,0 0.33073,-0.124024 0.34726,-0.33073 h -0.13642 c -0.0207,0.136426 -0.091,0.206706 -0.20671,0.206706 -0.15296,0 -0.23978,-0.124023 -0.23978,-0.326595 0,-0.214974 0.0868,-0.338997 0.23565,-0.338997 0.11575,0 0.18603,0.06615 0.20257,0.186035 z m 0.49092,-0.314193 c -0.23978,0 -0.38447,0.173633 -0.38447,0.458887 0,0.289388 0.14469,0.458887 0.38861,0.458887 0.23978,0 0.38447,-0.169499 0.38447,-0.450619 0,-0.297656 -0.14056,-0.467155 -0.38861,-0.467155 z m 0.004,0.128158 c 0.15296,0 0.24391,0.124023 0.24391,0.334863 0,0.202572 -0.0951,0.330729 -0.24391,0.330729 -0.15297,0 -0.24392,-0.128157 -0.24392,-0.334863 0,-0.206706 0.091,-0.330729 0.24392,-0.330729 z m 1.27227,-0.438216 h -0.13643 v 0.44235 c -0.0579,-0.08682 -0.14882,-0.132292 -0.26458,-0.132292 -0.22324,0 -0.36794,0.177767 -0.36794,0.450619 0,0.289388 0.1447,0.467155 0.37207,0.467155 0.11989,0 0.20258,-0.04548 0.27286,-0.148829 v 0.111622 h 0.12402 z m -0.3762,0.438216 c 0.14469,0 0.23977,0.132291 0.23977,0.334863 0,0.198437 -0.0951,0.326595 -0.23977,0.326595 -0.14883,0 -0.24805,-0.132292 -0.24805,-0.330729 0,-0.198438 0.0992,-0.330729 0.24805,-0.330729 z m 1.31464,0.37207 c 0,-0.132292 -0.0124,-0.21084 -0.0372,-0.272852 -0.0538,-0.140559 -0.18604,-0.227376 -0.34313,-0.227376 -0.23978,0 -0.39275,0.181901 -0.39275,0.463021 0,0.28112 0.14883,0.454753 0.38861,0.454753 0.1943,0 0.33073,-0.111621 0.3638,-0.297657 h -0.13642 c -0.0372,0.111621 -0.11576,0.173633 -0.22324,0.173633 -0.0868,0 -0.16124,-0.04134 -0.20671,-0.111621 -0.0331,-0.04961 -0.0413,-0.09922 -0.0455,-0.181901 z m -0.62838,-0.111621 c 0.0124,-0.161231 0.10749,-0.260449 0.24391,-0.260449 0.13643,0 0.23565,0.107487 0.23565,0.248047 0,0.0041 0,0.0083 0,0.0124 z m 0,0"
       style="fill:#000000;fill-opacity:1;fill-rule:nonzero;stroke:none;stroke-width:0.315527"
       aria-label="SSE generated code" />
    <path
       id="path1992"
       d="m 315.99164,38.181982 h 4.65813"
       style="fill:none;stroke:#ff0000;stroke-width:0.146089;stroke-linecap:butt;stroke-linejoin:miter;stroke-miterlimit:3.8;stroke-dasharray:none;stroke-opacity:1" />
    <path
       id="path1993"
       d="m 296.37848,82.066464 10.57711,-8.253879 10.58878,-12.39833 10.5771,-2.066389 10.58879,11.359299 10.5771,-5.160134 10.58878,3.093746 10.57711,-3.093746"
       style="fill:none;stroke:#ff0000;stroke-width:0.146089;stroke-linecap:butt;stroke-linejoin:miter;stroke-miterlimit:3.8;stroke-dasharray:none;stroke-opacity:1" />
    <path
       id="path1994"
       d="M 296.37848,82.434058 V 81.698564"
       style="fill:none;stroke:#ff0000;stroke-width:0.146089;stroke-linecap:butt;stroke-linejoin:miter;stroke-miterlimit:3.8;stroke-dasharray:none;stroke-opacity:1" />
    <path
       id="path1995"
       d="m 296.01086,82.066464 h 0.73549"
       style="fill:none;stroke:#ff0000;stroke-width:0.146089;stroke-linecap:butt;stroke-linejoin:miter;stroke-miterlimit:3.8;stroke-dasharray:none;stroke-opacity:1" />
    <path
       id="path1996"
       d="M 306.95588,74.180182 V 73.444688"
       style="fill:none;stroke:#ff0000;stroke-width:0.146089;stroke-linecap:butt;stroke-linejoin:miter;stroke-miterlimit:3.8;stroke-dasharray:none;stroke-opacity:1" />
    <path
       id="path1997"
       d="m 306.58798,73.812589 h 0.73549"
       style="fill:none;stroke:#ff0000;stroke-width:0.146089;stroke-linecap:butt;stroke-linejoin:miter;stroke-miterlimit:3.8;stroke-dasharray:none;stroke-opacity:1" />
    <path
       id="path1998"
       d="M 317.54467,61.781847 V 61.046353"
       style="fill:none;stroke:#ff0000;stroke-width:0.146089;stroke-linecap:butt;stroke-linejoin:miter;stroke-miterlimit:3.8;stroke-dasharray:none;stroke-opacity:1" />
    <path
       id="path1999"
       d="m 317.17676,61.414261 h 0.73549"
       style="fill:none;stroke:#ff0000;stroke-width:0.146089;stroke-linecap:butt;stroke-linejoin:miter;stroke-miterlimit:3.8;stroke-dasharray:none;stroke-opacity:1" />
    <path
       id="path2000"
       d="M 328.12178,59.715459 V 58.979965"
       style="fill:none;stroke:#ff0000;stroke-width:0.146089;stroke-linecap:butt;stroke-linejoin:miter;stroke-miterlimit:3.8;stroke-dasharray:none;stroke-opacity:1" />
    <path
       id="path2001"
       d="m 327.75385,59.347871 h 0.73549"
       style="fill:none;stroke:#ff0000;stroke-width:0.146089;stroke-linecap:butt;stroke-linejoin:miter;stroke-miterlimit:3.8;stroke-dasharray:none;stroke-opacity:1" />
    <path
       id="path2002"
       d="M 338.71056,71.07476 V 70.339266"
       style="fill:none;stroke:#ff0000;stroke-width:0.146089;stroke-linecap:butt;stroke-linejoin:miter;stroke-miterlimit:3.8;stroke-dasharray:none;stroke-opacity:1" />
    <path
       id="path2003"
       d="m 338.34264,70.707169 h 0.73549"
       style="fill:none;stroke:#ff0000;stroke-width:0.146089;stroke-linecap:butt;stroke-linejoin:miter;stroke-miterlimit:3.8;stroke-dasharray:none;stroke-opacity:1" />
    <path
       id="path2004"
       d="M 349.28765,65.914628 V 65.179134"
       style="fill:none;stroke:#ff0000;stroke-width:0.146089;stroke-linecap:butt;stroke-linejoin:miter;stroke-miterlimit:3.8;stroke-dasharray:none;stroke-opacity:1" />
    <path
       id="path2005"
       d="m 348.91975,65.547035 h 0.73549"
       style="fill:none;stroke:#ff0000;stroke-width:0.146089;stroke-linecap:butt;stroke-linejoin:miter;stroke-miterlimit:3.8;stroke-dasharray:none;stroke-opacity:1" />
    <path
       id="path2006"
       d="M 359.87644,69.008369 V 68.272875"
       style="fill:none;stroke:#ff0000;stroke-width:0.146089;stroke-linecap:butt;stroke-linejoin:miter;stroke-miterlimit:3.8;stroke-dasharray:none;stroke-opacity:1" />
    <path
       id="path2007"
       d="m 359.50853,68.640784 h 0.73549"
       style="fill:none;stroke:#ff0000;stroke-width:0.146089;stroke-linecap:butt;stroke-linejoin:miter;stroke-miterlimit:3.8;stroke-dasharray:none;stroke-opacity:1" />
    <path
       id="path2008"
       d="M 370.45355,65.914628 V 65.179134"
       style="fill:none;stroke:#ff0000;stroke-width:0.146089;stroke-linecap:butt;stroke-linejoin:miter;stroke-miterlimit:3.8;stroke-dasharray:none;stroke-opacity:1" />
    <path
       id="path2009"
       d="m 370.08565,65.547035 h 0.73549"
       style="fill:none;stroke:#ff0000;stroke-width:0.146089;stroke-linecap:butt;stroke-linejoin:miter;stroke-miterlimit:3.8;stroke-dasharray:none;stroke-opacity:1" />
    <path
       id="path2010"
       d="M 318.31519,38.549573 V 37.814079"
       style="fill:none;stroke:#ff0000;stroke-width:0.146089;stroke-linecap:butt;stroke-linejoin:miter;stroke-miterlimit:3.8;stroke-dasharray:none;stroke-opacity:1" />
    <path
       id="path2011"
       d="m 317.94728,38.181982 h 0.73549"
       style="fill:none;stroke:#ff0000;stroke-width:0.146089;stroke-linecap:butt;stroke-linejoin:miter;stroke-miterlimit:3.8;stroke-dasharray:none;stroke-opacity:1" />
    <path
       id="path2012"
       d="m 304.08064,39.513722 c 0,-0.235644 -0.16123,-0.37207 -0.43408,-0.37207 -0.26045,0 -0.42168,0.136426 -0.42168,0.3514 0,0.144694 0.0744,0.235644 0.23151,0.276985 l 0.29766,0.07855 c 0.14883,0.03721 0.21911,0.09922 0.21911,0.194304 0,0.06201 -0.0372,0.128157 -0.0868,0.16123 -0.0455,0.03307 -0.12402,0.05374 -0.21911,0.05374 -0.12815,0 -0.21497,-0.03307 -0.27285,-0.09922 -0.0455,-0.05374 -0.0661,-0.111621 -0.062,-0.186035 h -0.14469 c 0,0.111621 0.0207,0.181901 0.0703,0.248047 0.0827,0.111621 0.2191,0.169498 0.401,0.169498 0.14056,0 0.25632,-0.03307 0.33487,-0.09095 0.0786,-0.06201 0.12816,-0.169499 0.12816,-0.272852 0,-0.148828 -0.091,-0.256315 -0.25219,-0.297656 l -0.29765,-0.08268 c -0.1447,-0.03721 -0.19844,-0.08268 -0.19844,-0.173633 0,-0.124023 0.10749,-0.202572 0.26872,-0.202572 0.19017,0 0.29352,0.08682 0.29765,0.243913 z m 1.09038,0 c 0,-0.235644 -0.16123,-0.37207 -0.43409,-0.37207 -0.26044,0 -0.42167,0.136426 -0.42167,0.3514 0,0.144694 0.0744,0.235644 0.23151,0.276985 l 0.29765,0.07855 c 0.14883,0.03721 0.21911,0.09922 0.21911,0.194304 0,0.06201 -0.0372,0.128157 -0.0868,0.16123 -0.0455,0.03307 -0.12402,0.05374 -0.2191,0.05374 -0.12816,0 -0.21498,-0.03307 -0.27286,-0.09922 -0.0455,-0.05374 -0.0661,-0.111621 -0.062,-0.186035 h -0.14469 c 0,0.111621 0.0207,0.181901 0.0703,0.248047 0.0827,0.111621 0.21911,0.169498 0.40101,0.169498 0.14056,0 0.25631,-0.03307 0.33486,-0.09095 0.0786,-0.06201 0.12816,-0.169499 0.12816,-0.272852 0,-0.148828 -0.0909,-0.256315 -0.25218,-0.297656 l -0.29766,-0.08268 c -0.14469,-0.03721 -0.19844,-0.08268 -0.19844,-0.173633 0,-0.124023 0.10749,-0.202572 0.26872,-0.202572 0.19017,0 0.29352,0.08682 0.29766,0.243913 z m 0.41651,0.297656 h 0.64906 v -0.136425 h -0.64906 v -0.380339 h 0.67386 v -0.132292 h -0.82269 v 1.190625 h 0.85163 v -0.132291 h -0.7028 z m 1.88309,-0.669726 c -0.34313,0 -0.57464,0.252181 -0.57464,0.624251 0,0.37207 0.23151,0.624251 0.57464,0.624251 0.14469,0 0.27285,-0.04548 0.36793,-0.124023 0.1323,-0.111621 0.20671,-0.293522 0.20671,-0.487826 0,-0.384472 -0.22738,-0.636653 -0.57464,-0.636653 z m 0,0.136426 c 0.25631,0 0.42168,0.194303 0.42168,0.496093 0,0.285254 -0.1695,0.483692 -0.42168,0.483692 -0.25218,0 -0.42168,-0.198438 -0.42168,-0.49196 0,-0.293522 0.1695,-0.487825 0.42168,-0.487825 z m 0.7214,1.430403 h 0.14056 v -0.446484 c 0.0703,0.09095 0.14883,0.128157 0.26045,0.128157 0.21911,0 0.36794,-0.177767 0.36794,-0.450618 0,-0.285254 -0.14056,-0.467155 -0.36794,-0.467155 -0.11576,0 -0.21084,0.05374 -0.27285,0.152962 v -0.128157 h -0.12816 z m 0.37621,-1.107942 c 0.15296,0 0.24804,0.132291 0.24804,0.334863 0,0.194303 -0.0992,0.326595 -0.24804,0.326595 -0.1447,0 -0.23565,-0.128158 -0.23565,-0.330729 0,-0.198438 0.091,-0.330729 0.23565,-0.330729 z m 1.28571,0.37207 c 0,-0.132292 -0.0124,-0.21084 -0.0372,-0.272852 -0.0537,-0.14056 -0.18604,-0.227376 -0.34313,-0.227376 -0.23978,0 -0.39274,0.181901 -0.39274,0.463021 0,0.28112 0.14882,0.454752 0.3886,0.454752 0.19431,0 0.33073,-0.111621 0.3638,-0.297656 h -0.13642 c -0.0372,0.111621 -0.11576,0.173633 -0.22324,0.173633 -0.0868,0 -0.16123,-0.04134 -0.20671,-0.111621 -0.0331,-0.04961 -0.0413,-0.09922 -0.0455,-0.181901 z m -0.62839,-0.111621 c 0.0124,-0.161231 0.10749,-0.260449 0.24391,-0.260449 0.13643,0 0.23565,0.107486 0.23565,0.248046 0,0.0041 0,0.0083 0,0.0124 z m 0.81339,-0.363802 v 0.855761 h 0.13642 v -0.471289 c 0,-0.173633 0.0909,-0.289388 0.23151,-0.289388 0.10749,0 0.17777,0.06615 0.17777,0.169499 v 0.591178 h 0.13229 v -0.644922 c 0,-0.144694 -0.10335,-0.235644 -0.26872,-0.235644 -0.12815,0 -0.21084,0.04961 -0.28525,0.169499 v -0.144694 z m 0.92087,0.855761 h 0.53744 c 0.11162,0 0.19843,-0.03307 0.26045,-0.09922 0.0579,-0.06201 0.091,-0.148829 0.091,-0.239779 0,-0.144694 -0.0661,-0.23151 -0.21498,-0.289388 0.10749,-0.04961 0.16123,-0.14056 0.16123,-0.260449 0,-0.08682 -0.0289,-0.161231 -0.0909,-0.219108 -0.062,-0.05788 -0.14469,-0.08268 -0.26045,-0.08268 h -0.48369 z m 0.15296,-0.677994 v -0.380339 h 0.29353 c 0.0868,0 0.13229,0.0124 0.17363,0.04547 0.0413,0.03307 0.0661,0.07855 0.0661,0.144694 0,0.06615 -0.0248,0.115756 -0.0661,0.148828 -0.0413,0.02894 -0.0868,0.04134 -0.17363,0.04134 z m 0,0.545703 v -0.413412 h 0.37207 c 0.0703,0 0.11989,0.02067 0.1571,0.05788 0.0372,0.03721 0.0537,0.09095 0.0537,0.148828 0,0.05788 -0.0165,0.111621 -0.0537,0.148828 -0.0372,0.03721 -0.0868,0.05788 -0.1571,0.05788 z m 1.09038,-1.058334 h -0.14883 v 1.190625 h 0.74 v -0.132291 h -0.59117 z m 1.40043,0.830957 0.12402,0.359668 h 0.1695 l -0.41755,-1.190625 h -0.19843 l -0.42168,1.190625 h 0.16123 l 0.12402,-0.359668 z m -0.0413,-0.124023 h -0.38034 l 0.19844,-0.541569 z m 1.33015,-0.355534 c 0,-0.235644 -0.16123,-0.37207 -0.43408,-0.37207 -0.26045,0 -0.42168,0.136426 -0.42168,0.3514 0,0.144694 0.0744,0.235644 0.23151,0.276985 l 0.29765,0.07855 c 0.14883,0.03721 0.21911,0.09922 0.21911,0.194304 0,0.06201 -0.0372,0.128157 -0.0868,0.16123 -0.0455,0.03307 -0.12402,0.05374 -0.2191,0.05374 -0.12816,0 -0.21498,-0.03307 -0.27286,-0.09922 -0.0455,-0.05374 -0.0661,-0.111621 -0.062,-0.186035 h -0.14469 c 0,0.111621 0.0207,0.181901 0.0703,0.248047 0.0827,0.111621 0.21911,0.169498 0.40101,0.169498 0.14056,0 0.25631,-0.03307 0.33486,-0.09095 0.0786,-0.06201 0.12816,-0.169499 0.12816,-0.272852 0,-0.148828 -0.091,-0.256315 -0.25218,-0.297656 l -0.29766,-0.08268 c -0.14469,-0.03721 -0.19844,-0.08268 -0.19844,-0.173633 0,-0.124023 0.10749,-0.202572 0.26872,-0.202572 0.19017,0 0.29352,0.08682 0.29766,0.243913 z m 0,0"
       style="fill:#000000;fill-opacity:1;fill-rule:nonzero;stroke:none;stroke-width:0.315527"
       aria-label="SSE OpenBLAS" />
    <path
       id="path2013"
       d="m 315.99164,39.816412 h 4.65813"
       style="fill:none;stroke:#0000ff;stroke-width:0.146089;stroke-linecap:butt;stroke-linejoin:miter;stroke-miterlimit:3.8;stroke-dasharray:0.46698, 0.23349;stroke-dashoffset:0;stroke-opacity:1" />
    <path
       id="path2014"
       d="m 296.37848,87.238277 10.57711,-3.10542 10.58878,-12.386656 10.5771,-18.597495 10.58879,-13.425688 10.5771,39.249706 10.58878,-8.265554 10.57711,-32.011509"
       style="fill:none;stroke:#0000ff;stroke-width:0.146089;stroke-linecap:butt;stroke-linejoin:miter;stroke-miterlimit:3.8;stroke-dasharray:0.46698, 0.23349;stroke-dashoffset:0;stroke-opacity:1" />
    <path
       id="path2015"
       d="m 296.01057,86.870371 0.73549,0.735494"
       style="fill:none;stroke:#0000ff;stroke-width:0.146089;stroke-linecap:butt;stroke-linejoin:miter;stroke-miterlimit:3.8;stroke-dasharray:none;stroke-opacity:1" />
    <path
       id="path2016"
       d="m 296.01057,87.605863 0.73549,-0.735494"
       style="fill:none;stroke:#0000ff;stroke-width:0.146089;stroke-linecap:butt;stroke-linejoin:miter;stroke-miterlimit:3.8;stroke-dasharray:none;stroke-opacity:1" />
    <path
       id="path2017"
       d="m 306.58734,83.764954 0.73549,0.735494"
       style="fill:none;stroke:#0000ff;stroke-width:0.146089;stroke-linecap:butt;stroke-linejoin:miter;stroke-miterlimit:3.8;stroke-dasharray:none;stroke-opacity:1" />
    <path
       id="path2018"
       d="m 306.58734,84.500445 0.73549,-0.735494"
       style="fill:none;stroke:#0000ff;stroke-width:0.146089;stroke-linecap:butt;stroke-linejoin:miter;stroke-miterlimit:3.8;stroke-dasharray:none;stroke-opacity:1" />
    <path
       id="path2019"
       d="m 317.17613,71.378295 0.73549,0.735494"
       style="fill:none;stroke:#0000ff;stroke-width:0.146089;stroke-linecap:butt;stroke-linejoin:miter;stroke-miterlimit:3.8;stroke-dasharray:none;stroke-opacity:1" />
    <path
       id="path2020"
       d="m 317.17613,72.113789 0.73549,-0.735494"
       style="fill:none;stroke:#0000ff;stroke-width:0.146089;stroke-linecap:butt;stroke-linejoin:miter;stroke-miterlimit:3.8;stroke-dasharray:none;stroke-opacity:1" />
    <path
       id="path2021"
       d="m 327.75324,52.780804 0.73549,0.735494"
       style="fill:none;stroke:#0000ff;stroke-width:0.146089;stroke-linecap:butt;stroke-linejoin:miter;stroke-miterlimit:3.8;stroke-dasharray:none;stroke-opacity:1" />
    <path
       id="path2022"
       d="m 327.75324,53.516296 0.73549,-0.735494"
       style="fill:none;stroke:#0000ff;stroke-width:0.146089;stroke-linecap:butt;stroke-linejoin:miter;stroke-miterlimit:3.8;stroke-dasharray:none;stroke-opacity:1" />
    <path
       id="path2023"
       d="m 338.34203,39.355113 0.73549,0.735494"
       style="fill:none;stroke:#0000ff;stroke-width:0.146089;stroke-linecap:butt;stroke-linejoin:miter;stroke-miterlimit:3.8;stroke-dasharray:none;stroke-opacity:1" />
    <path
       id="path2024"
       d="m 338.34203,40.090607 0.73549,-0.735494"
       style="fill:none;stroke:#0000ff;stroke-width:0.146089;stroke-linecap:butt;stroke-linejoin:miter;stroke-miterlimit:3.8;stroke-dasharray:none;stroke-opacity:1" />
    <path
       id="path2025"
       d="m 348.91912,78.604817 0.73549,0.735494"
       style="fill:none;stroke:#0000ff;stroke-width:0.146089;stroke-linecap:butt;stroke-linejoin:miter;stroke-miterlimit:3.8;stroke-dasharray:none;stroke-opacity:1" />
    <path
       id="path2026"
       d="m 348.91912,79.340311 0.73549,-0.735494"
       style="fill:none;stroke:#0000ff;stroke-width:0.146089;stroke-linecap:butt;stroke-linejoin:miter;stroke-miterlimit:3.8;stroke-dasharray:none;stroke-opacity:1" />
    <path
       id="path2027"
       d="m 359.5079,70.339266 0.73549,0.735494"
       style="fill:none;stroke:#0000ff;stroke-width:0.146089;stroke-linecap:butt;stroke-linejoin:miter;stroke-miterlimit:3.8;stroke-dasharray:none;stroke-opacity:1" />
    <path
       id="path2028"
       d="m 359.5079,71.07476 0.73549,-0.735494"
       style="fill:none;stroke:#0000ff;stroke-width:0.146089;stroke-linecap:butt;stroke-linejoin:miter;stroke-miterlimit:3.8;stroke-dasharray:none;stroke-opacity:1" />
    <path
       id="path2029"
       d="m 370.08501,38.327755 0.73549,0.735494"
       style="fill:none;stroke:#0000ff;stroke-width:0.146089;stroke-linecap:butt;stroke-linejoin:miter;stroke-miterlimit:3.8;stroke-dasharray:none;stroke-opacity:1" />
    <path
       id="path2030"
       d="m 370.08501,39.063251 0.73549,-0.735494"
       style="fill:none;stroke:#0000ff;stroke-width:0.146089;stroke-linecap:butt;stroke-linejoin:miter;stroke-miterlimit:3.8;stroke-dasharray:none;stroke-opacity:1" />
    <path
       id="path2031"
       d="M 317.94665,39.448506 318.68214,40.184"
       style="fill:none;stroke:#0000ff;stroke-width:0.146089;stroke-linecap:butt;stroke-linejoin:miter;stroke-miterlimit:3.8;stroke-dasharray:none;stroke-opacity:1" />
    <path
       id="path2032"
       d="m 317.94665,40.184002 0.73549,-0.735494"
       style="fill:none;stroke:#0000ff;stroke-width:0.146089;stroke-linecap:butt;stroke-linejoin:miter;stroke-miterlimit:3.8;stroke-dasharray:none;stroke-opacity:1" />
    <path
       id="path2033"
       d="m 370.45347,36.628864 h -74.07496 v 51.636492 h 74.07496 z m -73.60204,-1.439277 z"
       style="fill:none;stroke:#000000;stroke-width:0.124002;stroke-linecap:butt;stroke-linejoin:miter;stroke-miterlimit:3.8;stroke-dasharray:none;stroke-opacity:1" />
  </g>
</svg>
