<?xml version="1.0" encoding="UTF-8" standalone="no"?>
<!-- Created with Inkscape (http://www.inkscape.org/) -->

<svg
   width="82.584114mm"
   height="57.491051mm"
   viewBox="0 0 82.584114 57.491051"
   version="1.1"
   id="svg1"
   inkscape:version="1.3.2 (091e20ef0f, 2023-11-25, custom)"
   sodipodi:docname="fig4.svg"
   xmlns:inkscape="http://www.inkscape.org/namespaces/inkscape"
   xmlns:sodipodi="http://sodipodi.sourceforge.net/DTD/sodipodi-0.dtd"
   xmlns="http://www.w3.org/2000/svg"
   xmlns:svg="http://www.w3.org/2000/svg">
  <sodipodi:namedview
     id="namedview1"
     pagecolor="#505050"
     bordercolor="#eeeeee"
     borderopacity="1"
     inkscape:showpageshadow="0"
     inkscape:pageopacity="0"
     inkscape:pagecheckerboard="0"
     inkscape:deskcolor="#505050"
     inkscape:document-units="mm"
     inkscape:zoom="0.2102413"
     inkscape:cx="149.82784"
     inkscape:cy="202.14867"
     inkscape:window-width="939"
     inkscape:window-height="1229"
     inkscape:window-x="0"
     inkscape:window-y="0"
     inkscape:window-maximized="0"
     inkscape:current-layer="layer1" />
  <defs
     id="defs1" />
  <g
     inkscape:label="Layer 1"
     inkscape:groupmode="layer"
     id="layer1"
     transform="translate(-65.616694,-94.456249)">
    <path
       id="path2268"
       d="m 72.076055,147.24145 h 0.742921"
       style="fill:none;stroke:#000000;stroke-width:0.117924;stroke-linecap:butt;stroke-linejoin:miter;stroke-miterlimit:3.8;stroke-dasharray:none;stroke-opacity:1" />
    <path
       id="path2269"
       d="m 146.89887,147.24145 h -0.74292"
       style="fill:none;stroke:#000000;stroke-width:0.117924;stroke-linecap:butt;stroke-linejoin:miter;stroke-miterlimit:3.8;stroke-dasharray:none;stroke-opacity:1" />
    <path
       id="path2270"
       d="m 70.622085,146.61431 c -0.111621,0 -0.21084,0.0496 -0.268718,0.12815 -0.07855,0.10336 -0.115755,0.26045 -0.115755,0.47543 0,0.39687 0.132292,0.60358 0.384473,0.60358 0.248047,0 0.380338,-0.20671 0.380338,-0.59118 0,-0.23151 -0.03307,-0.38034 -0.111621,-0.48783 -0.06201,-0.0827 -0.16123,-0.12815 -0.268717,-0.12815 z m 0,0.12815 c 0.157096,0 0.23151,0.16123 0.23151,0.47129 0,0.33487 -0.07441,0.48783 -0.235644,0.48783 -0.152962,0 -0.231511,-0.16123 -0.231511,-0.47956 0,-0.32246 0.07855,-0.47956 0.235645,-0.47956 z m 0,0"
       style="fill:#000000;fill-opacity:1;fill-rule:nonzero;stroke:none;stroke-width:0.318714"
       aria-label=" 0" />
    <path
       id="path2271"
       d="M 72.076029,138.55056 H 72.81895"
       style="fill:none;stroke:#000000;stroke-width:0.117924;stroke-linecap:butt;stroke-linejoin:miter;stroke-miterlimit:3.8;stroke-dasharray:none;stroke-opacity:1" />
    <path
       id="path2272"
       d="M 146.89882,138.55056 H 146.1559"
       style="fill:none;stroke:#000000;stroke-width:0.117924;stroke-linecap:butt;stroke-linejoin:miter;stroke-miterlimit:3.8;stroke-dasharray:none;stroke-opacity:1" />
    <path
       id="path2273"
       d="M 71.002423,138.94862 H 70.38644 c 0.01654,-0.0951 0.06615,-0.15709 0.21084,-0.23977 l 0.165365,-0.091 c 0.165364,-0.0868 0.248047,-0.2067 0.248047,-0.35139 0,-0.0951 -0.04134,-0.18604 -0.107487,-0.25219 -0.07028,-0.062 -0.157097,-0.0909 -0.268718,-0.0909 -0.148828,0 -0.256315,0.0538 -0.322461,0.15297 -0.04134,0.062 -0.05788,0.13642 -0.06201,0.25218 h 0.144694 c 0.0041,-0.0786 0.01654,-0.12403 0.03307,-0.16537 0.04134,-0.0703 0.115755,-0.11162 0.202571,-0.11162 0.132292,0 0.231511,0.0951 0.231511,0.21911 0,0.0909 -0.05374,0.1695 -0.157097,0.23151 l -0.152962,0.0868 c -0.243913,0.13642 -0.314193,0.24804 -0.326595,0.50436 h 0.777213 z m 0,0"
       style="fill:#000000;fill-opacity:1;fill-rule:nonzero;stroke:none;stroke-width:0.318714"
       aria-label=" 2" />
    <path
       id="path2274"
       d="M 72.076029,129.85956 H 72.81895"
       style="fill:none;stroke:#000000;stroke-width:0.117924;stroke-linecap:butt;stroke-linejoin:miter;stroke-miterlimit:3.8;stroke-dasharray:none;stroke-opacity:1" />
    <path
       id="path2275"
       d="M 146.89882,129.85956 H 146.1559"
       style="fill:none;stroke:#000000;stroke-width:0.117924;stroke-linecap:butt;stroke-linejoin:miter;stroke-miterlimit:3.8;stroke-dasharray:none;stroke-opacity:1" />
    <path
       id="path2276"
       d="m 70.704767,130.12126 v 0.28112 h 0.148828 v -0.28112 h 0.169499 v -0.12816 h -0.169499 v -0.76068 h -0.107487 l -0.5333,0.73587 v 0.15297 z m 0,-0.12816 h -0.363802 l 0.363802,-0.51263 z m 0,0"
       style="fill:#000000;fill-opacity:1;fill-rule:nonzero;stroke:none;stroke-width:0.318714"
       aria-label=" 4" />
    <path
       id="path2277"
       d="M 72.076029,121.15677 H 72.81895"
       style="fill:none;stroke:#000000;stroke-width:0.117924;stroke-linecap:butt;stroke-linejoin:miter;stroke-miterlimit:3.8;stroke-dasharray:none;stroke-opacity:1" />
    <path
       id="path2278"
       d="M 146.89882,121.15677 H 146.1559"
       style="fill:none;stroke:#000000;stroke-width:0.117924;stroke-linecap:butt;stroke-linejoin:miter;stroke-miterlimit:3.8;stroke-dasharray:none;stroke-opacity:1" />
    <path
       id="path2279"
       d="m 70.990021,120.835 c -0.02894,-0.19017 -0.152962,-0.30592 -0.330729,-0.30592 -0.132292,0 -0.248047,0.062 -0.314193,0.16536 -0.07441,0.11576 -0.107487,0.26045 -0.107487,0.47129 0,0.19844 0.02894,0.32246 0.09922,0.42582 0.06201,0.0951 0.165365,0.14469 0.293522,0.14469 0.223242,0 0.384473,-0.16536 0.384473,-0.39274 0,-0.21911 -0.148828,-0.37207 -0.359668,-0.37207 -0.115755,0 -0.206706,0.0455 -0.268718,0.13229 0,-0.28525 0.09509,-0.44648 0.26045,-0.44648 0.103352,0 0.173632,0.0661 0.198437,0.17776 z m -0.3514,0.26459 c 0.14056,0 0.227377,0.0992 0.227377,0.25631 0,0.1447 -0.09922,0.25218 -0.231511,0.25218 -0.136426,0 -0.239778,-0.11162 -0.239778,-0.26045 0,-0.14469 0.09922,-0.24804 0.243912,-0.24804 z m 0,0"
       style="fill:#000000;fill-opacity:1;fill-rule:nonzero;stroke:none;stroke-width:0.318714"
       aria-label=" 6" />
    <path
       id="path2280"
       d="M 72.076029,112.46577 H 72.81895"
       style="fill:none;stroke:#000000;stroke-width:0.117924;stroke-linecap:butt;stroke-linejoin:miter;stroke-miterlimit:3.8;stroke-dasharray:none;stroke-opacity:1" />
    <path
       id="path2281"
       d="M 146.89882,112.46577 H 146.1559"
       style="fill:none;stroke:#000000;stroke-width:0.117924;stroke-linecap:butt;stroke-linejoin:miter;stroke-miterlimit:3.8;stroke-dasharray:none;stroke-opacity:1" />
    <path
       id="path2282"
       d="m 70.812254,112.39211 c 0.11989,-0.0703 0.161231,-0.13229 0.161231,-0.23978 0,-0.18604 -0.144694,-0.31419 -0.3514,-0.31419 -0.206706,0 -0.3514,0.12815 -0.3514,0.31419 0,0.10749 0.03721,0.16536 0.157097,0.23978 -0.132292,0.0661 -0.198438,0.16123 -0.198438,0.28939 0,0.21497 0.161231,0.3638 0.392741,0.3638 0.23151,0 0.392741,-0.14883 0.392741,-0.35967 0,-0.13229 -0.06615,-0.22738 -0.202572,-0.29352 z m -0.190169,-0.42582 c 0.124023,0 0.202572,0.0744 0.202572,0.18604 0,0.11162 -0.08268,0.1819 -0.202572,0.1819 -0.124024,0 -0.202572,-0.0703 -0.202572,-0.1819 0,-0.11162 0.07855,-0.18604 0.202572,-0.18604 z m 0,0.49196 c 0.144694,0 0.243913,0.0909 0.243913,0.22738 0,0.14056 -0.09922,0.23151 -0.248047,0.23151 -0.14056,0 -0.239779,-0.0951 -0.239779,-0.23151 0,-0.13643 0.09922,-0.22738 0.243913,-0.22738 z m 0,0"
       style="fill:#000000;fill-opacity:1;fill-rule:nonzero;stroke:none;stroke-width:0.318714"
       aria-label=" 8" />
    <path
       id="path2283"
       d="M 72.076029,103.77477 H 72.81895"
       style="fill:none;stroke:#000000;stroke-width:0.117924;stroke-linecap:butt;stroke-linejoin:miter;stroke-miterlimit:3.8;stroke-dasharray:none;stroke-opacity:1" />
    <path
       id="path2284"
       d="M 146.89882,103.77477 H 146.1559"
       style="fill:none;stroke:#000000;stroke-width:0.117924;stroke-linecap:butt;stroke-linejoin:miter;stroke-miterlimit:3.8;stroke-dasharray:none;stroke-opacity:1" />
    <path
       id="path2285"
       d="m 69.675381,103.48619 v 0.83096 h 0.144694 v -1.16996 h -0.09508 c -0.04961,0.1819 -0.08268,0.20671 -0.305924,0.23151 v 0.10749 z m 0.946712,-0.339 c -0.111621,0 -0.21084,0.0496 -0.268718,0.12816 -0.07855,0.10335 -0.115755,0.26045 -0.115755,0.47542 0,0.39688 0.132292,0.60358 0.384473,0.60358 0.248047,0 0.380338,-0.2067 0.380338,-0.59117 0,-0.23152 -0.03307,-0.38034 -0.111621,-0.48783 -0.06201,-0.0827 -0.16123,-0.12816 -0.268717,-0.12816 z m 0,0.12816 c 0.157096,0 0.23151,0.16123 0.23151,0.47129 0,0.33486 -0.07441,0.48782 -0.235644,0.48782 -0.152962,0 -0.231511,-0.16123 -0.231511,-0.47955 0,-0.32246 0.07855,-0.47956 0.235645,-0.47956 z m 0,0"
       style="fill:#000000;fill-opacity:1;fill-rule:nonzero;stroke:none;stroke-width:0.318714"
       aria-label=" 10" />
    <path
       id="path2286"
       d="M 72.076029,95.083769 H 72.81895"
       style="fill:none;stroke:#000000;stroke-width:0.117924;stroke-linecap:butt;stroke-linejoin:miter;stroke-miterlimit:3.8;stroke-dasharray:none;stroke-opacity:1" />
    <path
       id="path2287"
       d="M 146.89882,95.083769 H 146.1559"
       style="fill:none;stroke:#000000;stroke-width:0.117924;stroke-linecap:butt;stroke-linejoin:miter;stroke-miterlimit:3.8;stroke-dasharray:none;stroke-opacity:1" />
    <path
       id="path2288"
       d="m 69.675381,94.795247 v 0.830957 h 0.144694 v -1.169955 h -0.09508 c -0.04961,0.181902 -0.08268,0.206706 -0.305924,0.231511 v 0.107487 z m 1.32705,0.686263 h -0.615983 c 0.01654,-0.09508 0.06615,-0.157096 0.21084,-0.239779 l 0.165365,-0.09095 c 0.165364,-0.08682 0.248047,-0.206706 0.248047,-0.3514 0,-0.09508 -0.04134,-0.186035 -0.107487,-0.252181 -0.07028,-0.06201 -0.157097,-0.09095 -0.268718,-0.09095 -0.148828,0 -0.256315,0.05374 -0.322461,0.152963 -0.04134,0.06201 -0.05788,0.136425 -0.06201,0.252181 h 0.144694 c 0.0041,-0.07855 0.01654,-0.124024 0.03307,-0.165365 0.04134,-0.07028 0.115756,-0.111621 0.202572,-0.111621 0.132292,0 0.231511,0.09508 0.231511,0.219108 0,0.09095 -0.05374,0.169499 -0.157097,0.231511 l -0.152962,0.08682 c -0.243913,0.136426 -0.314193,0.248047 -0.326595,0.504362 h 0.777213 z m 0,0"
       style="fill:#000000;fill-opacity:1;fill-rule:nonzero;stroke:none;stroke-width:0.318714"
       aria-label=" 12" />
    <path
       id="path2289"
       d="m 72.076029,147.24156 v -0.74293"
       style="fill:none;stroke:#000000;stroke-width:0.117924;stroke-linecap:butt;stroke-linejoin:miter;stroke-miterlimit:3.8;stroke-dasharray:none;stroke-opacity:1" />
    <path
       id="path2290"
       d="m 72.076029,95.083769 v 0.742922"
       style="fill:none;stroke:#000000;stroke-width:0.117924;stroke-linecap:butt;stroke-linejoin:miter;stroke-miterlimit:3.8;stroke-dasharray:none;stroke-opacity:1" />
    <path
       id="path2291"
       d="m 72.154804,149.15369 v 0.28112 h 0.148829 v -0.28112 h 0.169498 v -0.12816 h -0.169498 v -0.76067 h -0.107487 l -0.533301,0.73587 v 0.15296 z m 0,-0.12816 h -0.363802 l 0.363802,-0.51263 z m 0,0"
       style="fill:#000000;fill-opacity:1;fill-rule:nonzero;stroke:none;stroke-width:0.318714"
       aria-label="4" />
    <path
       id="path2292"
       d="m 82.75993,147.24156 v -0.74293"
       style="fill:none;stroke:#000000;stroke-width:0.117924;stroke-linecap:butt;stroke-linejoin:miter;stroke-miterlimit:3.8;stroke-dasharray:none;stroke-opacity:1" />
    <path
       id="path2293"
       d="m 82.75993,95.083769 v 0.742922"
       style="fill:none;stroke:#000000;stroke-width:0.117924;stroke-linecap:butt;stroke-linejoin:miter;stroke-miterlimit:3.8;stroke-dasharray:none;stroke-opacity:1" />
    <path
       id="path2294"
       d="m 82.945889,148.81883 c 0.11989,-0.0703 0.161231,-0.1323 0.161231,-0.23978 0,-0.18604 -0.144694,-0.31419 -0.3514,-0.31419 -0.206706,0 -0.3514,0.12815 -0.3514,0.31419 0,0.10748 0.03721,0.16536 0.157097,0.23978 -0.132292,0.0661 -0.198438,0.16123 -0.198438,0.28938 0,0.21498 0.161231,0.36381 0.392741,0.36381 0.23151,0 0.392741,-0.14883 0.392741,-0.35967 0,-0.13229 -0.06615,-0.22738 -0.202572,-0.29352 z m -0.190169,-0.42582 c 0.124023,0 0.202572,0.0744 0.202572,0.18604 0,0.11162 -0.08268,0.1819 -0.202572,0.1819 -0.124024,0 -0.202572,-0.0703 -0.202572,-0.1819 0,-0.11162 0.07855,-0.18604 0.202572,-0.18604 z m 0,0.49196 c 0.144694,0 0.243913,0.0909 0.243913,0.22738 0,0.14056 -0.09922,0.23151 -0.248047,0.23151 -0.14056,0 -0.239779,-0.0951 -0.239779,-0.23151 0,-0.13643 0.09922,-0.22738 0.243913,-0.22738 z m 0,0"
       style="fill:#000000;fill-opacity:1;fill-rule:nonzero;stroke:none;stroke-width:0.318714"
       aria-label="8" />
    <path
       id="path2295"
       d="m 93.455658,147.24156 v -0.74293"
       style="fill:none;stroke:#000000;stroke-width:0.117924;stroke-linecap:butt;stroke-linejoin:miter;stroke-miterlimit:3.8;stroke-dasharray:none;stroke-opacity:1" />
    <path
       id="path2296"
       d="m 93.455658,95.083769 v 0.742922"
       style="fill:none;stroke:#000000;stroke-width:0.117924;stroke-linecap:butt;stroke-linejoin:miter;stroke-miterlimit:3.8;stroke-dasharray:none;stroke-opacity:1" />
    <path
       id="path2297"
       d="m 92.963878,148.60385 v 0.83096 h 0.144694 v -1.16995 h -0.09508 c -0.04961,0.1819 -0.08268,0.2067 -0.305924,0.23151 v 0.10748 z m 1.314648,-0.0331 c -0.02894,-0.19017 -0.152962,-0.30592 -0.330729,-0.30592 -0.132292,0 -0.248047,0.062 -0.314193,0.16536 -0.07441,0.11575 -0.107487,0.26045 -0.107487,0.47129 0,0.19844 0.02894,0.32246 0.09922,0.42581 0.06201,0.0951 0.165365,0.1447 0.293522,0.1447 0.223242,0 0.384473,-0.16537 0.384473,-0.39274 0,-0.21911 -0.148828,-0.37207 -0.359668,-0.37207 -0.115755,0 -0.206706,0.0455 -0.268718,0.13229 0,-0.28526 0.09509,-0.44649 0.26045,-0.44649 0.103352,0 0.173632,0.0661 0.198437,0.17777 z m -0.3514,0.26458 c 0.14056,0 0.227377,0.0992 0.227377,0.25632 0,0.14469 -0.09922,0.25218 -0.231511,0.25218 -0.136426,0 -0.239778,-0.11162 -0.239778,-0.26045 0,-0.14469 0.09922,-0.24805 0.243912,-0.24805 z m 0,0"
       style="fill:#000000;fill-opacity:1;fill-rule:nonzero;stroke:none;stroke-width:0.318714"
       aria-label="16" />
    <path
       id="path2298"
       d="m 104.13956,147.24156 v -0.74293"
       style="fill:none;stroke:#000000;stroke-width:0.117924;stroke-linecap:butt;stroke-linejoin:miter;stroke-miterlimit:3.8;stroke-dasharray:none;stroke-opacity:1" />
    <path
       id="path2299"
       d="m 104.13956,95.083769 v 0.742922"
       style="fill:none;stroke:#000000;stroke-width:0.117924;stroke-linecap:butt;stroke-linejoin:miter;stroke-miterlimit:3.8;stroke-dasharray:none;stroke-opacity:1" />
    <path
       id="path2300"
       d="m 103.58547,148.89737 h 0.0785 c 0.16123,0 0.24391,0.0703 0.24391,0.21084 0,0.14883 -0.0909,0.23565 -0.24391,0.23565 -0.1571,0 -0.23565,-0.0786 -0.24392,-0.24805 h -0.14469 c 0.004,0.0951 0.0207,0.15296 0.0496,0.20671 0.062,0.11162 0.17363,0.1695 0.33486,0.1695 0.23978,0 0.39688,-0.1447 0.39688,-0.36381 0,-0.14882 -0.0579,-0.23151 -0.19844,-0.27698 0.10749,-0.0455 0.16536,-0.12816 0.16536,-0.24391 0,-0.20258 -0.13642,-0.32246 -0.35966,-0.32246 -0.23565,0 -0.35967,0.12815 -0.36381,0.3762 h 0.1447 c 0,-0.0703 0.008,-0.10749 0.0248,-0.14469 0.0331,-0.0662 0.10749,-0.10336 0.19844,-0.10336 0.12816,0 0.20671,0.0744 0.20671,0.19844 0,0.0827 -0.0331,0.13229 -0.0951,0.1571 -0.0413,0.0165 -0.0909,0.0248 -0.1943,0.0248 z m 1.38906,0.39275 h -0.61598 c 0.0165,-0.0951 0.0661,-0.1571 0.21084,-0.23978 l 0.16536,-0.0909 c 0.16537,-0.0868 0.24805,-0.20671 0.24805,-0.3514 0,-0.0951 -0.0413,-0.18604 -0.10749,-0.25218 -0.0703,-0.062 -0.15709,-0.0909 -0.26872,-0.0909 -0.14882,0 -0.25631,0.0537 -0.32246,0.15296 -0.0413,0.062 -0.0579,0.13642 -0.062,0.25218 h 0.1447 c 0.004,-0.0785 0.0165,-0.12403 0.0331,-0.16537 0.0413,-0.0703 0.11575,-0.11162 0.20257,-0.11162 0.13229,0 0.23151,0.0951 0.23151,0.21911 0,0.0909 -0.0537,0.1695 -0.1571,0.23151 l -0.15296,0.0868 c -0.24391,0.13642 -0.31419,0.24804 -0.32659,0.50436 h 0.77721 z m 0,0"
       style="fill:#000000;fill-opacity:1;fill-rule:nonzero;stroke:none;stroke-width:0.318714"
       aria-label="32" />
    <path
       id="path2301"
       d="m 114.83526,147.24156 v -0.74293"
       style="fill:none;stroke:#000000;stroke-width:0.117924;stroke-linecap:butt;stroke-linejoin:miter;stroke-miterlimit:3.8;stroke-dasharray:none;stroke-opacity:1" />
    <path
       id="path2302"
       d="m 114.83526,95.083769 v 0.742922"
       style="fill:none;stroke:#000000;stroke-width:0.117924;stroke-linecap:butt;stroke-linejoin:miter;stroke-miterlimit:3.8;stroke-dasharray:none;stroke-opacity:1" />
    <path
       id="path2303"
       d="m 114.74033,148.57078 c -0.0289,-0.19017 -0.15296,-0.30592 -0.33072,-0.30592 -0.1323,0 -0.24805,0.062 -0.3142,0.16536 -0.0744,0.11575 -0.10748,0.26045 -0.10748,0.47129 0,0.19844 0.0289,0.32246 0.0992,0.42581 0.062,0.0951 0.16537,0.1447 0.29353,0.1447 0.22324,0 0.38447,-0.16537 0.38447,-0.39274 0,-0.21911 -0.14883,-0.37207 -0.35967,-0.37207 -0.11575,0 -0.2067,0.0455 -0.26872,0.13229 0,-0.28526 0.0951,-0.44649 0.26045,-0.44649 0.10336,0 0.17364,0.0661 0.19844,0.17777 z m -0.3514,0.26458 c 0.14056,0 0.22738,0.0992 0.22738,0.25632 0,0.14469 -0.0992,0.25218 -0.23151,0.25218 -0.13643,0 -0.23978,-0.11162 -0.23978,-0.26045 0,-0.14469 0.0992,-0.24805 0.24391,-0.24805 z m 0.98392,0.31833 v 0.28112 h 0.14883 v -0.28112 h 0.1695 v -0.12816 h -0.1695 v -0.76067 h -0.10749 l -0.5333,0.73587 v 0.15296 z m 0,-0.12816 h -0.3638 l 0.3638,-0.51263 z m 0,0"
       style="fill:#000000;fill-opacity:1;fill-rule:nonzero;stroke:none;stroke-width:0.318714"
       aria-label="64" />
    <path
       id="path2304"
       d="m 125.51919,147.24156 v -0.74293"
       style="fill:none;stroke:#000000;stroke-width:0.117924;stroke-linecap:butt;stroke-linejoin:miter;stroke-miterlimit:3.8;stroke-dasharray:none;stroke-opacity:1" />
    <path
       id="path2305"
       d="m 125.51919,95.083769 v 0.742922"
       style="fill:none;stroke:#000000;stroke-width:0.117924;stroke-linecap:butt;stroke-linejoin:miter;stroke-miterlimit:3.8;stroke-dasharray:none;stroke-opacity:1" />
    <path
       id="path2306"
       d="m 124.56814,148.60385 v 0.83096 h 0.14469 v -1.16995 h -0.0951 c -0.0496,0.1819 -0.0827,0.2067 -0.30593,0.23151 v 0.10748 z m 1.32705,0.68627 h -0.61598 c 0.0165,-0.0951 0.0661,-0.1571 0.21084,-0.23978 l 0.16536,-0.0909 c 0.16537,-0.0868 0.24805,-0.20671 0.24805,-0.3514 0,-0.0951 -0.0413,-0.18604 -0.10749,-0.25218 -0.0703,-0.062 -0.15709,-0.0909 -0.26872,-0.0909 -0.14882,0 -0.25631,0.0537 -0.32246,0.15296 -0.0413,0.062 -0.0579,0.13642 -0.062,0.25218 h 0.1447 c 0.004,-0.0785 0.0165,-0.12403 0.0331,-0.16537 0.0413,-0.0703 0.11575,-0.11162 0.20257,-0.11162 0.13229,0 0.23151,0.0951 0.23151,0.21911 0,0.0909 -0.0537,0.1695 -0.1571,0.23151 l -0.15296,0.0868 c -0.24391,0.13642 -0.31419,0.24804 -0.32659,0.50436 h 0.77721 z m 0.7276,-0.47129 c 0.11989,-0.0703 0.16124,-0.1323 0.16124,-0.23978 0,-0.18604 -0.1447,-0.31419 -0.3514,-0.31419 -0.20671,0 -0.3514,0.12815 -0.3514,0.31419 0,0.10748 0.0372,0.16536 0.15709,0.23978 -0.13229,0.0661 -0.19844,0.16123 -0.19844,0.28938 0,0.21498 0.16124,0.36381 0.39275,0.36381 0.23151,0 0.39274,-0.14883 0.39274,-0.35967 0,-0.13229 -0.0662,-0.22738 -0.20258,-0.29352 z m -0.19016,-0.42582 c 0.12402,0 0.20257,0.0744 0.20257,0.18604 0,0.11162 -0.0827,0.1819 -0.20257,0.1819 -0.12403,0 -0.20258,-0.0703 -0.20258,-0.1819 0,-0.11162 0.0785,-0.18604 0.20258,-0.18604 z m 0,0.49196 c 0.14469,0 0.24391,0.0909 0.24391,0.22738 0,0.14056 -0.0992,0.23151 -0.24805,0.23151 -0.14056,0 -0.23978,-0.0951 -0.23978,-0.23151 0,-0.13643 0.0992,-0.22738 0.24392,-0.22738 z m 0,0"
       style="fill:#000000;fill-opacity:1;fill-rule:nonzero;stroke:none;stroke-width:0.318714"
       aria-label="128" />
    <path
       id="path2307"
       d="m 136.21489,147.24156 v -0.74293"
       style="fill:none;stroke:#000000;stroke-width:0.117924;stroke-linecap:butt;stroke-linejoin:miter;stroke-miterlimit:3.8;stroke-dasharray:none;stroke-opacity:1" />
    <path
       id="path2308"
       d="m 136.21489,95.083769 v 0.742922"
       style="fill:none;stroke:#000000;stroke-width:0.117924;stroke-linecap:butt;stroke-linejoin:miter;stroke-miterlimit:3.8;stroke-dasharray:none;stroke-opacity:1" />
    <path
       id="path2309"
       d="m 135.67343,149.29012 h -0.61599 c 0.0165,-0.0951 0.0661,-0.1571 0.21084,-0.23978 l 0.16537,-0.0909 c 0.16536,-0.0868 0.24805,-0.20671 0.24805,-0.3514 0,-0.0951 -0.0413,-0.18604 -0.10749,-0.25218 -0.0703,-0.062 -0.1571,-0.0909 -0.26872,-0.0909 -0.14883,0 -0.25631,0.0537 -0.32246,0.15296 -0.0413,0.062 -0.0579,0.13642 -0.062,0.25218 h 0.14469 c 0.004,-0.0785 0.0165,-0.12403 0.0331,-0.16537 0.0413,-0.0703 0.11576,-0.11162 0.20258,-0.11162 0.13229,0 0.23151,0.0951 0.23151,0.21911 0,0.0909 -0.0538,0.1695 -0.1571,0.23151 l -0.15296,0.0868 c -0.24391,0.13642 -0.31419,0.24804 -0.3266,0.50436 h 0.77722 z m 0.86816,-1.02526 h -0.60358 l -0.0868,0.63665 h 0.1323 c 0.0661,-0.0786 0.12402,-0.10749 0.21497,-0.10749 0.1571,0 0.25631,0.10749 0.25631,0.28112 0,0.16537 -0.0992,0.26872 -0.25631,0.26872 -0.12816,0 -0.20671,-0.0661 -0.23978,-0.1943 h -0.14469 c 0.0207,0.0951 0.0372,0.14056 0.0703,0.1819 0.0661,0.091 0.18603,0.14056 0.31832,0.14056 0.23565,0 0.40101,-0.1695 0.40101,-0.41755 0,-0.23151 -0.15296,-0.38861 -0.38034,-0.38861 -0.0827,0 -0.14882,0.0207 -0.21497,0.0703 l 0.0455,-0.32659 h 0.48782 z m 0.95498,0.30592 c -0.0289,-0.19017 -0.15296,-0.30592 -0.33073,-0.30592 -0.13229,0 -0.24804,0.062 -0.31419,0.16536 -0.0744,0.11575 -0.10749,0.26045 -0.10749,0.47129 0,0.19844 0.0289,0.32246 0.0992,0.42581 0.062,0.0951 0.16537,0.1447 0.29352,0.1447 0.22325,0 0.38448,-0.16537 0.38448,-0.39274 0,-0.21911 -0.14883,-0.37207 -0.35967,-0.37207 -0.11576,0 -0.20671,0.0455 -0.26872,0.13229 0,-0.28526 0.0951,-0.44649 0.26045,-0.44649 0.10335,0 0.17363,0.0661 0.19844,0.17777 z m -0.3514,0.26458 c 0.14056,0 0.22738,0.0992 0.22738,0.25632 0,0.14469 -0.0992,0.25218 -0.23151,0.25218 -0.13643,0 -0.23978,-0.11162 -0.23978,-0.26045 0,-0.14469 0.0992,-0.24805 0.24391,-0.24805 z m 0,0"
       style="fill:#000000;fill-opacity:1;fill-rule:nonzero;stroke:none;stroke-width:0.318714"
       aria-label="256" />
    <path
       id="path2310"
       d="m 146.89882,147.24156 v -0.74293"
       style="fill:none;stroke:#000000;stroke-width:0.117924;stroke-linecap:butt;stroke-linejoin:miter;stroke-miterlimit:3.8;stroke-dasharray:none;stroke-opacity:1" />
    <path
       id="path2311"
       d="m 146.89882,95.083769 v 0.742922"
       style="fill:none;stroke:#000000;stroke-width:0.117924;stroke-linecap:butt;stroke-linejoin:miter;stroke-miterlimit:3.8;stroke-dasharray:none;stroke-opacity:1" />
    <path
       id="path2312"
       d="m 146.30739,148.26486 h -0.60358 l -0.0868,0.63665 h 0.13229 c 0.0661,-0.0786 0.12403,-0.10749 0.21498,-0.10749 0.15709,0 0.25631,0.10749 0.25631,0.28112 0,0.16537 -0.0992,0.26872 -0.25631,0.26872 -0.12816,0 -0.20671,-0.0661 -0.23978,-0.1943 h -0.1447 c 0.0207,0.0951 0.0372,0.14056 0.0703,0.1819 0.0661,0.091 0.18604,0.14056 0.31833,0.14056 0.23564,0 0.40101,-0.1695 0.40101,-0.41755 0,-0.23151 -0.15296,-0.38861 -0.38034,-0.38861 -0.0827,0 -0.14883,0.0207 -0.21497,0.0703 l 0.0455,-0.32659 h 0.48783 z m 0.5581,0.33899 v 0.83096 h 0.1447 v -1.16995 h -0.0951 c -0.0496,0.1819 -0.0827,0.2067 -0.30592,0.23151 v 0.10748 z m 1.32705,0.68627 h -0.61598 c 0.0165,-0.0951 0.0661,-0.1571 0.21084,-0.23978 l 0.16536,-0.0909 c 0.16537,-0.0868 0.24805,-0.20671 0.24805,-0.3514 0,-0.0951 -0.0413,-0.18604 -0.10749,-0.25218 -0.0703,-0.062 -0.15709,-0.0909 -0.26871,-0.0909 -0.14883,0 -0.25632,0.0537 -0.32246,0.15296 -0.0413,0.062 -0.0579,0.13642 -0.062,0.25218 h 0.1447 c 0.004,-0.0785 0.0165,-0.12403 0.0331,-0.16537 0.0413,-0.0703 0.11576,-0.11162 0.20257,-0.11162 0.13229,0 0.23151,0.0951 0.23151,0.21911 0,0.0909 -0.0537,0.1695 -0.15709,0.23151 l -0.15296,0.0868 c -0.24392,0.13642 -0.3142,0.24804 -0.3266,0.50436 h 0.77721 z m 0,0"
       style="fill:#000000;fill-opacity:1;fill-rule:nonzero;stroke:none;stroke-width:0.318714"
       aria-label="512" />
    <path
       id="path2313"
       d="M 146.89921,95.082732 H 72.076115 v 52.158008 h 74.823095 z m -75.141592,0.695499 z"
       style="fill:none;stroke:#000000;stroke-width:0.124002;stroke-linecap:butt;stroke-linejoin:miter;stroke-miterlimit:3.8;stroke-dasharray:none;stroke-opacity:1" />
    <path
       id="path2314"
       d="m 66.203741,122.61267 v 0.50022 h 0.136426 v -0.3638 h 0.03307 c 0.214974,0 0.367936,0.1571 0.367936,0.37621 0,0.12402 -0.04134,0.23151 -0.119889,0.30592 -0.08682,0.0786 -0.231511,0.12402 -0.376205,0.12402 -0.297656,0 -0.491959,-0.16536 -0.491959,-0.42168 0,-0.1819 0.09508,-0.31419 0.248047,-0.34726 v -0.1571 c -0.243913,0.0413 -0.384473,0.22738 -0.384473,0.50436 0,0.1447 0.04134,0.26459 0.115755,0.35967 0.115755,0.13643 0.301791,0.21498 0.520899,0.21498 0.367936,0 0.624251,-0.22325 0.624251,-0.54984 0,-0.16123 -0.06201,-0.29352 -0.190169,-0.40928 l 0.16123,-0.0372 v -0.0992 z m -0.227376,-0.54054 v 0.14469 h -0.136426 c -0.05788,0 -0.08682,-0.0331 -0.08682,-0.0951 0,-0.0124 0,-0.0165 0,-0.0496 h -0.111621 c -0.0083,0.0331 -0.0083,0.0496 -0.0083,0.0785 0,0.12816 0.07028,0.20257 0.194303,0.20257 h 0.148828 v 0.11576 h 0.111621 v -0.11576 h 0.752409 v -0.13643 H 66.08795 v -0.14469 z m -0.338997,-0.28525 v 0.14056 h 1.203027 v -0.14056 z m 0.314192,-0.56431 c 0,0.24391 0.173633,0.39274 0.463021,0.39274 0.289388,0 0.463021,-0.14469 0.463021,-0.39274 0,-0.24391 -0.173633,-0.38861 -0.454753,-0.38861 -0.30179,0 -0.471289,0.14056 -0.471289,0.38861 z m 0.128158,0 c 0,-0.15296 0.124023,-0.24805 0.338997,-0.24805 0.202572,0 0.330729,0.0951 0.330729,0.24805 0,0.15296 -0.124023,0.24805 -0.334863,0.24805 -0.206706,0 -0.334863,-0.0951 -0.334863,-0.24805 z m 1.120345,-0.55914 V 120.527 h -0.450619 c 0.09095,-0.0744 0.128158,-0.15296 0.128158,-0.26458 0,-0.22324 -0.177767,-0.37207 -0.454753,-0.37207 -0.289388,0 -0.471289,0.1447 -0.471289,0.37207 0,0.11576 0.05374,0.21084 0.152962,0.27699 h -0.128157 v 0.12402 z m -1.120345,-0.3762 c 0,-0.15297 0.132291,-0.25218 0.338997,-0.25218 0.198438,0 0.330729,0.0992 0.330729,0.25218 0,0.14469 -0.132291,0.23977 -0.334863,0.23977 -0.202572,0 -0.334863,-0.0951 -0.334863,-0.23977 z m -0.44235,-0.82683 1.2361,0.38861 v -0.091 l -1.2361,-0.38861 z m 0.578776,-0.80615 c -0.169499,0.004 -0.264584,0.11576 -0.264584,0.31419 0,0.20258 0.103353,0.33073 0.264584,0.33073 0.132291,0 0.198437,-0.0703 0.248046,-0.27285 l 0.03307,-0.12816 c 0.02067,-0.0951 0.05788,-0.13229 0.11989,-0.13229 0.07855,0 0.132291,0.0785 0.132291,0.19844 0,0.0744 -0.02067,0.13643 -0.05788,0.17363 -0.02067,0.0207 -0.04548,0.0289 -0.107487,0.0372 v 0.14469 c 0.198437,-0.004 0.293522,-0.11575 0.293522,-0.34313 0,-0.21911 -0.107487,-0.35553 -0.272852,-0.35553 -0.128157,0 -0.198437,0.0703 -0.239778,0.24391 l -0.03307,0.13229 c -0.02481,0.11162 -0.06201,0.16123 -0.124024,0.16123 -0.07855,0 -0.128157,-0.0744 -0.128157,-0.18603 0,-0.10749 0.04547,-0.1695 0.136426,-0.17363 z m 0,0"
       style="fill:#000000;fill-opacity:1;fill-rule:nonzero;stroke:none;stroke-width:0.318715"
       aria-label="Gflop/s" />
    <path
       id="path2315"
       d="m 106.31085,151.9101 0.339,-1.00872 v 1.00872 h 0.1447 v -1.20302 h -0.21498 l -0.34726,1.04593 -0.35967,-1.04593 h -0.21084 v 1.20302 h 0.14469 v -1.00872 l 0.34313,1.00872 z m 1.48312,-0.0827 c -0.0124,0.004 -0.0207,0.004 -0.0289,0.004 -0.0455,0 -0.0744,-0.0248 -0.0744,-0.0661 v -0.5085 c 0,-0.15296 -0.11163,-0.23564 -0.32247,-0.23564 -0.12815,0 -0.23151,0.0372 -0.28938,0.0992 -0.0372,0.0455 -0.0538,0.0951 -0.0579,0.1819 h 0.13642 c 0.0124,-0.10749 0.0744,-0.15296 0.20671,-0.15296 0.11989,0 0.19017,0.0455 0.19017,0.12815 v 0.0372 c 0,0.0579 -0.0331,0.0827 -0.14469,0.0951 -0.19431,0.0248 -0.22325,0.0289 -0.27699,0.0496 -0.0992,0.0413 -0.14883,0.11989 -0.14883,0.23151 0,0.1571 0.10749,0.25632 0.28112,0.25632 0.11162,0 0.19844,-0.0372 0.29352,-0.12816 0.0124,0.0909 0.0538,0.12816 0.1447,0.12816 0.0289,0 0.0496,-0.004 0.091,-0.0124 z m -0.23978,-0.19017 c 0,0.0455 -0.0124,0.0744 -0.0537,0.11162 -0.0579,0.0537 -0.12403,0.0785 -0.20258,0.0785 -0.10748,0 -0.17363,-0.0496 -0.17363,-0.13643 0,-0.0909 0.062,-0.14056 0.21084,-0.16123 0.1447,-0.0207 0.17363,-0.0248 0.21911,-0.0455 z m 0.69453,-0.59118 h -0.14056 v -0.23978 h -0.13643 v 0.23978 h -0.11575 v 0.11162 h 0.11575 v 0.65319 c 0,0.0868 0.0579,0.13643 0.16537,0.13643 0.0331,0 0.0661,-0.004 0.11162,-0.0124 v -0.11576 c -0.0165,0.008 -0.0372,0.008 -0.0662,0.008 -0.0579,0 -0.0744,-0.0165 -0.0744,-0.0785 v -0.59118 h 0.14056 z m 0.1571,0 v 0.86403 h 0.13642 v -0.45062 c 0,-0.11988 0.0331,-0.20257 0.0992,-0.25218 0.0413,-0.0289 0.0827,-0.0413 0.17777,-0.0413 v -0.14056 c -0.0248,-0.004 -0.0331,-0.004 -0.0538,-0.004 -0.0868,0 -0.15709,0.0537 -0.23564,0.1819 v -0.1571 z m 0.68213,0 h -0.13643 v 0.86403 h 0.13643 z m 0,-0.33899 h -0.14056 v 0.17363 h 0.14056 z m 0.60151,0.75654 0.28939,-0.41755 h -0.1571 l -0.2067,0.3142 -0.20671,-0.3142 h -0.1571 l 0.28939,0.42168 -0.30592,0.44235 h 0.15709 l 0.21911,-0.33073 0.21498,0.33073 h 0.16123 z m 1.52445,-0.17777 c -0.004,-0.1695 -0.11575,-0.26458 -0.31419,-0.26458 -0.20257,0 -0.33073,0.10335 -0.33073,0.26458 0,0.13229 0.0703,0.19844 0.27285,0.24805 l 0.12816,0.0331 c 0.0951,0.0207 0.13229,0.0579 0.13229,0.11989 0,0.0786 -0.0785,0.13229 -0.19843,0.13229 -0.0744,0 -0.13643,-0.0207 -0.17364,-0.0579 -0.0207,-0.0207 -0.0289,-0.0455 -0.0372,-0.10748 h -0.1447 c 0.004,0.19844 0.11576,0.29352 0.34313,0.29352 0.21911,0 0.35554,-0.10749 0.35554,-0.27285 0,-0.12816 -0.0703,-0.19844 -0.24392,-0.23978 l -0.13229,-0.0331 c -0.11162,-0.0248 -0.16123,-0.062 -0.16123,-0.12403 0,-0.0785 0.0744,-0.12815 0.18604,-0.12815 0.10748,0 0.1695,0.0455 0.17363,0.13642 z m 0.35037,-0.23978 h -0.13643 v 0.86403 h 0.13643 z m 0,-0.33899 h -0.14056 v 0.17363 h 0.14056 z m 0.84956,0.33899 h -0.64492 v 0.11989 h 0.47956 l -0.51677,0.62012 v 0.12402 h 0.7028 v -0.11989 h -0.5333 l 0.51263,-0.62425 z m 0.94155,0.47956 c 0,-0.13229 -0.0124,-0.21084 -0.0372,-0.27699 -0.0537,-0.14056 -0.18604,-0.22737 -0.34727,-0.22737 -0.24391,0 -0.39687,0.18603 -0.39687,0.46715 0,0.28526 0.14883,0.45889 0.39274,0.45889 0.19844,0 0.33486,-0.11162 0.36793,-0.29766 h -0.13642 c -0.0372,0.11162 -0.11576,0.1695 -0.22738,0.1695 -0.0868,0 -0.16123,-0.0372 -0.2067,-0.11162 -0.0331,-0.0496 -0.0455,-0.0992 -0.0455,-0.1819 z m -0.63666,-0.11162 c 0.0124,-0.16123 0.11162,-0.26458 0.24805,-0.26458 0.13642,0 0.23978,0.11162 0.23978,0.25218 0,0.004 0,0.008 0,0.0124 z m 0,0"
       style="fill:#000000;fill-opacity:1;fill-rule:nonzero;stroke:none;stroke-width:0.318715"
       aria-label="Matrix size" />
    <path
       id="path2316"
       d="m 76.079117,96.833365 0.124024,0.359668 h 0.173633 L 75.95096,95.990005 h -0.194304 l -0.429948,1.203028 h 0.161231 l 0.128157,-0.359668 z m -0.04134,-0.132292 h -0.384473 l 0.198438,-0.545703 z m 0.666626,-0.02481 h 0.396875 c 0.136426,0 0.198438,0.06615 0.198438,0.214974 l -0.0041,0.107487 c 0,0.07028 0.01654,0.144694 0.03721,0.194304 h 0.186035 v -0.03721 c -0.05788,-0.04134 -0.07028,-0.08268 -0.07441,-0.243913 0,-0.198438 -0.03307,-0.256315 -0.161231,-0.314193 0.136426,-0.06615 0.190169,-0.148828 0.190169,-0.285254 0,-0.206705 -0.132291,-0.322461 -0.367936,-0.322461 H 76.55144 v 1.203028 h 0.152962 z m 0,-0.136425 v -0.413412 h 0.37207 c 0.08682,0 0.136426,0.0124 0.173633,0.04548 0.04134,0.03307 0.06201,0.09095 0.06201,0.161231 0,0.14056 -0.07441,0.206706 -0.235645,0.206706 z m 1.658814,0.65319 0.338997,-1.008724 v 1.008724 h 0.144694 V 95.99 H 78.631934 L 78.284668,97.035931 77.925,95.99 h -0.21084 v 1.203028 h 0.144694 v -1.008724 l 0.343131,1.008724 z m 1.739428,-0.86403 v 0.124023 c -0.06615,-0.09922 -0.152962,-0.148828 -0.260449,-0.148828 -0.223242,0 -0.367936,0.190169 -0.367936,0.471289 0,0.14056 0.03721,0.256315 0.107487,0.338998 0.06201,0.07441 0.157096,0.115755 0.248047,0.115755 0.107486,0 0.181901,-0.04548 0.260449,-0.152963 v 0.04134 c 0,0.119889 -0.0124,0.190169 -0.04961,0.239778 -0.03721,0.04961 -0.107487,0.07855 -0.190169,0.07855 -0.06201,0 -0.119889,-0.01654 -0.157096,-0.04547 -0.03307,-0.02481 -0.04547,-0.04961 -0.05374,-0.09922 h -0.14056 c 0.01654,0.161231 0.144694,0.26045 0.347266,0.26045 0.128158,0 0.239779,-0.04134 0.293522,-0.111621 0.06615,-0.07855 0.09095,-0.186036 0.09095,-0.388607 v -0.72347 z m -0.248047,0.103353 c 0.148829,0 0.235645,0.124023 0.235645,0.338997 0,0.206706 -0.08682,0.330729 -0.23151,0.330729 -0.152963,0 -0.243913,-0.124023 -0.243913,-0.334863 0,-0.206706 0.09508,-0.334863 0.239778,-0.334863 z m 1.335319,0.376204 c 0,-0.132292 -0.0124,-0.21084 -0.03721,-0.276986 -0.05374,-0.14056 -0.186035,-0.227376 -0.347265,-0.227376 -0.243913,0 -0.396875,0.186035 -0.396875,0.467155 0,0.285254 0.148828,0.458887 0.392741,0.458887 0.198437,0 0.334863,-0.111621 0.367936,-0.297657 H 81.03282 c -0.03721,0.111622 -0.115755,0.169499 -0.227376,0.169499 -0.08682,0 -0.161231,-0.03721 -0.206706,-0.111621 -0.03307,-0.04961 -0.04547,-0.09922 -0.04547,-0.181901 z m -0.636653,-0.111621 c 0.0124,-0.161231 0.111621,-0.264583 0.248047,-0.264583 0.136425,0 0.239778,0.111621 0.239778,0.252181 0,0.0041 0,0.0083 0,0.0124 z m 0.822689,-0.367936 v 0.86403 h 0.136425 v -0.475424 c 0,-0.177766 0.09508,-0.293522 0.235645,-0.293522 0.107487,0 0.177767,0.06615 0.177767,0.169499 v 0.599447 h 0.136425 v -0.65319 c 0,-0.144694 -0.107487,-0.235645 -0.272851,-0.235645 -0.128158,0 -0.21084,0.04961 -0.285254,0.169499 v -0.144694 z m 1.649511,0.479557 c 0,-0.132292 -0.0124,-0.21084 -0.03721,-0.276986 -0.05374,-0.14056 -0.186035,-0.227376 -0.347265,-0.227376 -0.243913,0 -0.396876,0.186035 -0.396876,0.467155 0,0.285254 0.148828,0.458887 0.392741,0.458887 0.198438,0 0.334864,-0.111621 0.367936,-0.297657 h -0.136425 c -0.03721,0.111622 -0.115755,0.169499 -0.227376,0.169499 -0.08682,0 -0.161231,-0.03721 -0.206706,-0.111621 -0.03307,-0.04961 -0.04548,-0.09922 -0.04548,-0.181901 z M 82.38881,96.696934 c 0.0124,-0.161231 0.111622,-0.264583 0.248047,-0.264583 0.136426,0 0.239779,0.111621 0.239779,0.252181 0,0.0041 0,0.0083 0,0.0124 z m 0.823723,-0.367936 v 0.86403 h 0.136426 v -0.450619 c 0,-0.119889 0.03307,-0.202571 0.09922,-0.252181 0.04134,-0.02894 0.08268,-0.04134 0.177767,-0.04134 v -0.14056 c -0.02481,-0.0041 -0.03307,-0.0041 -0.05374,-0.0041 -0.08682,0 -0.157097,0.05374 -0.235645,0.181901 v -0.157096 z m 1.314648,0.781347 c -0.0124,0.0041 -0.02067,0.0041 -0.02894,0.0041 -0.04547,0 -0.07441,-0.0248 -0.07441,-0.06615 v -0.508496 c 0,-0.152963 -0.111621,-0.235645 -0.322461,-0.235645 -0.128158,0 -0.23151,0.03721 -0.289388,0.09922 -0.03721,0.04547 -0.05374,0.09508 -0.05788,0.181901 h 0.136425 c 0.0124,-0.107487 0.07441,-0.152962 0.206706,-0.152962 0.119889,0 0.190169,0.04547 0.190169,0.128157 v 0.03721 c 0,0.05788 -0.03307,0.08268 -0.144694,0.09509 -0.194303,0.0248 -0.223242,0.02894 -0.276985,0.04961 -0.09922,0.04134 -0.148829,0.119889 -0.148829,0.231511 0,0.157096 0.107487,0.256315 0.28112,0.256315 0.111621,0 0.198438,-0.03721 0.293522,-0.128158 0.0124,0.09095 0.05374,0.128158 0.144694,0.128158 0.02894,0 0.04961,-0.0041 0.09095,-0.0124 z m -0.239778,-0.190169 c 0,0.04547 -0.0124,0.07441 -0.05374,0.111621 -0.05788,0.05374 -0.124023,0.07855 -0.202572,0.07855 -0.107487,0 -0.173632,-0.04961 -0.173632,-0.136425 0,-0.09095 0.06201,-0.14056 0.210839,-0.161231 0.144694,-0.02067 0.173633,-0.0248 0.219109,-0.04547 z m 0.694531,-0.591178 h -0.14056 v -0.239779 h -0.136426 v 0.239779 h -0.115755 v 0.111621 h 0.115755 v 0.65319 c 0,0.08682 0.05788,0.136426 0.165365,0.136426 0.03307,0 0.06615,-0.0041 0.111621,-0.0124 V 97.10208 c -0.01654,0.0083 -0.03721,0.0083 -0.06615,0.0083 -0.05788,0 -0.07441,-0.01654 -0.07441,-0.07855 v -0.591178 h 0.14056 z m 0.888834,0.479557 c 0,-0.132292 -0.0124,-0.21084 -0.03721,-0.276986 -0.05374,-0.14056 -0.186035,-0.227376 -0.347265,-0.227376 -0.243913,0 -0.396875,0.186035 -0.396875,0.467155 0,0.285254 0.148828,0.458887 0.392741,0.458887 0.198437,0 0.334863,-0.111621 0.367936,-0.297657 h -0.136426 c -0.03721,0.111622 -0.115755,0.169499 -0.227376,0.169499 -0.08682,0 -0.161231,-0.03721 -0.206706,-0.111621 -0.03307,-0.04961 -0.04547,-0.09922 -0.04547,-0.181901 z m -0.636653,-0.111621 c 0.0124,-0.161231 0.111621,-0.264583 0.248047,-0.264583 0.136425,0 0.239778,0.111621 0.239778,0.252181 0,0.0041 0,0.0083 0,0.0124 z M 86.759603,95.99 h -0.14056 v 0.446485 c -0.05788,-0.08682 -0.148828,-0.132292 -0.264583,-0.132292 -0.223242,0 -0.37207,0.177767 -0.37207,0.454753 0,0.293522 0.144694,0.471289 0.376204,0.471289 0.119889,0 0.202572,-0.04548 0.276986,-0.152963 v 0.115756 h 0.124023 z m -0.380339,0.442351 c 0.148829,0 0.239779,0.132291 0.239779,0.338997 0,0.198437 -0.09508,0.330729 -0.239779,0.330729 -0.152962,0 -0.25218,-0.132292 -0.25218,-0.334863 0,-0.202572 0.09922,-0.334863 0.25218,-0.334863 z m 1.715658,0.186035 c -0.0083,-0.08268 -0.02481,-0.136426 -0.05788,-0.186035 -0.05788,-0.07855 -0.165364,-0.128158 -0.285254,-0.128158 -0.23151,0 -0.384472,0.186035 -0.384472,0.471289 0,0.276986 0.148828,0.454753 0.384472,0.454753 0.206706,0 0.334864,-0.124024 0.3514,-0.334864 h -0.136425 c -0.02481,0.14056 -0.09508,0.206706 -0.210841,0.206706 -0.152962,0 -0.243912,-0.119889 -0.243912,-0.326595 0,-0.214974 0.09095,-0.343131 0.239778,-0.343131 0.115756,0 0.186036,0.06615 0.202572,0.186035 z m 0.499194,-0.314193 c -0.243912,0 -0.392741,0.173633 -0.392741,0.463021 0,0.289388 0.144694,0.463021 0.392741,0.463021 0.243913,0 0.388607,-0.173633 0.388607,-0.454753 0,-0.30179 -0.14056,-0.471289 -0.388607,-0.471289 z m 0,0.128158 c 0.152963,0 0.248047,0.124023 0.248047,0.338997 0,0.202572 -0.09508,0.330729 -0.248047,0.330729 -0.152962,0 -0.248047,-0.124023 -0.248047,-0.334863 0,-0.206706 0.09508,-0.334863 0.248047,-0.334863 z M 89.879826,95.99 h -0.14056 v 0.446485 c -0.05788,-0.08682 -0.148828,-0.132292 -0.264583,-0.132292 -0.223242,0 -0.372071,0.177767 -0.372071,0.454753 0,0.293522 0.144695,0.471289 0.376205,0.471289 0.119889,0 0.202572,-0.04548 0.276985,-0.152963 v 0.115756 h 0.124024 z m -0.380339,0.442351 c 0.148828,0 0.239779,0.132291 0.239779,0.338997 0,0.198437 -0.09508,0.330729 -0.239779,0.330729 -0.152962,0 -0.25218,-0.132292 -0.25218,-0.334863 0,-0.202572 0.09922,-0.334863 0.25218,-0.334863 z m 1.327051,0.376204 c 0,-0.132292 -0.0124,-0.21084 -0.03721,-0.276986 -0.05374,-0.14056 -0.186035,-0.227376 -0.347265,-0.227376 -0.243913,0 -0.396875,0.186035 -0.396875,0.467155 0,0.285254 0.148828,0.458887 0.39274,0.458887 0.198438,0 0.334864,-0.111621 0.367937,-0.297657 h -0.136426 c -0.03721,0.111622 -0.115756,0.169499 -0.227376,0.169499 -0.08682,0 -0.161231,-0.03721 -0.206706,-0.111621 -0.03307,-0.04961 -0.04547,-0.09922 -0.04547,-0.181901 z m -0.636653,-0.111621 c 0.0124,-0.161231 0.111621,-0.264583 0.248046,-0.264583 0.136426,0 0.239779,0.111621 0.239779,0.252181 0,0.0041 0,0.0083 0,0.0124 z m 0,0"
       style="fill:#000000;fill-opacity:1;fill-rule:nonzero;stroke:none;stroke-width:0.318715"
       aria-label="ARM generated code" />
    <path
       id="path2317"
       d="m 91.887436,96.651157 h 4.705187"
       style="fill:none;stroke:#ff0000;stroke-width:0.147565;stroke-linecap:butt;stroke-linejoin:miter;stroke-miterlimit:3.8;stroke-dasharray:none;stroke-opacity:1" />
    <path
       id="path2318"
       d="m 72.076124,138.54973 10.683958,-4.35142 10.695751,-4.33962 10.683957,-8.70283 10.69575,-8.69103 10.68396,-13.030656 h 21.37971"
       style="fill:none;stroke:#ff0000;stroke-width:0.147565;stroke-linecap:butt;stroke-linejoin:miter;stroke-miterlimit:3.8;stroke-dasharray:none;stroke-opacity:1" />
    <path
       id="path2319"
       d="M 72.076124,138.92103 V 138.1781"
       style="fill:none;stroke:#ff0000;stroke-width:0.147565;stroke-linecap:butt;stroke-linejoin:miter;stroke-miterlimit:3.8;stroke-dasharray:none;stroke-opacity:1" />
    <path
       id="path2320"
       d="m 71.704808,138.54973 h 0.742924"
       style="fill:none;stroke:#ff0000;stroke-width:0.147565;stroke-linecap:butt;stroke-linejoin:miter;stroke-miterlimit:3.8;stroke-dasharray:none;stroke-opacity:1" />
    <path
       id="path2321"
       d="m 82.760396,134.56962 v -0.74293"
       style="fill:none;stroke:#ff0000;stroke-width:0.147565;stroke-linecap:butt;stroke-linejoin:miter;stroke-miterlimit:3.8;stroke-dasharray:none;stroke-opacity:1" />
    <path
       id="path2322"
       d="m 82.388789,134.19832 h 0.742924"
       style="fill:none;stroke:#ff0000;stroke-width:0.147565;stroke-linecap:butt;stroke-linejoin:miter;stroke-miterlimit:3.8;stroke-dasharray:none;stroke-opacity:1" />
    <path
       id="path2323"
       d="m 93.456151,130.23 v -0.74261"
       style="fill:none;stroke:#ff0000;stroke-width:0.147565;stroke-linecap:butt;stroke-linejoin:miter;stroke-miterlimit:3.8;stroke-dasharray:none;stroke-opacity:1" />
    <path
       id="path2324"
       d="m 93.084544,129.8587 h 0.742924"
       style="fill:none;stroke:#ff0000;stroke-width:0.147565;stroke-linecap:butt;stroke-linejoin:miter;stroke-miterlimit:3.8;stroke-dasharray:none;stroke-opacity:1" />
    <path
       id="path2325"
       d="m 104.1401,121.52718 v -0.74261"
       style="fill:none;stroke:#ff0000;stroke-width:0.147565;stroke-linecap:butt;stroke-linejoin:miter;stroke-miterlimit:3.8;stroke-dasharray:none;stroke-opacity:1" />
    <path
       id="path2326"
       d="m 103.76847,121.15587 h 0.74293"
       style="fill:none;stroke:#ff0000;stroke-width:0.147565;stroke-linecap:butt;stroke-linejoin:miter;stroke-miterlimit:3.8;stroke-dasharray:none;stroke-opacity:1" />
    <path
       id="path2327"
       d="m 114.83586,112.83614 v -0.74293"
       style="fill:none;stroke:#ff0000;stroke-width:0.147565;stroke-linecap:butt;stroke-linejoin:miter;stroke-miterlimit:3.8;stroke-dasharray:none;stroke-opacity:1" />
    <path
       id="path2328"
       d="m 114.46422,112.46483 h 0.74293"
       style="fill:none;stroke:#ff0000;stroke-width:0.147565;stroke-linecap:butt;stroke-linejoin:miter;stroke-miterlimit:3.8;stroke-dasharray:none;stroke-opacity:1" />
    <path
       id="path2329"
       d="M 125.51981,99.805477 V 99.062552"
       style="fill:none;stroke:#ff0000;stroke-width:0.147565;stroke-linecap:butt;stroke-linejoin:miter;stroke-miterlimit:3.8;stroke-dasharray:none;stroke-opacity:1" />
    <path
       id="path2330"
       d="m 125.1482,99.434177 h 0.74293"
       style="fill:none;stroke:#ff0000;stroke-width:0.147565;stroke-linecap:butt;stroke-linejoin:miter;stroke-miterlimit:3.8;stroke-dasharray:none;stroke-opacity:1" />
    <path
       id="path2331"
       d="M 136.21557,99.805477 V 99.062552"
       style="fill:none;stroke:#ff0000;stroke-width:0.147565;stroke-linecap:butt;stroke-linejoin:miter;stroke-miterlimit:3.8;stroke-dasharray:none;stroke-opacity:1" />
    <path
       id="path2332"
       d="m 135.84393,99.434177 h 0.74293"
       style="fill:none;stroke:#ff0000;stroke-width:0.147565;stroke-linecap:butt;stroke-linejoin:miter;stroke-miterlimit:3.8;stroke-dasharray:none;stroke-opacity:1" />
    <path
       id="path2333"
       d="M 146.89952,99.805477 V 99.062552"
       style="fill:none;stroke:#ff0000;stroke-width:0.147565;stroke-linecap:butt;stroke-linejoin:miter;stroke-miterlimit:3.8;stroke-dasharray:none;stroke-opacity:1" />
    <path
       id="path2334"
       d="m 146.52791,99.434177 h 0.74293"
       style="fill:none;stroke:#ff0000;stroke-width:0.147565;stroke-linecap:butt;stroke-linejoin:miter;stroke-miterlimit:3.8;stroke-dasharray:none;stroke-opacity:1" />
    <path
       id="path2335"
       d="M 94.234449,97.022777 V 96.279852"
       style="fill:none;stroke:#ff0000;stroke-width:0.147565;stroke-linecap:butt;stroke-linejoin:miter;stroke-miterlimit:3.8;stroke-dasharray:none;stroke-opacity:1" />
    <path
       id="path2336"
       d="m 93.862815,96.651157 h 0.742924"
       style="fill:none;stroke:#ff0000;stroke-width:0.147565;stroke-linecap:butt;stroke-linejoin:miter;stroke-miterlimit:3.8;stroke-dasharray:none;stroke-opacity:1" />
    <path
       id="path2337"
       d="m 79.29132,98.484943 0.124024,0.359668 h 0.173633 l -0.425814,-1.203028 h -0.194304 l -0.429947,1.203028 h 0.16123 L 78.8283,98.484943 Z m -0.04134,-0.132292 h -0.384472 l 0.198437,-0.545703 z m 0.666626,-0.02481 h 0.396875 c 0.136426,0 0.198438,0.06615 0.198438,0.214974 l -0.0041,0.107487 c 0,0.07028 0.01654,0.144694 0.03721,0.194304 h 0.186035 v -0.03721 c -0.05788,-0.04134 -0.07028,-0.08268 -0.07441,-0.243913 0,-0.198438 -0.03307,-0.256315 -0.161231,-0.314193 0.136426,-0.06615 0.190169,-0.148828 0.190169,-0.285254 0,-0.206705 -0.132291,-0.322461 -0.367936,-0.322461 h -0.553971 v 1.203028 h 0.152962 z m 0,-0.136425 v -0.413412 h 0.37207 c 0.08682,0 0.136426,0.0124 0.173633,0.04547 0.04134,0.03307 0.06201,0.09095 0.06201,0.161231 0,0.14056 -0.07441,0.206706 -0.235645,0.206706 z m 1.659847,0.65319 0.338998,-1.008724 v 1.008724 h 0.144694 V 97.641583 H 81.84517 l -0.347266,1.045931 -0.359668,-1.045931 h -0.21084 v 1.203028 h 0.144694 v -1.008724 l 0.343132,1.008724 z m 1.701188,-1.223698 c -0.343131,0 -0.578776,0.256315 -0.578776,0.632519 0,0.376205 0.235645,0.628386 0.58291,0.628386 0.144694,0 0.272852,-0.04548 0.372071,-0.128158 0.128157,-0.107487 0.206705,-0.293522 0.206705,-0.491959 0,-0.388607 -0.227376,-0.640788 -0.58291,-0.640788 z m 0,0.136426 c 0.260449,0 0.429948,0.198437 0.429948,0.500227 0,0.293523 -0.173633,0.487826 -0.425814,0.487826 -0.256315,0 -0.429948,-0.194303 -0.429948,-0.49196 0,-0.297656 0.173633,-0.496093 0.425814,-0.496093 z m 0.734839,1.44694 h 0.136426 V 98.75366 c 0.07441,0.09095 0.152962,0.128158 0.264583,0.128158 0.223242,0 0.372071,-0.177767 0.372071,-0.454753 0,-0.289388 -0.144694,-0.471289 -0.372071,-0.471289 -0.115755,0 -0.21084,0.05374 -0.276985,0.152962 V 97.980581 H 84.01248 Z m 0.376204,-1.120345 c 0.152963,0 0.252182,0.132291 0.252182,0.338997 0,0.198438 -0.09922,0.330729 -0.252182,0.330729 -0.144694,0 -0.239778,-0.132291 -0.239778,-0.334863 0,-0.202572 0.09508,-0.334863 0.239778,-0.334863 z m 1.298113,0.376204 c 0,-0.132292 -0.0124,-0.21084 -0.03721,-0.276986 -0.05374,-0.14056 -0.186035,-0.227376 -0.347265,-0.227376 -0.243913,0 -0.396875,0.186035 -0.396875,0.467155 0,0.285254 0.148828,0.458887 0.392741,0.458887 0.198437,0 0.334863,-0.111621 0.367936,-0.297657 h -0.136426 c -0.03721,0.111622 -0.115755,0.169499 -0.227376,0.169499 -0.08682,0 -0.161231,-0.03721 -0.206706,-0.111621 -0.03307,-0.04961 -0.04548,-0.09922 -0.04548,-0.181901 z m -0.636654,-0.111621 c 0.0124,-0.161231 0.111621,-0.264583 0.248047,-0.264583 0.136425,0 0.239778,0.111621 0.239778,0.252181 0,0.0041 0,0.0083 0,0.0124 z m 0.822689,-0.367936 v 0.86403 h 0.136425 v -0.475423 c 0,-0.177767 0.09509,-0.293523 0.235645,-0.293523 0.107487,0 0.177767,0.06615 0.177767,0.169499 v 0.599447 h 0.136425 v -0.65319 c 0,-0.144694 -0.107486,-0.235645 -0.272851,-0.235645 -0.128157,0 -0.21084,0.04961 -0.285254,0.169499 v -0.144694 z m 0.935343,0.86403 h 0.541569 c 0.111621,0 0.198437,-0.03307 0.260449,-0.09922 0.06201,-0.06615 0.09508,-0.148828 0.09508,-0.243913 0,-0.144694 -0.06615,-0.23151 -0.219108,-0.293522 0.107487,-0.04961 0.165365,-0.14056 0.165365,-0.260449 0,-0.08682 -0.03307,-0.165365 -0.09508,-0.223242 -0.06201,-0.05374 -0.144694,-0.08268 -0.26045,-0.08268 h -0.487825 z m 0.152962,-0.686263 v -0.380339 h 0.293522 c 0.08682,0 0.136426,0.0124 0.177767,0.04134 0.04134,0.03307 0.06615,0.08268 0.06615,0.148828 0,0.06615 -0.02481,0.115756 -0.06615,0.148829 -0.04134,0.03307 -0.09095,0.04134 -0.177767,0.04134 z m 0,0.549837 v -0.413412 h 0.372071 c 0.07441,0 0.124023,0.02067 0.16123,0.05788 0.03721,0.03721 0.05374,0.09095 0.05374,0.148828 0,0.05788 -0.01654,0.111621 -0.05374,0.148828 -0.03721,0.04134 -0.08682,0.05788 -0.16123,0.05788 z m 1.100708,-1.066602 h -0.152962 v 1.203028 h 0.748275 V 98.70818 h -0.595313 z m 1.413867,0.84336 0.124024,0.359668 h 0.173633 l -0.425814,-1.203028 h -0.194303 l -0.429948,1.203028 h 0.16123 l 0.128158,-0.359668 z m -0.04134,-0.132292 H 89.0499 l 0.198437,-0.545703 z m 1.345655,-0.355534 c -0.0041,-0.239778 -0.165365,-0.376204 -0.442351,-0.376204 -0.264583,0 -0.425814,0.136426 -0.425814,0.355534 0,0.144694 0.07855,0.239778 0.235645,0.281119 l 0.297656,0.07855 c 0.152963,0.03721 0.223242,0.09922 0.223242,0.194303 0,0.06201 -0.03721,0.128158 -0.08682,0.165365 -0.04961,0.03307 -0.124023,0.04961 -0.223242,0.04961 -0.128158,0 -0.219108,-0.02894 -0.276986,-0.09922 -0.04134,-0.05374 -0.06201,-0.111621 -0.06201,-0.186035 h -0.144695 c 0.0041,0.111621 0.02481,0.186035 0.07028,0.252181 0.08268,0.111621 0.223243,0.169499 0.405144,0.169499 0.144694,0 0.260449,-0.03307 0.338997,-0.09095 0.07855,-0.06615 0.132292,-0.173633 0.132292,-0.276985 0,-0.148829 -0.09508,-0.256316 -0.256316,-0.301791 l -0.30179,-0.07855 c -0.144694,-0.04134 -0.198437,-0.08682 -0.198437,-0.177767 0,-0.124023 0.107487,-0.206706 0.268717,-0.206706 0.190169,0 0.297656,0.09095 0.301791,0.248047 z m 0,0"
       style="fill:#000000;fill-opacity:1;fill-rule:nonzero;stroke:none;stroke-width:0.318715"
       aria-label="ARM OpenBLAS" />
    <path
       id="path2338"
       d="m 91.887436,98.302107 h 4.705187"
       style="fill:none;stroke:#0000ff;stroke-width:0.147565;stroke-linecap:butt;stroke-linejoin:miter;stroke-miterlimit:3.8;stroke-dasharray:0.471698, 0.235849;stroke-dashoffset:0;stroke-opacity:1" />
    <path
       id="path2339"
       d="m 72.076124,142.88935 10.683958,-4.33962 10.695751,-4.35142 10.683957,-4.33962 10.69575,-8.70283 10.68396,-8.69103 10.69575,-4.33962 10.68396,-4.35142"
       style="fill:none;stroke:#0000ff;stroke-width:0.147565;stroke-linecap:butt;stroke-linejoin:miter;stroke-miterlimit:3.8;stroke-dasharray:0.471698, 0.235849;stroke-dashoffset:0;stroke-opacity:1" />
    <path
       id="path2340"
       d="m 71.704491,142.51773 0.742924,0.74292"
       style="fill:none;stroke:#0000ff;stroke-width:0.147565;stroke-linecap:butt;stroke-linejoin:miter;stroke-miterlimit:3.8;stroke-dasharray:none;stroke-opacity:1" />
    <path
       id="path2341"
       d="m 71.704491,143.26066 0.742924,-0.74293"
       style="fill:none;stroke:#0000ff;stroke-width:0.147565;stroke-linecap:butt;stroke-linejoin:miter;stroke-miterlimit:3.8;stroke-dasharray:none;stroke-opacity:1" />
    <path
       id="path2342"
       d="m 82.388127,138.17811 0.742924,0.74292"
       style="fill:none;stroke:#0000ff;stroke-width:0.147565;stroke-linecap:butt;stroke-linejoin:miter;stroke-miterlimit:3.8;stroke-dasharray:none;stroke-opacity:1" />
    <path
       id="path2343"
       d="m 82.388127,138.92103 0.742924,-0.74293"
       style="fill:none;stroke:#0000ff;stroke-width:0.147565;stroke-linecap:butt;stroke-linejoin:miter;stroke-miterlimit:3.8;stroke-dasharray:none;stroke-opacity:1" />
    <path
       id="path2344"
       d="m 93.083882,133.8267 0.742924,0.74292"
       style="fill:none;stroke:#0000ff;stroke-width:0.147565;stroke-linecap:butt;stroke-linejoin:miter;stroke-miterlimit:3.8;stroke-dasharray:none;stroke-opacity:1" />
    <path
       id="path2345"
       d="m 93.083882,134.56962 0.742924,-0.74293"
       style="fill:none;stroke:#0000ff;stroke-width:0.147565;stroke-linecap:butt;stroke-linejoin:miter;stroke-miterlimit:3.8;stroke-dasharray:none;stroke-opacity:1" />
    <path
       id="path2346"
       d="m 103.76783,129.4874 0.74293,0.7426"
       style="fill:none;stroke:#0000ff;stroke-width:0.147565;stroke-linecap:butt;stroke-linejoin:miter;stroke-miterlimit:3.8;stroke-dasharray:none;stroke-opacity:1" />
    <path
       id="path2347"
       d="m 103.76783,130.23 0.74293,-0.74261"
       style="fill:none;stroke:#0000ff;stroke-width:0.147565;stroke-linecap:butt;stroke-linejoin:miter;stroke-miterlimit:3.8;stroke-dasharray:none;stroke-opacity:1" />
    <path
       id="path2348"
       d="m 114.46359,120.78457 0.74293,0.7426"
       style="fill:none;stroke:#0000ff;stroke-width:0.147565;stroke-linecap:butt;stroke-linejoin:miter;stroke-miterlimit:3.8;stroke-dasharray:none;stroke-opacity:1" />
    <path
       id="path2349"
       d="m 114.46359,121.52718 0.74293,-0.74261"
       style="fill:none;stroke:#0000ff;stroke-width:0.147565;stroke-linecap:butt;stroke-linejoin:miter;stroke-miterlimit:3.8;stroke-dasharray:none;stroke-opacity:1" />
    <path
       id="path2350"
       d="m 125.14757,112.09321 0.74293,0.74292"
       style="fill:none;stroke:#0000ff;stroke-width:0.147565;stroke-linecap:butt;stroke-linejoin:miter;stroke-miterlimit:3.8;stroke-dasharray:none;stroke-opacity:1" />
    <path
       id="path2351"
       d="m 125.14757,112.83614 0.74293,-0.74293"
       style="fill:none;stroke:#0000ff;stroke-width:0.147565;stroke-linecap:butt;stroke-linejoin:miter;stroke-miterlimit:3.8;stroke-dasharray:none;stroke-opacity:1" />
    <path
       id="path2352"
       d="m 135.8433,107.75391 0.74293,0.74292"
       style="fill:none;stroke:#0000ff;stroke-width:0.147565;stroke-linecap:butt;stroke-linejoin:miter;stroke-miterlimit:3.8;stroke-dasharray:none;stroke-opacity:1" />
    <path
       id="path2353"
       d="m 135.8433,108.49684 0.74293,-0.74293"
       style="fill:none;stroke:#0000ff;stroke-width:0.147565;stroke-linecap:butt;stroke-linejoin:miter;stroke-miterlimit:3.8;stroke-dasharray:none;stroke-opacity:1" />
    <path
       id="path2354"
       d="m 146.52728,103.4025 0.74293,0.74292"
       style="fill:none;stroke:#0000ff;stroke-width:0.147565;stroke-linecap:butt;stroke-linejoin:miter;stroke-miterlimit:3.8;stroke-dasharray:none;stroke-opacity:1" />
    <path
       id="path2355"
       d="m 146.52728,104.14542 0.74293,-0.74293"
       style="fill:none;stroke:#0000ff;stroke-width:0.147565;stroke-linecap:butt;stroke-linejoin:miter;stroke-miterlimit:3.8;stroke-dasharray:none;stroke-opacity:1" />
    <path
       id="path2356"
       d="m 93.86218,97.930797 0.742924,0.742924"
       style="fill:none;stroke:#0000ff;stroke-width:0.147565;stroke-linecap:butt;stroke-linejoin:miter;stroke-miterlimit:3.8;stroke-dasharray:none;stroke-opacity:1" />
    <path
       id="path2357"
       d="m 93.86218,98.673727 0.742924,-0.742925"
       style="fill:none;stroke:#0000ff;stroke-width:0.147565;stroke-linecap:butt;stroke-linejoin:miter;stroke-miterlimit:3.8;stroke-dasharray:none;stroke-opacity:1" />
    <path
       id="path2358"
       d="M 146.8996,95.081726 H 72.076208 V 147.23994 H 146.8996 Z m -75.14189,0.695502 z"
       style="fill:none;stroke:#000000;stroke-width:0.124002;stroke-linecap:butt;stroke-linejoin:miter;stroke-miterlimit:3.8;stroke-dasharray:none;stroke-opacity:1" />
  </g>
</svg>
